<?xml version="1.0" encoding="UTF-8"?>
<!--Generator: Apple Native CoreSVG 123-->
<!DOCTYPE svg
PUBLIC "-//W3C//DTD SVG 1.1//EN"
       "http://www.w3.org/Graphics/SVG/1.1/DTD/svg11.dtd">
<svg version="1.1" xmlns="http://www.w3.org/2000/svg" xmlns:xlink="http://www.w3.org/1999/xlink" width="3300" height="2200">
 <!--glyph: "uni100429.medium", point size: 100.000000, font version: "Version 15.0d7e11", template writer version: "5"-->
 <g id="Notes">
  <rect height="2200" id="artboard" style="fill:white;opacity:1" width="3300" x="0" y="0"/>
  <line id="" style="fill:none;stroke:black;opacity:1;stroke-width:0.5;" x1="263" x2="3036" y1="292" y2="292"/>
  <text style="stroke:none;fill:black;font-family:-apple-system,&quot;SF Pro Display&quot;,&quot;SF Pro Text&quot;,Helvetica,sans-serif;font-weight:bold;" transform="matrix(1 0 0 1 263 322)">Weight/Scale Variations</text>
  <text style="stroke:none;fill:black;font-family:-apple-system,&quot;SF Pro Display&quot;,&quot;SF Pro Text&quot;,Helvetica,sans-serif;text-anchor:middle;" transform="matrix(1 0 0 1 559.711 322)">Ultralight</text>
  <text style="stroke:none;fill:black;font-family:-apple-system,&quot;SF Pro Display&quot;,&quot;SF Pro Text&quot;,Helvetica,sans-serif;text-anchor:middle;" transform="matrix(1 0 0 1 856.422 322)">Thin</text>
  <text style="stroke:none;fill:black;font-family:-apple-system,&quot;SF Pro Display&quot;,&quot;SF Pro Text&quot;,Helvetica,sans-serif;text-anchor:middle;" transform="matrix(1 0 0 1 1153.13 322)">Light</text>
  <text style="stroke:none;fill:black;font-family:-apple-system,&quot;SF Pro Display&quot;,&quot;SF Pro Text&quot;,Helvetica,sans-serif;text-anchor:middle;" transform="matrix(1 0 0 1 1449.84 322)">Regular</text>
  <text style="stroke:none;fill:black;font-family:-apple-system,&quot;SF Pro Display&quot;,&quot;SF Pro Text&quot;,Helvetica,sans-serif;text-anchor:middle;" transform="matrix(1 0 0 1 1746.56 322)">Medium</text>
  <text style="stroke:none;fill:black;font-family:-apple-system,&quot;SF Pro Display&quot;,&quot;SF Pro Text&quot;,Helvetica,sans-serif;text-anchor:middle;" transform="matrix(1 0 0 1 2043.27 322)">Semibold</text>
  <text style="stroke:none;fill:black;font-family:-apple-system,&quot;SF Pro Display&quot;,&quot;SF Pro Text&quot;,Helvetica,sans-serif;text-anchor:middle;" transform="matrix(1 0 0 1 2339.98 322)">Bold</text>
  <text style="stroke:none;fill:black;font-family:-apple-system,&quot;SF Pro Display&quot;,&quot;SF Pro Text&quot;,Helvetica,sans-serif;text-anchor:middle;" transform="matrix(1 0 0 1 2636.69 322)">Heavy</text>
  <text style="stroke:none;fill:black;font-family:-apple-system,&quot;SF Pro Display&quot;,&quot;SF Pro Text&quot;,Helvetica,sans-serif;text-anchor:middle;" transform="matrix(1 0 0 1 2933.4 322)">Black</text>
  <line id="" style="fill:none;stroke:black;opacity:1;stroke-width:0.5;" x1="263" x2="3036" y1="1903" y2="1903"/>
  <g id="" transform="matrix(1 0 0 1 263 1933)">
   <path d="M 9.24805 0.830078 C 13.5547 0.830078 17.1387 -2.74414 17.1387 -7.05078 C 17.1387 -11.3574 13.5449 -14.9316 9.23828 -14.9316 C 4.94141 -14.9316 1.36719 -11.3574 1.36719 -7.05078 C 1.36719 -2.74414 4.95117 0.830078 9.24805 0.830078 Z M 9.24805 -0.654297 C 5.70312 -0.654297 2.87109 -3.49609 2.87109 -7.05078 C 2.87109 -10.6055 5.69336 -13.4473 9.23828 -13.4473 C 12.793 -13.4473 15.6348 -10.6055 15.6445 -7.05078 C 15.6543 -3.49609 12.8027 -0.654297 9.24805 -0.654297 Z M 9.22852 -3.42773 C 9.69727 -3.42773 9.9707 -3.74023 9.9707 -4.25781 L 9.9707 -6.31836 L 12.1973 -6.31836 C 12.6953 -6.31836 13.0371 -6.57227 13.0371 -7.04102 C 13.0371 -7.51953 12.7148 -7.7832 12.1973 -7.7832 L 9.9707 -7.7832 L 9.9707 -10.0098 C 9.9707 -10.5273 9.69727 -10.8496 9.22852 -10.8496 C 8.75977 -10.8496 8.50586 -10.5078 8.50586 -10.0098 L 8.50586 -7.7832 L 6.29883 -7.7832 C 5.78125 -7.7832 5.44922 -7.51953 5.44922 -7.04102 C 5.44922 -6.57227 5.80078 -6.31836 6.29883 -6.31836 L 8.50586 -6.31836 L 8.50586 -4.25781 C 8.50586 -3.75977 8.75977 -3.42773 9.22852 -3.42773 Z"/>
  </g>
  <g id="" transform="matrix(1 0 0 1 281.506 1933)">
   <path d="M 11.709 2.91016 C 17.1582 2.91016 21.6699 -1.60156 21.6699 -7.05078 C 21.6699 -12.4902 17.1484 -17.0117 11.6992 -17.0117 C 6.25977 -17.0117 1.74805 -12.4902 1.74805 -7.05078 C 1.74805 -1.60156 6.26953 2.91016 11.709 2.91016 Z M 11.709 1.25 C 7.09961 1.25 3.41797 -2.44141 3.41797 -7.05078 C 3.41797 -11.6504 7.08984 -15.3516 11.6992 -15.3516 C 16.3086 -15.3516 20 -11.6504 20.0098 -7.05078 C 20.0195 -2.44141 16.3184 1.25 11.709 1.25 Z M 11.6895 -2.41211 C 12.207 -2.41211 12.5195 -2.77344 12.5195 -3.33984 L 12.5195 -6.23047 L 15.5762 -6.23047 C 16.123 -6.23047 16.5039 -6.51367 16.5039 -7.03125 C 16.5039 -7.55859 16.1426 -7.86133 15.5762 -7.86133 L 12.5195 -7.86133 L 12.5195 -10.9277 C 12.5195 -11.5039 12.207 -11.8555 11.6895 -11.8555 C 11.1719 -11.8555 10.8789 -11.4844 10.8789 -10.9277 L 10.8789 -7.86133 L 7.83203 -7.86133 C 7.26562 -7.86133 6.89453 -7.55859 6.89453 -7.03125 C 6.89453 -6.51367 7.28516 -6.23047 7.83203 -6.23047 L 10.8789 -6.23047 L 10.8789 -3.33984 C 10.8789 -2.79297 11.1719 -2.41211 11.6895 -2.41211 Z"/>
  </g>
  <g id="" transform="matrix(1 0 0 1 304.924 1933)">
   <path d="M 14.9707 5.67383 C 21.9336 5.67383 27.6953 -0.078125 27.6953 -7.04102 C 27.6953 -14.0039 21.9238 -19.7559 14.9609 -19.7559 C 8.00781 -19.7559 2.25586 -14.0039 2.25586 -7.04102 C 2.25586 -0.078125 8.01758 5.67383 14.9707 5.67383 Z M 14.9707 3.85742 C 8.93555 3.85742 4.08203 -1.00586 4.08203 -7.04102 C 4.08203 -13.0762 8.92578 -17.9395 14.9609 -17.9395 C 21.0059 -17.9395 25.8594 -13.0762 25.8691 -7.04102 C 25.8789 -1.00586 21.0156 3.85742 14.9707 3.85742 Z M 14.9512 -1.06445 C 15.5176 -1.06445 15.8691 -1.45508 15.8691 -2.06055 L 15.8691 -6.13281 L 20.1074 -6.13281 C 20.6934 -6.13281 21.1133 -6.46484 21.1133 -7.02148 C 21.1133 -7.59766 20.7227 -7.93945 20.1074 -7.93945 L 15.8691 -7.93945 L 15.8691 -12.1875 C 15.8691 -12.8027 15.5176 -13.1934 14.9512 -13.1934 C 14.3848 -13.1934 14.0625 -12.7832 14.0625 -12.1875 L 14.0625 -7.93945 L 9.83398 -7.93945 C 9.21875 -7.93945 8.80859 -7.59766 8.80859 -7.02148 C 8.80859 -6.46484 9.23828 -6.13281 9.83398 -6.13281 L 14.0625 -6.13281 L 14.0625 -2.06055 C 14.0625 -1.47461 14.3848 -1.06445 14.9512 -1.06445 Z"/>
  </g>
  <text style="stroke:none;fill:black;font-family:-apple-system,&quot;SF Pro Display&quot;,&quot;SF Pro Text&quot;,Helvetica,sans-serif;font-weight:bold;" transform="matrix(1 0 0 1 263 1953)">Design Variations</text>
  <text style="stroke:none;fill:black;font-family:-apple-system,&quot;SF Pro Display&quot;,&quot;SF Pro Text&quot;,Helvetica,sans-serif;" transform="matrix(1 0 0 1 263 1971)">Symbols are supported in up to nine weights and three scales.</text>
  <text style="stroke:none;fill:black;font-family:-apple-system,&quot;SF Pro Display&quot;,&quot;SF Pro Text&quot;,Helvetica,sans-serif;" transform="matrix(1 0 0 1 263 1989)">For optimal layout with text and other symbols, vertically align</text>
  <text style="stroke:none;fill:black;font-family:-apple-system,&quot;SF Pro Display&quot;,&quot;SF Pro Text&quot;,Helvetica,sans-serif;" transform="matrix(1 0 0 1 263 2007)">symbols with the adjacent text.</text>
  <rect height="14" id="" style="fill:#00AEEF;stroke:none;opacity:0.4;" width="3" x="776" y="1919"/>
  <g id="" transform="matrix(1 0 0 1 779 1933)">
   <path d="M 10.5273 0 L 12.373 0 L 7.17773 -14.0918 L 5.43945 -14.0918 L 0.244141 0 L 2.08984 0 L 3.50586 -4.0332 L 9.11133 -4.0332 Z M 6.2793 -11.9531 L 6.33789 -11.9531 L 8.59375 -5.52734 L 4.02344 -5.52734 Z"/>
  </g>
  <rect height="14" id="" style="fill:#00AEEF;stroke:none;opacity:0.4;" width="3" x="791.617" y="1919"/>
  <text style="stroke:none;fill:black;font-family:-apple-system,&quot;SF Pro Display&quot;,&quot;SF Pro Text&quot;,Helvetica,sans-serif;font-weight:bold;" transform="matrix(1 0 0 1 776 1953)">Margins</text>
  <text style="stroke:none;fill:black;font-family:-apple-system,&quot;SF Pro Display&quot;,&quot;SF Pro Text&quot;,Helvetica,sans-serif;" transform="matrix(1 0 0 1 776 1971)">Leading and trailing margins on the left and right side of each symbol</text>
  <text style="stroke:none;fill:black;font-family:-apple-system,&quot;SF Pro Display&quot;,&quot;SF Pro Text&quot;,Helvetica,sans-serif;" transform="matrix(1 0 0 1 776 1989)">can be adjusted by modifying the width of the blue rectangles.</text>
  <text style="stroke:none;fill:black;font-family:-apple-system,&quot;SF Pro Display&quot;,&quot;SF Pro Text&quot;,Helvetica,sans-serif;" transform="matrix(1 0 0 1 776 2007)">Modifications are automatically applied proportionally to all</text>
  <text style="stroke:none;fill:black;font-family:-apple-system,&quot;SF Pro Display&quot;,&quot;SF Pro Text&quot;,Helvetica,sans-serif;" transform="matrix(1 0 0 1 776 2025)">scales and weights.</text>
  <g id="" transform="matrix(1 0 0 1 1289 1933)">
   <path d="M 2.83203 3.11523 L 4.375 4.6582 C 5.22461 5.48828 6.19141 5.41992 7.06055 4.46289 L 17.2754 -6.66016 C 17.7051 -6.36719 18.0957 -6.37695 18.5645 -6.47461 L 19.6094 -6.68945 L 20.3027 -5.99609 L 20.2539 -5.47852 C 20.1855 -4.95117 20.3516 -4.53125 20.8496 -4.0332 L 21.6602 -3.22266 C 22.168 -2.71484 22.8223 -2.68555 23.3008 -3.16406 L 26.5527 -6.41602 C 27.0312 -6.89453 27.0117 -7.54883 26.5039 -8.05664 L 25.6836 -8.87695 C 25.1855 -9.375 24.7754 -9.55078 24.2383 -9.47266 L 23.7109 -9.41406 L 23.0566 -10.0781 L 23.3398 -11.2207 C 23.4863 -11.7871 23.3398 -12.2559 22.7148 -12.8613 L 20.3027 -15.2539 C 16.7578 -18.7793 12.2266 -18.6719 9.11133 -15.5371 C 8.69141 -15.1074 8.64258 -14.5215 8.91602 -14.0918 C 9.15039 -13.7207 9.62891 -13.4961 10.2734 -13.6621 C 11.7871 -14.043 13.3008 -13.9258 14.7852 -12.9199 L 14.1602 -11.3379 C 13.9258 -10.752 13.9453 -10.2734 14.1797 -9.83398 L 3.01758 0.439453 C 2.08008 1.30859 1.97266 2.25586 2.83203 3.11523 Z M 10.6738 -15.1465 C 13.3398 -17.1387 16.6504 -16.8262 19.0527 -14.4141 L 21.6797 -11.8066 C 21.9141 -11.5723 21.9434 -11.3867 21.8848 -11.0938 L 21.5039 -9.53125 L 23.0762 -7.95898 L 24.043 -8.04688 C 24.3262 -8.07617 24.4141 -8.05664 24.6387 -7.83203 L 25.2637 -7.20703 L 22.5098 -4.46289 L 21.8848 -5.07812 C 21.6602 -5.30273 21.6406 -5.40039 21.6699 -5.68359 L 21.7578 -6.64062 L 20.1953 -8.20312 L 18.5742 -7.89062 C 18.291 -7.83203 18.1445 -7.83203 17.9102 -8.07617 L 15.7324 -10.2539 C 15.5078 -10.4883 15.4785 -10.625 15.6055 -10.9473 L 16.5527 -13.2227 C 14.9512 -14.7559 12.8418 -15.6055 10.8008 -14.9512 C 10.7129 -14.9219 10.6445 -14.9414 10.6152 -14.9805 C 10.5859 -15.0293 10.5859 -15.0781 10.6738 -15.1465 Z M 4.10156 2.41211 C 3.61328 1.91406 3.78906 1.61133 4.12109 1.30859 L 15.0781 -8.80859 L 16.3086 -7.57812 L 6.15234 3.34961 C 5.84961 3.68164 5.46875 3.7793 5.06836 3.37891 Z"/>
  </g>
  <text style="stroke:none;fill:black;font-family:-apple-system,&quot;SF Pro Display&quot;,&quot;SF Pro Text&quot;,Helvetica,sans-serif;font-weight:bold;" transform="matrix(1 0 0 1 1289 1953)">Exporting</text>
  <text style="stroke:none;fill:black;font-family:-apple-system,&quot;SF Pro Display&quot;,&quot;SF Pro Text&quot;,Helvetica,sans-serif;" transform="matrix(1 0 0 1 1289 1971)">Symbols should be outlined when exporting to ensure the</text>
  <text style="stroke:none;fill:black;font-family:-apple-system,&quot;SF Pro Display&quot;,&quot;SF Pro Text&quot;,Helvetica,sans-serif;" transform="matrix(1 0 0 1 1289 1989)">design is preserved when submitting to Xcode.</text>
  <text id="template-version" style="stroke:none;fill:black;font-family:-apple-system,&quot;SF Pro Display&quot;,&quot;SF Pro Text&quot;,Helvetica,sans-serif;text-anchor:end;" transform="matrix(1 0 0 1 3036 1933)">Template v.1.0</text>
  <text style="stroke:none;fill:black;font-family:-apple-system,&quot;SF Pro Display&quot;,&quot;SF Pro Text&quot;,Helvetica,sans-serif;text-anchor:end;" transform="matrix(1 0 0 1 3036 1951)">Generated from scope</text>
  <text style="stroke:none;fill:black;font-family:-apple-system,&quot;SF Pro Display&quot;,&quot;SF Pro Text&quot;,Helvetica,sans-serif;text-anchor:end;" transform="matrix(1 0 0 1 3036 1969)">Typeset at 100 points</text>
  <text style="stroke:none;fill:black;font-family:-apple-system,&quot;SF Pro Display&quot;,&quot;SF Pro Text&quot;,Helvetica,sans-serif;" transform="matrix(1 0 0 1 263 726)">Small</text>
  <text style="stroke:none;fill:black;font-family:-apple-system,&quot;SF Pro Display&quot;,&quot;SF Pro Text&quot;,Helvetica,sans-serif;" transform="matrix(1 0 0 1 263 1156)">Medium</text>
  <text style="stroke:none;fill:black;font-family:-apple-system,&quot;SF Pro Display&quot;,&quot;SF Pro Text&quot;,Helvetica,sans-serif;" transform="matrix(1 0 0 1 263 1586)">Large</text>
 </g>
 <g id="Guides">
  <g id="H-reference" style="fill:#27AAE1;stroke:none;" transform="matrix(1 0 0 1 339 696)">
   <path d="M 54.9316 0 L 57.666 0 L 30.5664 -70.459 L 28.0762 -70.459 L 0.976562 0 L 3.66211 0 L 12.9395 -24.4629 L 45.7031 -24.4629 Z M 29.1992 -67.0898 L 29.4434 -67.0898 L 44.8242 -26.709 L 13.8184 -26.709 Z"/>
  </g>
  <line id="Baseline-S" style="fill:none;stroke:#27AAE1;opacity:1;stroke-width:0.577;" x1="263" x2="3036" y1="696" y2="696"/>
  <line id="Capline-S" style="fill:none;stroke:#27AAE1;opacity:1;stroke-width:0.577;" x1="263" x2="3036" y1="625.541" y2="625.541"/>
  <g id="H-reference" style="fill:#27AAE1;stroke:none;" transform="matrix(1 0 0 1 339 1126)">
   <path d="M 54.9316 0 L 57.666 0 L 30.5664 -70.459 L 28.0762 -70.459 L 0.976562 0 L 3.66211 0 L 12.9395 -24.4629 L 45.7031 -24.4629 Z M 29.1992 -67.0898 L 29.4434 -67.0898 L 44.8242 -26.709 L 13.8184 -26.709 Z"/>
  </g>
  <line id="Baseline-M" style="fill:none;stroke:#27AAE1;opacity:1;stroke-width:0.577;" x1="263" x2="3036" y1="1126" y2="1126"/>
  <line id="Capline-M" style="fill:none;stroke:#27AAE1;opacity:1;stroke-width:0.577;" x1="263" x2="3036" y1="1055.54" y2="1055.54"/>
  <g id="H-reference" style="fill:#27AAE1;stroke:none;" transform="matrix(1 0 0 1 339 1556)">
   <path d="M 54.9316 0 L 57.666 0 L 30.5664 -70.459 L 28.0762 -70.459 L 0.976562 0 L 3.66211 0 L 12.9395 -24.4629 L 45.7031 -24.4629 Z M 29.1992 -67.0898 L 29.4434 -67.0898 L 44.8242 -26.709 L 13.8184 -26.709 Z"/>
  </g>
  <line id="Baseline-L" style="fill:none;stroke:#27AAE1;opacity:1;stroke-width:0.577;" x1="263" x2="3036" y1="1556" y2="1556"/>
  <line id="Capline-L" style="fill:none;stroke:#27AAE1;opacity:1;stroke-width:0.577;" x1="263" x2="3036" y1="1485.54" y2="1485.54"/>
  <rect height="119.336" id="left-margin" style="fill:#00AEEF;stroke:none;opacity:0.4;" width="8.74023" x="1381.73" y="1030.79"/>
  <rect height="119.336" id="right-margin" style="fill:#00AEEF;stroke:none;opacity:0.4;" width="8.74023" x="1509.22" y="1030.79"/>
 </g>
 <g id="Symbols">
  <g id="Black-L" transform="matrix(1 0 0 1 2843.41 1556)">
   <path d="M 18.4082 -28.125 L 26.8066 -28.125 C 29.9805 1.70898 53.0762 24.9512 82.9102 28.125 L 82.9102 36.377 C 82.9102 40.3809 86.0352 43.5059 89.9902 43.5059 C 93.9453 43.5059 97.0215 40.3809 97.0215 36.377 L 97.0215 28.125 C 126.855 24.9512 150.049 1.70898 153.223 -28.125 L 161.572 -28.125 C 165.527 -28.125 168.701 -31.2012 168.701 -35.2051 C 168.701 -39.1602 165.527 -42.2363 161.572 -42.2363 L 153.174 -42.2363 C 150 -72.0703 126.855 -95.2148 97.0215 -98.3887 L 97.0215 -106.787 C 97.0215 -110.742 93.9453 -113.867 89.9902 -113.867 C 86.0352 -113.867 82.9102 -110.742 82.9102 -106.787 L 82.9102 -98.3887 C 53.125 -95.2148 30.0293 -72.0703 26.8066 -42.2363 L 18.4082 -42.2363 C 14.4531 -42.2363 11.2793 -39.1602 11.2793 -35.2051 C 11.2793 -31.2012 14.4531 -28.125 18.4082 -28.125 Z M 89.9902 -58.3008 C 93.9453 -58.3008 97.0215 -61.4746 97.0215 -65.4297 L 97.0215 -79.2969 C 115.967 -76.2695 130.566 -61.2793 133.496 -42.2363 L 120.215 -42.2363 C 116.26 -42.2363 113.086 -39.1602 113.086 -35.2051 C 113.086 -31.2012 116.26 -28.125 120.215 -28.125 L 133.496 -28.125 C 130.615 -9.0332 115.967 6.00586 97.0215 9.0332 L 97.0215 -4.98047 C 97.0215 -8.93555 93.9453 -12.0605 89.9902 -12.0605 C 86.0352 -12.0605 82.9102 -8.93555 82.9102 -4.98047 L 82.9102 9.0332 C 63.9648 6.00586 49.3652 -9.0332 46.4355 -28.125 L 59.7656 -28.125 C 63.7207 -28.125 66.8457 -31.2012 66.8457 -35.2051 C 66.8457 -39.1602 63.7207 -42.2363 59.7656 -42.2363 L 46.4844 -42.2363 C 49.4141 -61.2793 64.0137 -76.2695 82.9102 -79.2969 L 82.9102 -65.4297 C 82.9102 -61.4746 86.0352 -58.3008 89.9902 -58.3008 Z"/>
  </g>
  <g id="Heavy-L" transform="matrix(1 0 0 1 2547.41 1556)">
   <path d="M 17.627 -28.8574 L 27.0996 -28.8574 C 29.9805 0.927734 53.2227 24.2188 82.959 27.1484 L 82.959 36.4258 C 82.959 39.9902 85.7422 42.8223 89.2578 42.8223 C 92.8223 42.8223 95.6055 39.9902 95.6055 36.4258 L 95.6055 27.1484 C 125.342 24.2188 148.633 0.927734 151.514 -28.8574 L 160.889 -28.8574 C 164.453 -28.8574 167.285 -31.6406 167.285 -35.2051 C 167.285 -38.7207 164.453 -41.5039 160.889 -41.5039 L 151.514 -41.5039 C 148.584 -71.2402 125.293 -94.5312 95.6055 -97.4609 L 95.6055 -106.836 C 95.6055 -110.352 92.8223 -113.184 89.2578 -113.184 C 85.7422 -113.184 82.959 -110.352 82.959 -106.836 L 82.959 -97.4609 C 53.2227 -94.5312 30.0293 -71.2402 27.0996 -41.5039 L 17.627 -41.5039 C 14.1113 -41.5039 11.2793 -38.7207 11.2793 -35.2051 C 11.2793 -31.6406 14.1113 -28.8574 17.627 -28.8574 Z M 89.2578 -58.8867 C 92.8223 -58.8867 95.6055 -61.7188 95.6055 -65.2344 L 95.6055 -80.8105 C 115.869 -78.0273 131.641 -61.9629 134.326 -41.5039 L 119.336 -41.5039 C 115.771 -41.5039 112.988 -38.7207 112.988 -35.2051 C 112.988 -31.6406 115.771 -28.8574 119.336 -28.8574 L 134.375 -28.8574 C 131.689 -8.39844 115.918 7.71484 95.6055 10.5469 L 95.6055 -5.12695 C 95.6055 -8.69141 92.8223 -11.4746 89.2578 -11.4746 C 85.7422 -11.4746 82.959 -8.69141 82.959 -5.12695 L 82.959 10.5469 C 62.6465 7.71484 46.875 -8.39844 44.1895 -28.8574 L 59.2285 -28.8574 C 62.7441 -28.8574 65.5762 -31.6406 65.5762 -35.2051 C 65.5762 -38.7207 62.7441 -41.5039 59.2285 -41.5039 L 44.1895 -41.5039 C 46.9238 -61.9629 62.6465 -78.0273 82.959 -80.8105 L 82.959 -65.2344 C 82.959 -61.7188 85.7422 -58.8867 89.2578 -58.8867 Z"/>
  </g>
  <g id="Bold-L" transform="matrix(1 0 0 1 2251.48 1556)">
   <path d="M 16.7969 -29.7363 L 27.3926 -29.7363 C 29.9316 0 53.3691 23.4863 83.0078 26.0742 L 83.0078 36.5234 C 83.0078 39.5508 85.4004 42.041 88.4766 42.041 C 91.5527 42.041 93.9453 39.5508 93.9453 36.5234 L 93.9453 26.0742 C 123.633 23.4863 147.07 0 149.609 -29.7363 L 160.205 -29.7363 C 163.232 -29.7363 165.723 -32.1289 165.723 -35.1562 C 165.723 -38.2812 163.232 -40.6738 160.205 -40.6738 L 149.609 -40.6738 C 147.021 -70.3613 123.633 -93.7988 93.9453 -96.3867 L 93.9453 -106.885 C 93.9453 -109.961 91.5527 -112.402 88.4766 -112.402 C 85.4004 -112.402 83.0078 -109.961 83.0078 -106.885 L 83.0078 -96.3867 C 53.3691 -93.7988 29.9805 -70.3613 27.3926 -40.6738 L 16.7969 -40.6738 C 13.7207 -40.6738 11.2793 -38.2812 11.2793 -35.1562 C 11.2793 -32.1289 13.7207 -29.7363 16.7969 -29.7363 Z M 88.4766 -59.5215 C 91.5527 -59.5215 93.9453 -62.0117 93.9453 -65.0391 L 93.9453 -82.4707 C 115.82 -79.9805 132.861 -62.6953 135.303 -40.6738 L 118.359 -40.6738 C 115.283 -40.6738 112.842 -38.2812 112.842 -35.1562 C 112.842 -32.1289 115.283 -29.7363 118.359 -29.7363 L 135.303 -29.7363 C 132.861 -7.66602 115.869 9.66797 93.9453 12.1582 L 93.9453 -5.32227 C 93.9453 -8.39844 91.5527 -10.8398 88.4766 -10.8398 C 85.4004 -10.8398 83.0078 -8.39844 83.0078 -5.32227 L 83.0078 12.1582 C 61.1328 9.66797 44.0918 -7.66602 41.6992 -29.7363 L 58.6426 -29.7363 C 61.6699 -29.7363 64.1113 -32.1289 64.1113 -35.1562 C 64.1113 -38.2812 61.6699 -40.6738 58.6426 -40.6738 L 41.6992 -40.6738 C 44.1406 -62.6953 61.1328 -79.9805 83.0078 -82.4707 L 83.0078 -65.0391 C 83.0078 -62.0117 85.4004 -59.5215 88.4766 -59.5215 Z"/>
  </g>
  <g id="Semibold-L" transform="matrix(1 0 0 1 1955.33 1556)">
   <path d="M 16.2109 -30.2734 L 27.5879 -30.2734 C 29.9316 -0.634766 53.4668 22.9492 83.0566 25.293 L 83.0566 36.5234 C 83.0566 39.3066 85.2051 41.4551 87.9395 41.4551 C 90.7227 41.4551 92.8223 39.3066 92.8223 36.5234 L 92.8223 25.293 C 122.461 22.9492 145.947 -0.634766 148.291 -30.2734 L 159.668 -30.2734 C 162.402 -30.2734 164.6 -32.4219 164.6 -35.1562 C 164.6 -37.9395 162.402 -40.0879 159.668 -40.0879 L 148.291 -40.0879 C 145.947 -69.7266 122.412 -93.2617 92.8223 -95.6543 L 92.8223 -106.934 C 92.8223 -109.668 90.7227 -111.865 87.9395 -111.865 C 85.2051 -111.865 83.0566 -109.668 83.0566 -106.934 L 83.0566 -95.6543 C 53.4668 -93.2617 29.9805 -69.7266 27.5879 -40.0879 L 16.2109 -40.0879 C 13.4766 -40.0879 11.2793 -37.9395 11.2793 -35.1562 C 11.2793 -32.4219 13.4766 -30.2734 16.2109 -30.2734 Z M 87.9395 -60.0098 C 90.7227 -60.0098 92.8223 -62.207 92.8223 -64.9414 L 92.8223 -83.5938 C 115.771 -81.3477 133.691 -63.1836 135.938 -40.0879 L 117.676 -40.0879 C 114.941 -40.0879 112.744 -37.9395 112.744 -35.1562 C 112.744 -32.4219 114.941 -30.2734 117.676 -30.2734 L 135.938 -30.2734 C 133.691 -7.17773 115.771 10.9863 92.8223 13.2812 L 92.8223 -5.46875 C 92.8223 -8.20312 90.7227 -10.4004 87.9395 -10.4004 C 85.2051 -10.4004 83.0566 -8.20312 83.0566 -5.46875 L 83.0566 13.2812 C 60.1074 10.9863 42.1875 -7.17773 39.9902 -30.2734 L 58.2031 -30.2734 C 60.9375 -30.2734 63.1348 -32.4219 63.1348 -35.1562 C 63.1348 -37.9395 60.9375 -40.0879 58.2031 -40.0879 L 39.9902 -40.0879 C 42.1875 -63.1836 60.1074 -81.3477 83.0566 -83.5938 L 83.0566 -64.9414 C 83.0566 -62.207 85.2051 -60.0098 87.9395 -60.0098 Z"/>
  </g>
  <g id="Medium-L" transform="matrix(1 0 0 1 1659.03 1556)">
   <path d="M 15.7715 -30.7129 L 27.7832 -30.7129 C 29.9316 -1.12305 53.5156 22.5586 83.1055 24.707 L 83.1055 36.5723 C 83.1055 39.0625 85.0098 41.0645 87.5 41.0645 C 90.0391 41.0645 91.9922 39.0625 91.9922 36.5723 L 91.9922 24.707 C 121.533 22.5586 145.166 -1.12305 147.314 -30.7129 L 159.277 -30.7129 C 161.816 -30.7129 163.77 -32.666 163.77 -35.1562 C 163.77 -37.6953 161.816 -39.6484 159.277 -39.6484 L 147.314 -39.6484 C 145.117 -69.2383 121.533 -92.8711 91.9922 -95.0684 L 91.9922 -106.934 C 91.9922 -109.473 90.0391 -111.426 87.5 -111.426 C 85.0098 -111.426 83.1055 -109.473 83.1055 -106.934 L 83.1055 -95.0684 C 53.5156 -92.8711 29.9316 -69.2383 27.7832 -39.6484 L 15.7715 -39.6484 C 13.2812 -39.6484 11.2793 -37.6953 11.2793 -35.1562 C 11.2793 -32.666 13.2812 -30.7129 15.7715 -30.7129 Z M 87.5 -60.3516 C 90.0391 -60.3516 91.9922 -62.3535 91.9922 -64.8438 L 91.9922 -84.4727 C 115.723 -82.373 134.326 -63.5742 136.377 -39.6484 L 117.188 -39.6484 C 114.697 -39.6484 112.695 -37.6953 112.695 -35.1562 C 112.695 -32.666 114.697 -30.7129 117.188 -30.7129 L 136.377 -30.7129 C 134.326 -6.78711 115.771 12.0117 91.9922 14.1113 L 91.9922 -5.56641 C 91.9922 -8.05664 90.0391 -10.0586 87.5 -10.0586 C 85.0098 -10.0586 83.1055 -8.05664 83.1055 -5.56641 L 83.1055 14.1113 C 59.3262 12.0117 40.7227 -6.78711 38.6719 -30.7129 L 57.9102 -30.7129 C 60.4004 -30.7129 62.4023 -32.666 62.4023 -35.1562 C 62.4023 -37.6953 60.4004 -39.6484 57.9102 -39.6484 L 38.6719 -39.6484 C 40.7227 -63.5742 59.3262 -82.373 83.1055 -84.4727 L 83.1055 -64.8438 C 83.1055 -62.3535 85.0098 -60.3516 87.5 -60.3516 Z"/>
  </g>
  <g id="Regular-L" transform="matrix(1 0 0 1 1362.86 1556)">
   <path d="M 15.1855 -31.2988 L 27.9785 -31.2988 C 29.9316 -1.75781 53.6133 22.0215 83.1055 23.9746 L 83.1055 36.6211 C 83.1055 38.7695 84.8145 40.5273 86.9629 40.5273 C 89.209 40.5273 90.8691 38.7695 90.8691 36.6211 L 90.8691 23.9746 C 120.361 22.0215 144.092 -1.75781 145.996 -31.2988 L 158.789 -31.2988 C 160.986 -31.2988 162.695 -33.0078 162.695 -35.1562 C 162.695 -37.4023 160.986 -39.0625 158.789 -39.0625 L 145.996 -39.0625 C 144.092 -68.6035 120.361 -92.3828 90.8691 -94.3359 L 90.8691 -106.982 C 90.8691 -109.18 89.209 -110.889 86.9629 -110.889 C 84.8145 -110.889 83.1055 -109.18 83.1055 -106.982 L 83.1055 -94.3359 C 53.6133 -92.3828 29.9316 -68.6035 27.9785 -39.0625 L 15.1855 -39.0625 C 13.0371 -39.0625 11.2793 -37.4023 11.2793 -35.1562 C 11.2793 -33.0078 13.0371 -31.2988 15.1855 -31.2988 Z M 86.9629 -60.791 C 89.209 -60.791 90.8691 -62.5488 90.8691 -64.6973 L 90.8691 -85.5957 C 115.674 -83.6914 135.156 -64.1113 137.012 -39.0625 L 116.504 -39.0625 C 114.355 -39.0625 112.598 -37.4023 112.598 -35.1562 C 112.598 -33.0078 114.355 -31.2988 116.504 -31.2988 L 137.012 -31.2988 C 135.156 -6.29883 115.674 13.3301 90.8691 15.1855 L 90.8691 -5.66406 C 90.8691 -7.86133 89.209 -9.57031 86.9629 -9.57031 C 84.8145 -9.57031 83.1055 -7.86133 83.1055 -5.66406 L 83.1055 15.1855 C 58.3008 13.3301 38.8184 -6.29883 36.9629 -31.2988 L 57.4707 -31.2988 C 59.668 -31.2988 61.4258 -33.0078 61.4258 -35.1562 C 61.4258 -37.4023 59.668 -39.0625 57.4707 -39.0625 L 36.9629 -39.0625 C 38.8184 -64.1113 58.3008 -83.6914 83.1055 -85.5957 L 83.1055 -64.6973 C 83.1055 -62.5488 84.8145 -60.791 86.9629 -60.791 Z"/>
  </g>
  <g id="Light-L" transform="matrix(1 0 0 1 1067.37 1556)">
   <path d="M 14.3555 -32.1777 L 27.1973 -32.1777 C 28.7109 -2.19727 52.832 21.9727 82.7637 23.5352 L 82.7637 36.2305 C 82.7637 37.9395 84.0332 39.3066 85.7422 39.3066 C 87.5 39.3066 88.8184 37.9395 88.8184 36.2305 L 88.8184 23.5352 C 118.75 21.9727 142.822 -2.19727 144.385 -32.1777 L 157.178 -32.1777 C 158.887 -32.1777 160.254 -33.4473 160.254 -35.1562 C 160.254 -36.9141 158.887 -38.2324 157.178 -38.2324 L 144.385 -38.2324 C 142.822 -68.1641 118.75 -92.3828 88.8184 -93.8965 L 88.8184 -106.592 C 88.8184 -108.301 87.5 -109.668 85.7422 -109.668 C 84.0332 -109.668 82.7637 -108.301 82.7637 -106.592 L 82.7637 -93.8965 C 52.832 -92.3828 28.7109 -68.1641 27.1973 -38.2324 L 14.3555 -38.2324 C 12.6953 -38.2324 11.2793 -36.9141 11.2793 -35.1562 C 11.2793 -33.4473 12.6953 -32.1777 14.3555 -32.1777 Z M 85.7422 -61.7188 C 87.5 -61.7188 88.8184 -63.0859 88.8184 -64.7949 L 88.8184 -87.2559 C 115.137 -85.791 136.084 -64.7461 137.598 -38.2324 L 115.381 -38.2324 C 113.672 -38.2324 112.305 -36.9141 112.305 -35.1562 C 112.305 -33.4473 113.672 -32.1777 115.381 -32.1777 L 137.598 -32.1777 C 136.133 -5.66406 115.137 15.3809 88.8184 16.8945 L 88.8184 -5.56641 C 88.8184 -7.27539 87.5 -8.69141 85.7422 -8.69141 C 84.0332 -8.69141 82.7637 -7.27539 82.7637 -5.56641 L 82.7637 16.8945 C 56.3965 15.3809 35.4492 -5.66406 33.9355 -32.1777 L 56.2012 -32.1777 C 57.8613 -32.1777 59.2773 -33.4473 59.2773 -35.1562 C 59.2773 -36.9141 57.8613 -38.2324 56.2012 -38.2324 L 33.9355 -38.2324 C 35.4492 -64.7461 56.3965 -85.791 82.7637 -87.2559 L 82.7637 -64.7949 C 82.7637 -63.0859 84.0332 -61.7188 85.7422 -61.7188 Z"/>
  </g>
  <g id="Thin-L" transform="matrix(1 0 0 1 772.267 1556)">
   <path d="M 13.2812 -33.3008 L 26.123 -33.3008 C 27.0996 -2.7832 51.7578 21.9238 82.2754 22.9492 L 82.2754 35.6934 C 82.2754 36.7676 83.0566 37.6953 84.082 37.6953 C 85.3027 37.6953 86.084 36.7676 86.084 35.6934 L 86.084 22.9492 C 116.553 21.9238 141.211 -2.7832 142.188 -33.3008 L 155.078 -33.3008 C 156.104 -33.3008 157.031 -34.082 157.031 -35.1074 C 157.031 -36.3281 156.104 -37.1094 155.078 -37.1094 L 142.188 -37.1094 C 141.211 -67.627 116.553 -92.334 86.084 -93.3105 L 86.084 -106.104 C 86.084 -107.129 85.3027 -108.057 84.082 -108.057 C 83.0566 -108.057 82.2754 -107.129 82.2754 -106.104 L 82.2754 -93.3105 C 51.7578 -92.334 27.0996 -67.627 26.123 -37.1094 L 13.2812 -37.1094 C 12.207 -37.1094 11.2793 -36.3281 11.2793 -35.1074 C 11.2793 -34.082 12.207 -33.3008 13.2812 -33.3008 Z M 84.082 -62.9395 C 85.3027 -62.9395 86.084 -63.8672 86.084 -64.8926 L 86.084 -89.502 C 114.453 -88.5254 137.354 -65.5273 138.379 -37.1094 L 113.867 -37.1094 C 112.842 -37.1094 111.914 -36.3281 111.914 -35.1074 C 111.914 -34.082 112.842 -33.3008 113.867 -33.3008 L 138.379 -33.3008 C 137.402 -4.83398 114.453 18.1152 86.084 19.1406 L 86.084 -5.46875 C 86.084 -6.54297 85.3027 -7.4707 84.082 -7.4707 C 83.0566 -7.4707 82.2754 -6.54297 82.2754 -5.46875 L 82.2754 19.1406 C 53.9062 18.1152 30.957 -4.83398 29.9805 -33.3008 L 54.4434 -33.3008 C 55.5176 -33.3008 56.4453 -34.082 56.4453 -35.1074 C 56.4453 -36.3281 55.5176 -37.1094 54.4434 -37.1094 L 29.9805 -37.1094 C 30.957 -65.5273 53.9062 -88.5254 82.2754 -89.502 L 82.2754 -64.8926 C 82.2754 -63.8672 83.0566 -62.9395 84.082 -62.9395 Z"/>
  </g>
  <g id="Ultralight-L" transform="matrix(1 0 0 1 476.362 1556)">
   <path d="M 12.6953 -33.8379 L 25.5859 -33.8379 C 26.3184 -3.07617 51.2207 21.9238 82.0312 22.6074 L 82.0312 35.4492 C 82.0312 36.1816 82.5195 36.8652 83.252 36.8652 C 84.1309 36.8652 84.668 36.1816 84.668 35.4492 L 84.668 22.6074 C 115.479 21.9238 140.381 -3.07617 141.064 -33.8379 L 154.004 -33.8379 C 154.688 -33.8379 155.42 -34.375 155.42 -35.1074 C 155.42 -35.9863 154.688 -36.5234 154.004 -36.5234 L 141.064 -36.5234 C 140.381 -67.334 115.479 -92.2852 84.668 -93.0176 L 84.668 -105.811 C 84.668 -106.543 84.1309 -107.227 83.252 -107.227 C 82.5195 -107.227 82.0312 -106.543 82.0312 -105.811 L 82.0312 -93.0176 C 51.2207 -92.2852 26.3184 -67.334 25.5859 -36.5234 L 12.6953 -36.5234 C 11.9629 -36.5234 11.2793 -35.9863 11.2793 -35.1074 C 11.2793 -34.375 11.9629 -33.8379 12.6953 -33.8379 Z M 83.252 -63.5742 C 84.1309 -63.5742 84.668 -64.2578 84.668 -64.9902 L 84.668 -90.625 C 114.062 -89.9414 138.037 -65.9668 138.721 -36.5234 L 113.135 -36.5234 C 112.402 -36.5234 111.719 -35.9863 111.719 -35.1074 C 111.719 -34.375 112.402 -33.8379 113.135 -33.8379 L 138.721 -33.8379 C 138.037 -4.39453 114.062 19.5312 84.668 20.2637 L 84.668 -5.41992 C 84.668 -6.15234 84.1309 -6.83594 83.252 -6.83594 C 82.5195 -6.83594 82.0312 -6.15234 82.0312 -5.41992 L 82.0312 20.2637 C 52.6367 19.5312 28.6621 -4.39453 27.9297 -33.8379 L 53.5645 -33.8379 C 54.2969 -33.8379 54.9805 -34.375 54.9805 -35.1074 C 54.9805 -35.9863 54.2969 -36.5234 53.5645 -36.5234 L 27.9297 -36.5234 C 28.6621 -65.9668 52.6367 -89.9414 82.0312 -90.625 L 82.0312 -64.9902 C 82.0312 -64.2578 82.5195 -63.5742 83.252 -63.5742 Z"/>
  </g>
  <g id="Black-M" transform="matrix(1 0 0 1 2863.38 1126)">
   <path d="M 14.8438 -29.1504 L 19.9707 -29.1504 C 22.6074 -5.71289 40.5762 12.3047 64.0137 14.9902 L 64.0137 20.0195 C 64.0137 23.3887 66.6504 26.0742 70.0195 26.0742 C 73.4375 26.0742 76.0742 23.3887 76.0742 20.0195 L 76.0742 14.9902 C 99.5117 12.3047 117.529 -5.71289 120.166 -29.1504 L 125.244 -29.1504 C 128.613 -29.1504 131.299 -31.7871 131.299 -35.2051 C 131.299 -38.5742 128.613 -41.2109 125.244 -41.2109 L 120.117 -41.2109 C 117.48 -64.6484 99.4629 -82.6172 76.0742 -85.2539 L 76.0742 -90.3809 C 76.0742 -93.7988 73.4375 -96.4844 70.0195 -96.4844 C 66.6504 -96.4844 64.0137 -93.7988 64.0137 -90.3809 L 64.0137 -85.2539 C 40.5762 -82.6172 22.6562 -64.6484 19.9707 -41.2109 L 14.8438 -41.2109 C 11.4258 -41.2109 8.74023 -38.5742 8.74023 -35.2051 C 8.74023 -31.7871 11.4258 -29.1504 14.8438 -29.1504 Z M 70.0195 -52.832 C 73.4375 -52.832 76.0742 -55.5176 76.0742 -58.8867 L 76.0742 -68.2617 C 89.6484 -65.7715 100.195 -54.8828 102.637 -41.2109 L 93.75 -41.2109 C 90.332 -41.2109 87.6465 -38.5742 87.6465 -35.2051 C 87.6465 -31.7871 90.332 -29.1504 93.75 -29.1504 L 102.637 -29.1504 C 100.244 -15.4297 89.6973 -4.49219 76.0742 -2.00195 L 76.0742 -11.4746 C 76.0742 -14.8926 73.4375 -17.5781 70.0195 -17.5781 C 66.6504 -17.5781 64.0137 -14.8926 64.0137 -11.4746 L 64.0137 -2.00195 C 50.3418 -4.49219 39.7949 -15.4297 37.4023 -29.1504 L 46.3379 -29.1504 C 49.707 -29.1504 52.3926 -31.7871 52.3926 -35.2051 C 52.3926 -38.5742 49.707 -41.2109 46.3379 -41.2109 L 37.4512 -41.2109 C 39.8926 -54.9316 50.3906 -65.7715 64.0137 -68.3105 L 64.0137 -58.8867 C 64.0137 -55.5176 66.6504 -52.832 70.0195 -52.832 Z"/>
  </g>
  <g id="Heavy-M" transform="matrix(1 0 0 1 2567.11 1126)">
   <path d="M 14.209 -29.7852 L 20.459 -29.7852 C 22.9004 -6.49414 40.8691 11.5723 64.1602 14.0137 L 64.1602 20.166 C 64.1602 23.1934 66.5039 25.6348 69.5801 25.6348 C 72.6562 25.6348 75 23.1934 75 20.166 L 75 14.0137 C 98.291 11.5723 116.309 -6.49414 118.701 -29.7852 L 124.951 -29.7852 C 127.979 -29.7852 130.42 -32.1289 130.42 -35.2051 C 130.42 -38.2324 127.979 -40.625 124.951 -40.625 L 118.701 -40.625 C 116.26 -63.8672 98.2422 -81.8848 75 -84.3262 L 75 -90.5762 C 75 -93.6035 72.6562 -96.0449 69.5801 -96.0449 C 66.5039 -96.0449 64.1602 -93.6035 64.1602 -90.5762 L 64.1602 -84.3262 C 40.918 -81.8848 22.9492 -63.8672 20.5078 -40.625 L 14.209 -40.625 C 11.1816 -40.625 8.74023 -38.2324 8.74023 -35.2051 C 8.74023 -32.1289 11.1816 -29.7852 14.209 -29.7852 Z M 69.5801 -53.2227 C 72.6562 -53.2227 75 -55.6641 75 -58.6914 L 75 -69.4824 C 89.7461 -67.1387 101.123 -55.4688 103.418 -40.625 L 93.0664 -40.625 C 90.0391 -40.625 87.5977 -38.2324 87.5977 -35.2051 C 87.5977 -32.1289 90.0391 -29.7852 93.0664 -29.7852 L 103.418 -29.7852 C 101.172 -14.8926 89.7461 -3.17383 75 -0.830078 L 75 -11.7188 C 75 -14.7461 72.6562 -17.1875 69.5801 -17.1875 C 66.5039 -17.1875 64.1602 -14.7461 64.1602 -11.7188 L 64.1602 -0.830078 C 49.4141 -3.17383 37.9883 -14.8926 35.7422 -29.7852 L 46.0938 -29.7852 C 49.1211 -29.7852 51.5625 -32.1289 51.5625 -35.2051 C 51.5625 -38.2324 49.1211 -40.625 46.0938 -40.625 L 35.7422 -40.625 C 38.0371 -55.4688 49.4141 -67.1387 64.1602 -69.4824 L 64.1602 -58.6914 C 64.1602 -55.6641 66.5039 -53.2227 69.5801 -53.2227 Z"/>
  </g>
  <g id="Bold-M" transform="matrix(1 0 0 1 2270.91 1126)">
   <path d="M 13.5254 -30.4199 L 21.0449 -30.4199 C 23.2422 -7.37305 41.2598 10.7422 64.3066 12.9395 L 64.3066 20.3125 C 64.3066 22.998 66.4062 25.1465 69.043 25.1465 C 71.7285 25.1465 73.8281 22.998 73.8281 20.3125 L 73.8281 12.9395 C 96.875 10.7422 114.941 -7.37305 117.139 -30.4199 L 124.609 -30.4199 C 127.295 -30.4199 129.395 -32.5195 129.395 -35.2051 C 129.395 -37.8906 127.295 -39.9414 124.609 -39.9414 L 117.139 -39.9414 C 114.893 -62.9883 96.875 -81.0547 73.8281 -83.252 L 73.8281 -90.7227 C 73.8281 -93.4082 71.7285 -95.5078 69.043 -95.5078 C 66.4062 -95.5078 64.3066 -93.4082 64.3066 -90.7227 L 64.3066 -83.252 C 41.3086 -81.0547 23.291 -62.9883 21.0449 -39.9414 L 13.5254 -39.9414 C 10.8887 -39.9414 8.74023 -37.8906 8.74023 -35.2051 C 8.74023 -32.5195 10.8887 -30.4199 13.5254 -30.4199 Z M 69.043 -53.6621 C 71.7285 -53.6621 73.8281 -55.8105 73.8281 -58.4473 L 73.8281 -70.8008 C 89.7949 -68.7012 102.197 -56.0547 104.248 -39.9414 L 92.334 -39.9414 C 89.6484 -39.9414 87.5488 -37.8906 87.5488 -35.2051 C 87.5488 -32.5195 89.6484 -30.4199 92.334 -30.4199 L 104.297 -30.4199 C 102.246 -14.3066 89.8438 -1.61133 73.8281 0.488281 L 73.8281 -11.9141 C 73.8281 -14.5996 71.7285 -16.748 69.043 -16.748 C 66.4062 -16.748 64.3066 -14.5996 64.3066 -11.9141 L 64.3066 0.488281 C 48.291 -1.61133 35.9375 -14.3066 33.8867 -30.4199 L 45.8008 -30.4199 C 48.4863 -30.4199 50.5859 -32.5195 50.5859 -35.2051 C 50.5859 -37.8906 48.4863 -39.9414 45.8008 -39.9414 L 33.8867 -39.9414 C 35.9375 -56.0547 48.3398 -68.7012 64.3066 -70.8008 L 64.3066 -58.4473 C 64.3066 -55.8105 66.4062 -53.6621 69.043 -53.6621 Z"/>
  </g>
  <g id="Semibold-M" transform="matrix(1 0 0 1 1974.54 1126)">
   <path d="M 13.0859 -30.9082 L 21.4355 -30.9082 C 23.4863 -7.95898 41.5527 10.1562 64.4043 12.207 L 64.4043 20.459 C 64.4043 22.8516 66.3086 24.8047 68.7012 24.8047 C 71.1426 24.8047 72.998 22.8516 72.998 20.459 L 72.998 12.207 C 95.8984 10.1562 114.014 -7.95898 116.016 -30.9082 L 124.365 -30.9082 C 126.807 -30.9082 128.711 -32.7637 128.711 -35.2051 C 128.711 -37.5977 126.807 -39.502 124.365 -39.502 L 116.016 -39.502 C 113.965 -62.4023 95.8984 -80.5176 72.998 -82.5195 L 72.998 -90.8691 C 72.998 -93.2617 71.1426 -95.166 68.7012 -95.166 C 66.3086 -95.166 64.4043 -93.2617 64.4043 -90.8691 L 64.4043 -82.5195 C 41.5527 -80.5176 23.4863 -62.4023 21.4355 -39.502 L 13.0859 -39.502 C 10.6445 -39.502 8.74023 -37.5977 8.74023 -35.2051 C 8.74023 -32.7637 10.6445 -30.9082 13.0859 -30.9082 Z M 68.7012 -53.9551 C 71.1426 -53.9551 72.998 -55.9082 72.998 -58.3008 L 72.998 -71.7285 C 89.8438 -69.7754 102.93 -56.4941 104.834 -39.502 L 91.8457 -39.502 C 89.4043 -39.502 87.5 -37.5977 87.5 -35.2051 C 87.5 -32.7637 89.4043 -30.9082 91.8457 -30.9082 L 104.834 -30.9082 C 102.979 -13.916 89.8926 -0.585938 72.998 1.36719 L 72.998 -12.1094 C 72.998 -14.502 71.1426 -16.4062 68.7012 -16.4062 C 66.3086 -16.4062 64.4043 -14.502 64.4043 -12.1094 L 64.4043 1.36719 C 47.5586 -0.585938 34.4727 -13.916 32.6172 -30.9082 L 45.6055 -30.9082 C 48.0469 -30.9082 49.9512 -32.7637 49.9512 -35.2051 C 49.9512 -37.5977 48.0469 -39.502 45.6055 -39.502 L 32.6172 -39.502 C 34.5215 -56.4941 47.5586 -69.7754 64.4043 -71.7285 L 64.4043 -58.3008 C 64.4043 -55.9082 66.3086 -53.9551 68.7012 -53.9551 Z"/>
  </g>
  <g id="Medium-M" transform="matrix(1 0 0 1 1678.1 1126)">
   <path d="M 12.6953 -31.25 L 21.7773 -31.25 C 23.6328 -8.44727 41.748 9.7168 64.502 11.6211 L 64.502 20.5566 C 64.502 22.7539 66.2598 24.5117 68.457 24.5117 C 70.7031 24.5117 72.4121 22.7539 72.4121 20.5566 L 72.4121 11.6211 C 95.166 9.7168 113.281 -8.44727 115.186 -31.25 L 124.219 -31.25 C 126.416 -31.25 128.174 -32.959 128.174 -35.2051 C 128.174 -37.4023 126.416 -39.1602 124.219 -39.1602 L 115.186 -39.1602 C 113.281 -61.9629 95.166 -80.0781 72.4121 -81.9824 L 72.4121 -90.9668 C 72.4121 -93.1641 70.7031 -94.9219 68.457 -94.9219 C 66.2598 -94.9219 64.502 -93.1641 64.502 -90.9668 L 64.502 -81.9824 C 41.748 -80.0781 23.6328 -61.9629 21.7773 -39.1602 L 12.6953 -39.1602 C 10.498 -39.1602 8.74023 -37.4023 8.74023 -35.2051 C 8.74023 -32.959 10.498 -31.25 12.6953 -31.25 Z M 68.457 -54.1992 C 70.7031 -54.1992 72.4121 -55.957 72.4121 -58.1543 L 72.4121 -72.4121 C 89.8926 -70.5566 103.516 -56.7871 105.273 -39.1602 L 91.4551 -39.1602 C 89.209 -39.1602 87.4512 -37.4023 87.4512 -35.2051 C 87.4512 -32.959 89.209 -31.25 91.4551 -31.25 L 105.273 -31.25 C 103.516 -13.5742 89.8926 0.195312 72.4121 2.00195 L 72.4121 -12.207 C 72.4121 -14.4531 70.7031 -16.2109 68.457 -16.2109 C 66.2598 -16.2109 64.502 -14.4531 64.502 -12.207 L 64.502 2.00195 C 47.0215 0.195312 33.3984 -13.5742 31.6406 -31.25 L 45.5078 -31.25 C 47.7051 -31.25 49.4629 -32.959 49.4629 -35.2051 C 49.4629 -37.4023 47.7051 -39.1602 45.5078 -39.1602 L 31.6406 -39.1602 C 33.4473 -56.7871 47.0215 -70.5566 64.502 -72.4121 L 64.502 -58.1543 C 64.502 -55.957 66.2598 -54.1992 68.457 -54.1992 Z"/>
  </g>
  <g id="Regular-M" transform="matrix(1 0 0 1 1381.73 1126)">
   <path d="M 12.2559 -31.6895 L 22.168 -31.6895 C 23.877 -9.0332 41.9922 9.17969 64.5996 10.8887 L 64.5996 20.6543 C 64.5996 22.6074 66.1621 24.1699 68.1152 24.1699 C 70.0684 24.1699 71.582 22.6074 71.582 20.6543 L 71.582 10.8887 C 94.2383 9.17969 112.354 -9.0332 114.062 -31.6895 L 123.975 -31.6895 C 125.928 -31.6895 127.49 -33.252 127.49 -35.2051 C 127.49 -37.1582 125.928 -38.6719 123.975 -38.6719 L 114.062 -38.6719 C 112.354 -61.3281 94.2383 -79.541 71.582 -81.25 L 71.582 -91.0645 C 71.582 -93.0176 70.0684 -94.5801 68.1152 -94.5801 C 66.1621 -94.5801 64.5996 -93.0176 64.5996 -91.0645 L 64.5996 -81.25 C 41.9922 -79.541 23.877 -61.3281 22.168 -38.6719 L 12.2559 -38.6719 C 10.3027 -38.6719 8.74023 -37.1582 8.74023 -35.2051 C 8.74023 -33.252 10.3027 -31.6895 12.2559 -31.6895 Z M 68.1152 -54.4922 C 70.0684 -54.4922 71.582 -56.0547 71.582 -58.0078 L 71.582 -73.291 C 89.9414 -71.6309 104.248 -57.2266 105.811 -38.6719 L 90.918 -38.6719 C 88.9648 -38.6719 87.4023 -37.1582 87.4023 -35.2051 C 87.4023 -33.252 88.9648 -31.6895 90.918 -31.6895 L 105.811 -31.6895 C 104.248 -13.1836 89.9414 1.2207 71.582 2.88086 L 71.582 -12.4023 C 71.582 -14.3555 70.0684 -15.8691 68.1152 -15.8691 C 66.1621 -15.8691 64.5996 -14.3555 64.5996 -12.4023 L 64.5996 2.88086 C 46.2891 1.2207 31.9824 -13.1836 30.4199 -31.6895 L 45.3125 -31.6895 C 47.2656 -31.6895 48.8281 -33.252 48.8281 -35.2051 C 48.8281 -37.1582 47.2656 -38.6719 45.3125 -38.6719 L 30.4199 -38.6719 C 31.9824 -57.2266 46.2891 -71.6309 64.5996 -73.291 L 64.5996 -58.0078 C 64.5996 -56.0547 66.1621 -54.4922 68.1152 -54.4922 Z"/>
  </g>
  <g id="Light-M" transform="matrix(1 0 0 1 1086.12 1126)">
   <path d="M 11.5234 -32.4707 L 21.4355 -32.4707 C 22.8027 -9.42383 41.3086 9.13086 64.3066 10.498 L 64.3066 20.3125 C 64.3066 21.8262 65.4785 23.0957 66.9922 23.0957 C 68.5547 23.0957 69.7266 21.8262 69.7266 20.3125 L 69.7266 10.498 C 92.7246 9.13086 111.279 -9.42383 112.598 -32.4707 L 122.559 -32.4707 C 124.072 -32.4707 125.293 -33.6426 125.293 -35.1562 C 125.293 -36.7676 124.072 -37.9395 122.559 -37.9395 L 112.598 -37.9395 C 111.279 -60.9375 92.7246 -79.541 69.7266 -80.9082 L 69.7266 -90.7227 C 69.7266 -92.2363 68.5547 -93.457 66.9922 -93.457 C 65.4785 -93.457 64.3066 -92.2363 64.3066 -90.7227 L 64.3066 -80.9082 C 41.3086 -79.541 22.8027 -60.9375 21.4355 -37.9395 L 11.5234 -37.9395 C 9.96094 -37.9395 8.74023 -36.7676 8.74023 -35.1562 C 8.74023 -33.6426 9.96094 -32.4707 11.5234 -32.4707 Z M 66.9922 -55.3223 C 68.5547 -55.3223 69.7266 -56.5918 69.7266 -58.1055 L 69.7266 -74.8047 C 89.502 -73.4863 105.078 -57.8125 106.396 -37.9395 L 89.9414 -37.9395 C 88.3789 -37.9395 87.1582 -36.7676 87.1582 -35.1562 C 87.1582 -33.6426 88.3789 -32.4707 89.9414 -32.4707 L 106.396 -32.4707 C 105.078 -12.5977 89.502 3.07617 69.7266 4.39453 L 69.7266 -12.3047 C 69.7266 -13.8184 68.5547 -15.0391 66.9922 -15.0391 C 65.4785 -15.0391 64.3066 -13.8184 64.3066 -12.3047 L 64.3066 4.39453 C 44.5801 3.07617 29.0039 -12.5977 27.6855 -32.4707 L 44.1406 -32.4707 C 45.6543 -32.4707 46.875 -33.6426 46.875 -35.1562 C 46.875 -36.7676 45.6543 -37.9395 44.1406 -37.9395 L 27.6855 -37.9395 C 29.0039 -57.8125 44.5801 -73.4863 64.3066 -74.8047 L 64.3066 -58.1055 C 64.3066 -56.5918 65.4785 -55.3223 66.9922 -55.3223 Z"/>
  </g>
  <g id="Thin-M" transform="matrix(1 0 0 1 790.846 1126)">
   <path d="M 10.498 -33.4961 L 20.459 -33.4961 C 21.3867 -9.96094 40.332 9.08203 63.8672 9.96094 L 63.8672 19.873 C 63.8672 20.8008 64.5508 21.6309 65.5273 21.6309 C 66.6016 21.6309 67.2852 20.8008 67.2852 19.873 L 67.2852 9.96094 C 90.8203 9.08203 109.766 -9.96094 110.693 -33.4961 L 120.654 -33.4961 C 121.582 -33.4961 122.412 -34.1797 122.412 -35.1562 C 122.412 -36.1816 121.582 -36.9141 120.654 -36.9141 L 110.693 -36.9141 C 109.766 -60.4492 90.8203 -79.4922 67.2852 -80.3711 L 67.2852 -90.2832 C 67.2852 -91.2109 66.6016 -92.041 65.5273 -92.041 C 64.5508 -92.041 63.8672 -91.2109 63.8672 -90.2832 L 63.8672 -80.3711 C 40.332 -79.4922 21.3867 -60.4492 20.459 -36.9141 L 10.498 -36.9141 C 9.57031 -36.9141 8.74023 -36.1816 8.74023 -35.1562 C 8.74023 -34.1797 9.57031 -33.4961 10.498 -33.4961 Z M 65.5273 -56.4453 C 66.6016 -56.4453 67.2852 -57.2754 67.2852 -58.2031 L 67.2852 -76.8066 C 88.8184 -75.9277 106.201 -58.5449 107.08 -36.9141 L 88.5742 -36.9141 C 87.6465 -36.9141 86.8164 -36.1816 86.8164 -35.1562 C 86.8164 -34.1797 87.6465 -33.4961 88.5742 -33.4961 L 107.08 -33.4961 C 106.201 -11.8652 88.8184 5.51758 67.2852 6.39648 L 67.2852 -12.207 C 67.2852 -13.1348 66.6016 -13.9648 65.5273 -13.9648 C 64.5508 -13.9648 63.8672 -13.1348 63.8672 -12.207 L 63.8672 6.39648 C 42.334 5.51758 24.9512 -11.8652 24.0723 -33.4961 L 42.5781 -33.4961 C 43.5059 -33.4961 44.3359 -34.1797 44.3359 -35.1562 C 44.3359 -36.1816 43.5059 -36.9141 42.5781 -36.9141 L 24.0723 -36.9141 C 24.9512 -58.5449 42.334 -75.9277 63.8672 -76.8066 L 63.8672 -58.2031 C 63.8672 -57.2754 64.5508 -56.4453 65.5273 -56.4453 Z"/>
  </g>
  <g id="Ultralight-M" transform="matrix(1 0 0 1 494.867 1126)">
   <path d="M 10.0098 -33.9844 L 20.0195 -33.9844 C 20.6543 -10.2051 39.8438 9.08203 63.623 9.7168 L 63.623 19.6289 C 63.623 20.3125 64.1113 20.8984 64.7949 20.8984 C 65.5762 20.8984 66.0156 20.3125 66.0156 19.6289 L 66.0156 9.7168 C 89.7949 9.08203 109.033 -10.2051 109.668 -33.9844 L 119.678 -33.9844 C 120.312 -33.9844 120.947 -34.4727 120.947 -35.1562 C 120.947 -35.9375 120.312 -36.4258 119.678 -36.4258 L 109.668 -36.4258 C 109.033 -60.2051 89.7949 -79.4434 66.0156 -80.0781 L 66.0156 -90.0391 C 66.0156 -90.6738 65.5762 -91.3086 64.7949 -91.3086 C 64.1113 -91.3086 63.623 -90.6738 63.623 -90.0391 L 63.623 -80.0781 C 39.8438 -79.4434 20.6543 -60.2051 20.0195 -36.4258 L 10.0098 -36.4258 C 9.32617 -36.4258 8.74023 -35.9375 8.74023 -35.1562 C 8.74023 -34.4727 9.32617 -33.9844 10.0098 -33.9844 Z M 64.7949 -56.9824 C 65.5762 -56.9824 66.0156 -57.6172 66.0156 -58.252 L 66.0156 -77.832 C 88.4766 -77.1973 106.787 -58.9355 107.422 -36.4258 L 87.8906 -36.4258 C 87.2559 -36.4258 86.6211 -35.9375 86.6211 -35.1562 C 86.6211 -34.4727 87.2559 -33.9844 87.8906 -33.9844 L 107.422 -33.9844 C 106.787 -11.4746 88.4766 6.78711 66.0156 7.42188 L 66.0156 -12.1582 C 66.0156 -12.793 65.5762 -13.3789 64.7949 -13.3789 C 64.1113 -13.3789 63.623 -12.793 63.623 -12.1582 L 63.623 7.42188 C 41.1621 6.78711 22.9004 -11.4746 22.2656 -33.9844 L 41.748 -33.9844 C 42.4316 -33.9844 43.0176 -34.4727 43.0176 -35.1562 C 43.0176 -35.9375 42.4316 -36.4258 41.748 -36.4258 L 22.2656 -36.4258 C 22.9004 -58.9355 41.1621 -77.1973 63.623 -77.832 L 63.623 -58.252 C 63.623 -57.6172 64.1113 -56.9824 64.7949 -56.9824 Z"/>
  </g>
  <g id="Black-S" transform="matrix(1 0 0 1 2878.57 696)">
   <path d="M 11.5723 -30.5176 L 15.6738 -30.5176 C 17.7246 -12.1582 31.7871 1.95312 50.1465 4.05273 L 50.1465 8.05664 C 50.1465 10.6934 52.1973 12.793 54.834 12.793 C 57.4707 12.793 59.5215 10.6934 59.5215 8.05664 L 59.5215 4.05273 C 77.8809 1.95312 91.9922 -12.1582 94.043 -30.5176 L 98.0957 -30.5176 C 100.732 -30.5176 102.832 -32.5684 102.832 -35.2051 C 102.832 -37.8418 100.732 -39.8926 98.0957 -39.8926 L 94.043 -39.8926 C 91.9434 -58.2031 77.832 -72.2656 59.5215 -74.3652 L 59.5215 -78.4668 C 59.5215 -81.1035 57.4707 -83.2031 54.834 -83.2031 C 52.1973 -83.2031 50.1465 -81.1035 50.1465 -78.4668 L 50.1465 -74.3652 C 31.8359 -72.2656 17.7734 -58.2031 15.6738 -39.8926 L 11.5723 -39.8926 C 8.93555 -39.8926 6.83594 -37.8418 6.83594 -35.2051 C 6.83594 -32.5684 8.93555 -30.5176 11.5723 -30.5176 Z M 54.834 -49.0234 C 57.4707 -49.0234 59.5215 -51.123 59.5215 -53.7598 L 59.5215 -61.1816 C 70.2637 -59.2285 78.5645 -50.6836 80.4688 -39.8926 L 73.3887 -39.8926 C 70.752 -39.8926 68.6523 -37.8418 68.6523 -35.2051 C 68.6523 -32.5684 70.752 -30.5176 73.3887 -30.5176 L 80.4688 -30.5176 C 78.6133 -19.6777 70.2637 -11.084 59.5215 -9.13086 L 59.5215 -16.6504 C 59.5215 -19.2871 57.4707 -21.3867 54.834 -21.3867 C 52.1973 -21.3867 50.1465 -19.2871 50.1465 -16.6504 L 50.1465 -9.13086 C 39.4043 -11.084 31.0547 -19.6777 29.1992 -30.5176 L 36.2793 -30.5176 C 38.916 -30.5176 41.0156 -32.5684 41.0156 -35.2051 C 41.0156 -37.8418 38.916 -39.8926 36.2793 -39.8926 L 29.1992 -39.8926 C 31.1035 -50.6836 39.4043 -59.2285 50.1465 -61.1816 L 50.1465 -53.7598 C 50.1465 -51.123 52.1973 -49.0234 54.834 -49.0234 Z"/>
  </g>
  <g id="Heavy-S" transform="matrix(1 0 0 1 2582.07 696)">
   <path d="M 11.1816 -30.9082 L 16.1621 -30.9082 C 18.0664 -12.6953 32.1289 1.41602 50.293 3.32031 L 50.293 8.20312 C 50.293 10.6445 52.1973 12.5488 54.5898 12.5488 C 57.0312 12.5488 58.9355 10.6445 58.9355 8.20312 L 58.9355 3.32031 C 77.0996 1.41602 91.1621 -12.6953 93.1152 -30.9082 L 98.0469 -30.9082 C 100.439 -30.9082 102.393 -32.7637 102.393 -35.2051 C 102.393 -37.6465 100.439 -39.502 98.0469 -39.502 L 93.0664 -39.502 C 91.1133 -57.666 77.0508 -71.7285 58.9355 -73.6816 L 58.9355 -78.6133 C 58.9355 -81.0547 57.0312 -82.959 54.5898 -82.959 C 52.1973 -82.959 50.293 -81.0547 50.293 -78.6133 L 50.293 -73.6816 C 32.1777 -71.7285 18.1152 -57.666 16.1621 -39.502 L 11.1816 -39.502 C 8.74023 -39.502 6.83594 -37.6465 6.83594 -35.2051 C 6.83594 -32.7637 8.74023 -30.9082 11.1816 -30.9082 Z M 54.5898 -49.2188 C 57.0312 -49.2188 58.9355 -51.1719 58.9355 -53.6133 L 58.9355 -61.9629 C 70.3613 -60.1074 79.1992 -51.0254 80.957 -39.502 L 72.998 -39.502 C 70.5566 -39.502 68.6523 -37.6465 68.6523 -35.2051 C 68.6523 -32.7637 70.5566 -30.9082 72.998 -30.9082 L 81.0059 -30.9082 C 79.1992 -19.3359 70.3613 -10.2539 58.9355 -8.39844 L 58.9355 -16.7969 C 58.9355 -19.2383 57.0312 -21.1914 54.5898 -21.1914 C 52.1973 -21.1914 50.293 -19.2383 50.293 -16.7969 L 50.293 -8.39844 C 38.8672 -10.2539 29.9805 -19.3359 28.2227 -30.9082 L 36.2305 -30.9082 C 38.6719 -30.9082 40.5762 -32.7637 40.5762 -35.2051 C 40.5762 -37.6465 38.6719 -39.502 36.2305 -39.502 L 28.2227 -39.502 C 30.0293 -51.0254 38.8672 -60.1074 50.293 -61.9629 L 50.293 -53.6133 C 50.293 -51.1719 52.1973 -49.2188 54.5898 -49.2188 Z"/>
  </g>
  <g id="Bold-S" transform="matrix(1 0 0 1 2285.61 696)">
   <path d="M 10.7422 -31.2988 L 16.6992 -31.2988 C 18.457 -13.3301 32.5195 0.78125 50.4395 2.53906 L 50.4395 8.39844 C 50.4395 10.5957 52.1484 12.3047 54.3457 12.3047 C 56.543 12.3047 58.252 10.5957 58.252 8.39844 L 58.252 2.53906 C 76.2207 0.78125 90.2832 -13.3301 92.041 -31.2988 L 97.9492 -31.2988 C 100.146 -31.2988 101.904 -33.0078 101.904 -35.2051 C 101.904 -37.4023 100.146 -39.1113 97.9492 -39.1113 L 92.041 -39.1113 C 90.2344 -57.0312 76.1719 -71.1426 58.252 -72.9004 L 58.252 -78.8086 C 58.252 -81.0059 56.543 -82.7148 54.3457 -82.7148 C 52.1484 -82.7148 50.4395 -81.0059 50.4395 -78.8086 L 50.4395 -72.9004 C 32.5195 -71.1426 18.5059 -57.0312 16.6992 -39.1113 L 10.7422 -39.1113 C 8.59375 -39.1113 6.83594 -37.4023 6.83594 -35.2051 C 6.83594 -33.0078 8.59375 -31.2988 10.7422 -31.2988 Z M 54.3457 -49.4629 C 56.543 -49.4629 58.252 -51.2207 58.252 -53.418 L 58.252 -62.7441 C 70.459 -61.0352 79.8828 -51.416 81.543 -39.1113 L 72.5586 -39.1113 C 70.3613 -39.1113 68.6523 -37.4023 68.6523 -35.2051 C 68.6523 -33.0078 70.3613 -31.2988 72.5586 -31.2988 L 81.5918 -31.2988 C 79.9316 -18.9453 70.5078 -9.32617 58.252 -7.61719 L 58.252 -16.9922 C 58.252 -19.1895 56.543 -20.9473 54.3457 -20.9473 C 52.1484 -20.9473 50.4395 -19.1895 50.4395 -16.9922 L 50.4395 -7.61719 C 38.2324 -9.32617 28.8086 -18.9453 27.1484 -31.2988 L 36.1816 -31.2988 C 38.3301 -31.2988 40.0879 -33.0078 40.0879 -35.2051 C 40.0879 -37.4023 38.3301 -39.1113 36.1816 -39.1113 L 27.1484 -39.1113 C 28.8086 -51.416 38.2324 -61.0352 50.4395 -62.7441 L 50.4395 -53.418 C 50.4395 -51.2207 52.1484 -49.4629 54.3457 -49.4629 Z"/>
  </g>
  <g id="Semibold-S" transform="matrix(1 0 0 1 1989.09 696)">
   <path d="M 10.4492 -31.5918 L 17.041 -31.5918 C 18.75 -13.7695 32.7637 0.341797 50.5859 2.00195 L 50.5859 8.49609 C 50.5859 10.5469 52.1484 12.1582 54.1992 12.1582 C 56.2012 12.1582 57.8125 10.5469 57.8125 8.49609 L 57.8125 2.00195 C 75.5859 0.341797 89.6484 -13.7695 91.3086 -31.5918 L 97.9004 -31.5918 C 99.9512 -31.5918 101.514 -33.1543 101.514 -35.2051 C 101.514 -37.2559 99.9512 -38.8184 97.9004 -38.8184 L 91.3086 -38.8184 C 89.6484 -56.6406 75.5859 -70.7031 57.8125 -72.4121 L 57.8125 -78.9062 C 57.8125 -80.957 56.2012 -82.5684 54.1992 -82.5684 C 52.1484 -82.5684 50.5859 -80.957 50.5859 -78.9062 L 50.5859 -72.4121 C 32.8125 -70.7031 18.75 -56.6406 17.041 -38.8184 L 10.4492 -38.8184 C 8.44727 -38.8184 6.83594 -37.2559 6.83594 -35.2051 C 6.83594 -33.1543 8.44727 -31.5918 10.4492 -31.5918 Z M 54.1992 -49.6582 C 56.2012 -49.6582 57.8125 -51.2207 57.8125 -53.2715 L 57.8125 -63.3301 C 70.5566 -61.7188 80.3711 -51.709 81.9336 -38.8184 L 72.2656 -38.8184 C 70.2148 -38.8184 68.6035 -37.2559 68.6035 -35.2051 C 68.6035 -33.1543 70.2148 -31.5918 72.2656 -31.5918 L 81.9824 -31.5918 C 80.4199 -18.7012 70.5566 -8.64258 57.8125 -7.08008 L 57.8125 -17.1387 C 57.8125 -19.1895 56.2012 -20.752 54.1992 -20.752 C 52.1484 -20.752 50.5859 -19.1895 50.5859 -17.1387 L 50.5859 -7.08008 C 37.793 -8.64258 27.9785 -18.7012 26.416 -31.5918 L 36.1328 -31.5918 C 38.1348 -31.5918 39.7461 -33.1543 39.7461 -35.2051 C 39.7461 -37.2559 38.1348 -38.8184 36.1328 -38.8184 L 26.416 -38.8184 C 27.9785 -51.709 37.8418 -61.7188 50.5859 -63.3301 L 50.5859 -53.2715 C 50.5859 -51.2207 52.1484 -49.6582 54.1992 -49.6582 Z"/>
  </g>
  <g id="Medium-S" transform="matrix(1 0 0 1 1692.5 696)">
   <path d="M 10.2539 -31.8359 L 17.334 -31.8359 C 18.9453 -14.1113 33.0078 0 50.6836 1.61133 L 50.6836 8.59375 C 50.6836 10.498 52.1484 12.0117 54.0527 12.0117 C 55.957 12.0117 57.4219 10.498 57.4219 8.59375 L 57.4219 1.61133 C 75.0977 0 89.1602 -14.1113 90.7715 -31.8359 L 97.8516 -31.8359 C 99.7559 -31.8359 101.27 -33.3008 101.27 -35.2051 C 101.27 -37.1094 99.7559 -38.5742 97.8516 -38.5742 L 90.7715 -38.5742 C 89.1602 -56.2988 75.0977 -70.4102 57.4219 -72.0215 L 57.4219 -79.0039 C 57.4219 -80.9082 55.957 -82.4219 54.0527 -82.4219 C 52.1484 -82.4219 50.6836 -80.9082 50.6836 -79.0039 L 50.6836 -72.0215 C 33.0078 -70.4102 18.9453 -56.2988 17.334 -38.5742 L 10.2539 -38.5742 C 8.34961 -38.5742 6.83594 -37.1094 6.83594 -35.2051 C 6.83594 -33.3008 8.34961 -31.8359 10.2539 -31.8359 Z M 54.0527 -49.7559 C 55.957 -49.7559 57.4219 -51.2695 57.4219 -53.1738 L 57.4219 -63.7207 C 70.6055 -62.207 80.7617 -51.9043 82.2754 -38.5742 L 72.0215 -38.5742 C 70.1172 -38.5742 68.6035 -37.1094 68.6035 -35.2051 C 68.6035 -33.3008 70.1172 -31.8359 72.0215 -31.8359 L 82.2754 -31.8359 C 80.7617 -18.5059 70.6055 -8.1543 57.4219 -6.64062 L 57.4219 -17.2363 C 57.4219 -19.1406 55.957 -20.6543 54.0527 -20.6543 C 52.1484 -20.6543 50.6836 -19.1406 50.6836 -17.2363 L 50.6836 -6.64062 C 37.5 -8.1543 27.3438 -18.5059 25.8301 -31.8359 L 36.084 -31.8359 C 37.9883 -31.8359 39.502 -33.3008 39.502 -35.2051 C 39.502 -37.1094 37.9883 -38.5742 36.084 -38.5742 L 25.8789 -38.5742 C 27.3438 -51.9043 37.5 -62.207 50.6836 -63.7207 L 50.6836 -53.1738 C 50.6836 -51.2695 52.1484 -49.7559 54.0527 -49.7559 Z"/>
  </g>
  <g id="Regular-S" transform="matrix(1 0 0 1 1395.96 696)">
   <path d="M 9.96094 -32.0801 L 17.7246 -32.0801 C 19.1895 -14.5508 33.252 -0.439453 50.7812 1.07422 L 50.7812 8.74023 C 50.7812 10.498 52.1484 11.8652 53.8574 11.8652 C 55.6152 11.8652 56.9824 10.498 56.9824 8.74023 L 56.9824 1.07422 C 74.5117 -0.439453 88.5742 -14.5508 90.0879 -32.0801 L 97.8027 -32.0801 C 99.5605 -32.0801 100.928 -33.4473 100.928 -35.2051 C 100.928 -36.9629 99.5605 -38.3301 97.8027 -38.3301 L 90.0879 -38.3301 C 88.5742 -55.8594 74.5117 -69.9707 56.9824 -71.4844 L 56.9824 -79.1504 C 56.9824 -80.9082 55.6152 -82.2754 53.8574 -82.2754 C 52.1484 -82.2754 50.7812 -80.9082 50.7812 -79.1504 L 50.7812 -71.4844 C 33.252 -69.9707 19.1895 -55.8594 17.7246 -38.3301 L 9.96094 -38.3301 C 8.20312 -38.3301 6.83594 -36.9629 6.83594 -35.2051 C 6.83594 -33.4473 8.20312 -32.0801 9.96094 -32.0801 Z M 53.8574 -49.9512 C 55.6152 -49.9512 56.9824 -51.3184 56.9824 -53.0273 L 56.9824 -64.2578 C 70.7031 -62.8906 81.25 -52.1973 82.6172 -38.3301 L 71.7285 -38.3301 C 69.9707 -38.3301 68.6035 -36.9629 68.6035 -35.2051 C 68.6035 -33.4473 69.9707 -32.0801 71.7285 -32.0801 L 82.6172 -32.0801 C 81.25 -18.2129 70.7031 -7.51953 56.9824 -6.15234 L 56.9824 -17.3828 C 56.9824 -19.0918 55.6152 -20.459 53.8574 -20.459 C 52.1484 -20.459 50.7812 -19.0918 50.7812 -17.3828 L 50.7812 -6.15234 C 37.0605 -7.51953 26.5137 -18.2129 25.1465 -32.0801 L 36.0352 -32.0801 C 37.793 -32.0801 39.1602 -33.4473 39.1602 -35.2051 C 39.1602 -36.9629 37.793 -38.3301 36.0352 -38.3301 L 25.1465 -38.3301 C 26.5137 -52.1973 37.0605 -62.8906 50.7812 -64.2578 L 50.7812 -53.0273 C 50.7812 -51.3184 52.1484 -49.9512 53.8574 -49.9512 Z"/>
  </g>
  <g id="Light-S" transform="matrix(1 0 0 1 1100.23 696)">
   <path d="M 9.27734 -32.7637 L 17.041 -32.7637 C 18.2617 -14.8926 32.6172 -0.488281 50.4883 0.732422 L 50.4883 8.44727 C 50.4883 9.76562 51.5625 10.8887 52.8809 10.8887 C 54.2969 10.8887 55.3223 9.76562 55.3223 8.44727 L 55.3223 0.732422 C 73.1934 -0.488281 87.5977 -14.8926 88.7695 -32.7637 L 96.5332 -32.7637 C 97.9004 -32.7637 98.9746 -33.8379 98.9746 -35.2051 C 98.9746 -36.5723 97.9004 -37.6465 96.5332 -37.6465 L 88.7695 -37.6465 C 87.5977 -55.5176 73.1934 -69.9219 55.3223 -71.1426 L 55.3223 -78.8574 C 55.3223 -80.1758 54.2969 -81.2988 52.8809 -81.2988 C 51.5625 -81.2988 50.4883 -80.1758 50.4883 -78.8574 L 50.4883 -71.1426 C 32.6172 -69.9219 18.2617 -55.5176 17.041 -37.6465 L 9.27734 -37.6465 C 7.91016 -37.6465 6.83594 -36.5723 6.83594 -35.2051 C 6.83594 -33.8379 7.91016 -32.7637 9.27734 -32.7637 Z M 52.8809 -50.6836 C 54.2969 -50.6836 55.3223 -51.7578 55.3223 -53.125 L 55.3223 -65.625 C 70.2637 -64.502 81.9824 -52.6855 83.1055 -37.6465 L 70.8008 -37.6465 C 69.4824 -37.6465 68.3594 -36.5723 68.3594 -35.2051 C 68.3594 -33.8379 69.4824 -32.7637 70.8008 -32.7637 L 83.1055 -32.7637 C 81.9824 -17.7246 70.2637 -5.9082 55.3223 -4.78516 L 55.3223 -17.2852 C 55.3223 -18.6523 54.2969 -19.7266 52.8809 -19.7266 C 51.5625 -19.7266 50.4883 -18.6523 50.4883 -17.2852 L 50.4883 -4.78516 C 35.5469 -5.9082 23.877 -17.7246 22.7051 -32.7637 L 35.0098 -32.7637 C 36.377 -32.7637 37.4512 -33.8379 37.4512 -35.2051 C 37.4512 -36.5723 36.377 -37.6465 35.0098 -37.6465 L 22.7051 -37.6465 C 23.877 -52.6855 35.5469 -64.502 50.4883 -65.625 L 50.4883 -53.125 C 50.4883 -51.7578 51.5625 -50.6836 52.8809 -50.6836 Z"/>
  </g>
  <g id="Thin-S" transform="matrix(1 0 0 1 804.786 696)">
   <path d="M 8.39844 -33.6426 L 16.2109 -33.6426 C 16.9922 -15.332 31.7871 -0.488281 50.0977 0.292969 L 50.0977 8.00781 C 50.0977 8.88672 50.7324 9.61914 51.6113 9.61914 C 52.5391 9.61914 53.1738 8.88672 53.1738 8.00781 L 53.1738 0.292969 C 71.4844 -0.488281 86.2793 -15.332 87.0605 -33.6426 L 94.873 -33.6426 C 95.7031 -33.6426 96.4355 -34.3262 96.4355 -35.1562 C 96.4355 -36.084 95.7031 -36.7676 94.873 -36.7676 L 87.0605 -36.7676 C 86.2793 -55.0781 71.4844 -69.9219 53.1738 -70.7031 L 53.1738 -78.418 C 53.1738 -79.2969 52.5391 -80.0293 51.6113 -80.0293 C 50.7324 -80.0293 50.0977 -79.2969 50.0977 -78.418 L 50.0977 -70.7031 C 31.7871 -69.9219 16.9922 -55.0781 16.2109 -36.7676 L 8.39844 -36.7676 C 7.56836 -36.7676 6.83594 -36.084 6.83594 -35.1562 C 6.83594 -34.3262 7.56836 -33.6426 8.39844 -33.6426 Z M 51.6113 -51.6113 C 52.5391 -51.6113 53.1738 -52.3438 53.1738 -53.2227 L 53.1738 -67.4316 C 69.7266 -66.6504 82.959 -53.3691 83.7402 -36.7676 L 69.6289 -36.7676 C 68.7988 -36.7676 68.0664 -36.084 68.0664 -35.1562 C 68.0664 -34.3262 68.7988 -33.6426 69.6289 -33.6426 L 83.7402 -33.6426 C 82.959 -17.041 69.7266 -3.75977 53.1738 -2.97852 L 53.1738 -17.1875 C 53.1738 -18.0664 52.5391 -18.7988 51.6113 -18.7988 C 50.7324 -18.7988 50.0977 -18.0664 50.0977 -17.1875 L 50.0977 -2.97852 C 33.5449 -3.75977 20.3125 -17.041 19.5312 -33.6426 L 33.6426 -33.6426 C 34.4727 -33.6426 35.2051 -34.3262 35.2051 -35.1562 C 35.2051 -36.084 34.4727 -36.7676 33.6426 -36.7676 L 19.5312 -36.7676 C 20.3125 -53.3691 33.5449 -66.6504 50.0977 -67.4316 L 50.0977 -53.2227 C 50.0977 -52.3438 50.7324 -51.6113 51.6113 -51.6113 Z"/>
  </g>
  <g id="Ultralight-S" transform="matrix(1 0 0 1 508.735 696)">
   <path d="M 7.95898 -34.1309 L 15.7715 -34.1309 C 16.3574 -15.5762 31.3477 -0.537109 49.9023 0.0488281 L 49.9023 7.8125 C 49.9023 8.39844 50.3418 8.93555 50.9277 8.93555 C 51.6113 8.93555 52.0508 8.39844 52.0508 7.8125 L 52.0508 0.0488281 C 70.6055 -0.537109 85.5957 -15.5762 86.1816 -34.1309 L 93.9941 -34.1309 C 94.5801 -34.1309 95.1172 -34.5703 95.1172 -35.1562 C 95.1172 -35.8398 94.5801 -36.2793 93.9941 -36.2793 L 86.1816 -36.2793 C 85.5957 -54.834 70.6055 -69.873 52.0508 -70.459 L 52.0508 -78.2227 C 52.0508 -78.8086 51.6113 -79.3457 50.9277 -79.3457 C 50.3418 -79.3457 49.9023 -78.8086 49.9023 -78.2227 L 49.9023 -70.459 C 31.3477 -69.873 16.3574 -54.834 15.7715 -36.2793 L 7.95898 -36.2793 C 7.37305 -36.2793 6.83594 -35.8398 6.83594 -35.1562 C 6.83594 -34.5703 7.37305 -34.1309 7.95898 -34.1309 Z M 50.9277 -52.1484 C 51.6113 -52.1484 52.0508 -52.6855 52.0508 -53.2715 L 52.0508 -68.3105 C 69.4336 -67.7734 83.4961 -53.7109 84.0332 -36.2793 L 69.043 -36.2793 C 68.457 -36.2793 67.9199 -35.8398 67.9199 -35.1562 C 67.9199 -34.5703 68.457 -34.1309 69.043 -34.1309 L 84.0332 -34.1309 C 83.4961 -16.6992 69.4336 -2.63672 52.0508 -2.09961 L 52.0508 -17.1387 C 52.0508 -17.7246 51.6113 -18.2617 50.9277 -18.2617 C 50.3418 -18.2617 49.9023 -17.7246 49.9023 -17.1387 L 49.9023 -2.09961 C 32.5684 -2.63672 18.457 -16.6992 17.9199 -34.1309 L 32.9102 -34.1309 C 33.5449 -34.1309 34.0332 -34.5703 34.0332 -35.1562 C 34.0332 -35.8398 33.5449 -36.2793 32.9102 -36.2793 L 17.9199 -36.2793 C 18.457 -53.7109 32.5684 -67.7734 49.9023 -68.3105 L 49.9023 -53.2715 C 49.9023 -52.6855 50.3418 -52.1484 50.9277 -52.1484 Z"/>
  </g>
 </g>
</svg>
