<?xml version="1.0" encoding="UTF-8"?>
<!--Generator: Apple Native CoreSVG 123-->
<!DOCTYPE svg
PUBLIC "-//W3C//DTD SVG 1.1//EN"
       "http://www.w3.org/Graphics/SVG/1.1/DTD/svg11.dtd">
<svg version="1.1" xmlns="http://www.w3.org/2000/svg" xmlns:xlink="http://www.w3.org/1999/xlink" width="3300" height="2200">
 <!--glyph: "uni100205.medium", point size: 100.000000, font version: "Version 15.0d7e11", template writer version: "5"-->
 <g id="Notes">
  <rect height="2200" id="artboard" style="fill:white;opacity:1" width="3300" x="0" y="0"/>
  <line id="" style="fill:none;stroke:black;opacity:1;stroke-width:0.5;" x1="263" x2="3036" y1="292" y2="292"/>
  <text style="stroke:none;fill:black;font-family:-apple-system,&quot;SF Pro Display&quot;,&quot;SF Pro Text&quot;,Helvetica,sans-serif;font-weight:bold;" transform="matrix(1 0 0 1 263 322)">Weight/Scale Variations</text>
  <text style="stroke:none;fill:black;font-family:-apple-system,&quot;SF Pro Display&quot;,&quot;SF Pro Text&quot;,Helvetica,sans-serif;text-anchor:middle;" transform="matrix(1 0 0 1 559.711 322)">Ultralight</text>
  <text style="stroke:none;fill:black;font-family:-apple-system,&quot;SF Pro Display&quot;,&quot;SF Pro Text&quot;,Helvetica,sans-serif;text-anchor:middle;" transform="matrix(1 0 0 1 856.422 322)">Thin</text>
  <text style="stroke:none;fill:black;font-family:-apple-system,&quot;SF Pro Display&quot;,&quot;SF Pro Text&quot;,Helvetica,sans-serif;text-anchor:middle;" transform="matrix(1 0 0 1 1153.13 322)">Light</text>
  <text style="stroke:none;fill:black;font-family:-apple-system,&quot;SF Pro Display&quot;,&quot;SF Pro Text&quot;,Helvetica,sans-serif;text-anchor:middle;" transform="matrix(1 0 0 1 1449.84 322)">Regular</text>
  <text style="stroke:none;fill:black;font-family:-apple-system,&quot;SF Pro Display&quot;,&quot;SF Pro Text&quot;,Helvetica,sans-serif;text-anchor:middle;" transform="matrix(1 0 0 1 1746.56 322)">Medium</text>
  <text style="stroke:none;fill:black;font-family:-apple-system,&quot;SF Pro Display&quot;,&quot;SF Pro Text&quot;,Helvetica,sans-serif;text-anchor:middle;" transform="matrix(1 0 0 1 2043.27 322)">Semibold</text>
  <text style="stroke:none;fill:black;font-family:-apple-system,&quot;SF Pro Display&quot;,&quot;SF Pro Text&quot;,Helvetica,sans-serif;text-anchor:middle;" transform="matrix(1 0 0 1 2339.98 322)">Bold</text>
  <text style="stroke:none;fill:black;font-family:-apple-system,&quot;SF Pro Display&quot;,&quot;SF Pro Text&quot;,Helvetica,sans-serif;text-anchor:middle;" transform="matrix(1 0 0 1 2636.69 322)">Heavy</text>
  <text style="stroke:none;fill:black;font-family:-apple-system,&quot;SF Pro Display&quot;,&quot;SF Pro Text&quot;,Helvetica,sans-serif;text-anchor:middle;" transform="matrix(1 0 0 1 2933.4 322)">Black</text>
  <line id="" style="fill:none;stroke:black;opacity:1;stroke-width:0.5;" x1="263" x2="3036" y1="1903" y2="1903"/>
  <g id="" transform="matrix(1 0 0 1 263 1933)">
   <path d="M 9.24805 0.830078 C 13.5547 0.830078 17.1387 -2.74414 17.1387 -7.05078 C 17.1387 -11.3574 13.5449 -14.9316 9.23828 -14.9316 C 4.94141 -14.9316 1.36719 -11.3574 1.36719 -7.05078 C 1.36719 -2.74414 4.95117 0.830078 9.24805 0.830078 Z M 9.24805 -0.654297 C 5.70312 -0.654297 2.87109 -3.49609 2.87109 -7.05078 C 2.87109 -10.6055 5.69336 -13.4473 9.23828 -13.4473 C 12.793 -13.4473 15.6348 -10.6055 15.6445 -7.05078 C 15.6543 -3.49609 12.8027 -0.654297 9.24805 -0.654297 Z M 9.22852 -3.42773 C 9.69727 -3.42773 9.9707 -3.74023 9.9707 -4.25781 L 9.9707 -6.31836 L 12.1973 -6.31836 C 12.6953 -6.31836 13.0371 -6.57227 13.0371 -7.04102 C 13.0371 -7.51953 12.7148 -7.7832 12.1973 -7.7832 L 9.9707 -7.7832 L 9.9707 -10.0098 C 9.9707 -10.5273 9.69727 -10.8496 9.22852 -10.8496 C 8.75977 -10.8496 8.50586 -10.5078 8.50586 -10.0098 L 8.50586 -7.7832 L 6.29883 -7.7832 C 5.78125 -7.7832 5.44922 -7.51953 5.44922 -7.04102 C 5.44922 -6.57227 5.80078 -6.31836 6.29883 -6.31836 L 8.50586 -6.31836 L 8.50586 -4.25781 C 8.50586 -3.75977 8.75977 -3.42773 9.22852 -3.42773 Z"/>
  </g>
  <g id="" transform="matrix(1 0 0 1 281.506 1933)">
   <path d="M 11.709 2.91016 C 17.1582 2.91016 21.6699 -1.60156 21.6699 -7.05078 C 21.6699 -12.4902 17.1484 -17.0117 11.6992 -17.0117 C 6.25977 -17.0117 1.74805 -12.4902 1.74805 -7.05078 C 1.74805 -1.60156 6.26953 2.91016 11.709 2.91016 Z M 11.709 1.25 C 7.09961 1.25 3.41797 -2.44141 3.41797 -7.05078 C 3.41797 -11.6504 7.08984 -15.3516 11.6992 -15.3516 C 16.3086 -15.3516 20 -11.6504 20.0098 -7.05078 C 20.0195 -2.44141 16.3184 1.25 11.709 1.25 Z M 11.6895 -2.41211 C 12.207 -2.41211 12.5195 -2.77344 12.5195 -3.33984 L 12.5195 -6.23047 L 15.5762 -6.23047 C 16.123 -6.23047 16.5039 -6.51367 16.5039 -7.03125 C 16.5039 -7.55859 16.1426 -7.86133 15.5762 -7.86133 L 12.5195 -7.86133 L 12.5195 -10.9277 C 12.5195 -11.5039 12.207 -11.8555 11.6895 -11.8555 C 11.1719 -11.8555 10.8789 -11.4844 10.8789 -10.9277 L 10.8789 -7.86133 L 7.83203 -7.86133 C 7.26562 -7.86133 6.89453 -7.55859 6.89453 -7.03125 C 6.89453 -6.51367 7.28516 -6.23047 7.83203 -6.23047 L 10.8789 -6.23047 L 10.8789 -3.33984 C 10.8789 -2.79297 11.1719 -2.41211 11.6895 -2.41211 Z"/>
  </g>
  <g id="" transform="matrix(1 0 0 1 304.924 1933)">
   <path d="M 14.9707 5.67383 C 21.9336 5.67383 27.6953 -0.078125 27.6953 -7.04102 C 27.6953 -14.0039 21.9238 -19.7559 14.9609 -19.7559 C 8.00781 -19.7559 2.25586 -14.0039 2.25586 -7.04102 C 2.25586 -0.078125 8.01758 5.67383 14.9707 5.67383 Z M 14.9707 3.85742 C 8.93555 3.85742 4.08203 -1.00586 4.08203 -7.04102 C 4.08203 -13.0762 8.92578 -17.9395 14.9609 -17.9395 C 21.0059 -17.9395 25.8594 -13.0762 25.8691 -7.04102 C 25.8789 -1.00586 21.0156 3.85742 14.9707 3.85742 Z M 14.9512 -1.06445 C 15.5176 -1.06445 15.8691 -1.45508 15.8691 -2.06055 L 15.8691 -6.13281 L 20.1074 -6.13281 C 20.6934 -6.13281 21.1133 -6.46484 21.1133 -7.02148 C 21.1133 -7.59766 20.7227 -7.93945 20.1074 -7.93945 L 15.8691 -7.93945 L 15.8691 -12.1875 C 15.8691 -12.8027 15.5176 -13.1934 14.9512 -13.1934 C 14.3848 -13.1934 14.0625 -12.7832 14.0625 -12.1875 L 14.0625 -7.93945 L 9.83398 -7.93945 C 9.21875 -7.93945 8.80859 -7.59766 8.80859 -7.02148 C 8.80859 -6.46484 9.23828 -6.13281 9.83398 -6.13281 L 14.0625 -6.13281 L 14.0625 -2.06055 C 14.0625 -1.47461 14.3848 -1.06445 14.9512 -1.06445 Z"/>
  </g>
  <text style="stroke:none;fill:black;font-family:-apple-system,&quot;SF Pro Display&quot;,&quot;SF Pro Text&quot;,Helvetica,sans-serif;font-weight:bold;" transform="matrix(1 0 0 1 263 1953)">Design Variations</text>
  <text style="stroke:none;fill:black;font-family:-apple-system,&quot;SF Pro Display&quot;,&quot;SF Pro Text&quot;,Helvetica,sans-serif;" transform="matrix(1 0 0 1 263 1971)">Symbols are supported in up to nine weights and three scales.</text>
  <text style="stroke:none;fill:black;font-family:-apple-system,&quot;SF Pro Display&quot;,&quot;SF Pro Text&quot;,Helvetica,sans-serif;" transform="matrix(1 0 0 1 263 1989)">For optimal layout with text and other symbols, vertically align</text>
  <text style="stroke:none;fill:black;font-family:-apple-system,&quot;SF Pro Display&quot;,&quot;SF Pro Text&quot;,Helvetica,sans-serif;" transform="matrix(1 0 0 1 263 2007)">symbols with the adjacent text.</text>
  <rect height="14" id="" style="fill:#00AEEF;stroke:none;opacity:0.4;" width="3" x="776" y="1919"/>
  <g id="" transform="matrix(1 0 0 1 779 1933)">
   <path d="M 10.5273 0 L 12.373 0 L 7.17773 -14.0918 L 5.43945 -14.0918 L 0.244141 0 L 2.08984 0 L 3.50586 -4.0332 L 9.11133 -4.0332 Z M 6.2793 -11.9531 L 6.33789 -11.9531 L 8.59375 -5.52734 L 4.02344 -5.52734 Z"/>
  </g>
  <rect height="14" id="" style="fill:#00AEEF;stroke:none;opacity:0.4;" width="3" x="791.617" y="1919"/>
  <text style="stroke:none;fill:black;font-family:-apple-system,&quot;SF Pro Display&quot;,&quot;SF Pro Text&quot;,Helvetica,sans-serif;font-weight:bold;" transform="matrix(1 0 0 1 776 1953)">Margins</text>
  <text style="stroke:none;fill:black;font-family:-apple-system,&quot;SF Pro Display&quot;,&quot;SF Pro Text&quot;,Helvetica,sans-serif;" transform="matrix(1 0 0 1 776 1971)">Leading and trailing margins on the left and right side of each symbol</text>
  <text style="stroke:none;fill:black;font-family:-apple-system,&quot;SF Pro Display&quot;,&quot;SF Pro Text&quot;,Helvetica,sans-serif;" transform="matrix(1 0 0 1 776 1989)">can be adjusted by modifying the width of the blue rectangles.</text>
  <text style="stroke:none;fill:black;font-family:-apple-system,&quot;SF Pro Display&quot;,&quot;SF Pro Text&quot;,Helvetica,sans-serif;" transform="matrix(1 0 0 1 776 2007)">Modifications are automatically applied proportionally to all</text>
  <text style="stroke:none;fill:black;font-family:-apple-system,&quot;SF Pro Display&quot;,&quot;SF Pro Text&quot;,Helvetica,sans-serif;" transform="matrix(1 0 0 1 776 2025)">scales and weights.</text>
  <g id="" transform="matrix(1 0 0 1 1289 1933)">
   <path d="M 2.83203 3.11523 L 4.375 4.6582 C 5.22461 5.48828 6.19141 5.41992 7.06055 4.46289 L 17.2754 -6.66016 C 17.7051 -6.36719 18.0957 -6.37695 18.5645 -6.47461 L 19.6094 -6.68945 L 20.3027 -5.99609 L 20.2539 -5.47852 C 20.1855 -4.95117 20.3516 -4.53125 20.8496 -4.0332 L 21.6602 -3.22266 C 22.168 -2.71484 22.8223 -2.68555 23.3008 -3.16406 L 26.5527 -6.41602 C 27.0312 -6.89453 27.0117 -7.54883 26.5039 -8.05664 L 25.6836 -8.87695 C 25.1855 -9.375 24.7754 -9.55078 24.2383 -9.47266 L 23.7109 -9.41406 L 23.0566 -10.0781 L 23.3398 -11.2207 C 23.4863 -11.7871 23.3398 -12.2559 22.7148 -12.8613 L 20.3027 -15.2539 C 16.7578 -18.7793 12.2266 -18.6719 9.11133 -15.5371 C 8.69141 -15.1074 8.64258 -14.5215 8.91602 -14.0918 C 9.15039 -13.7207 9.62891 -13.4961 10.2734 -13.6621 C 11.7871 -14.043 13.3008 -13.9258 14.7852 -12.9199 L 14.1602 -11.3379 C 13.9258 -10.752 13.9453 -10.2734 14.1797 -9.83398 L 3.01758 0.439453 C 2.08008 1.30859 1.97266 2.25586 2.83203 3.11523 Z M 10.6738 -15.1465 C 13.3398 -17.1387 16.6504 -16.8262 19.0527 -14.4141 L 21.6797 -11.8066 C 21.9141 -11.5723 21.9434 -11.3867 21.8848 -11.0938 L 21.5039 -9.53125 L 23.0762 -7.95898 L 24.043 -8.04688 C 24.3262 -8.07617 24.4141 -8.05664 24.6387 -7.83203 L 25.2637 -7.20703 L 22.5098 -4.46289 L 21.8848 -5.07812 C 21.6602 -5.30273 21.6406 -5.40039 21.6699 -5.68359 L 21.7578 -6.64062 L 20.1953 -8.20312 L 18.5742 -7.89062 C 18.291 -7.83203 18.1445 -7.83203 17.9102 -8.07617 L 15.7324 -10.2539 C 15.5078 -10.4883 15.4785 -10.625 15.6055 -10.9473 L 16.5527 -13.2227 C 14.9512 -14.7559 12.8418 -15.6055 10.8008 -14.9512 C 10.7129 -14.9219 10.6445 -14.9414 10.6152 -14.9805 C 10.5859 -15.0293 10.5859 -15.0781 10.6738 -15.1465 Z M 4.10156 2.41211 C 3.61328 1.91406 3.78906 1.61133 4.12109 1.30859 L 15.0781 -8.80859 L 16.3086 -7.57812 L 6.15234 3.34961 C 5.84961 3.68164 5.46875 3.7793 5.06836 3.37891 Z"/>
  </g>
  <text style="stroke:none;fill:black;font-family:-apple-system,&quot;SF Pro Display&quot;,&quot;SF Pro Text&quot;,Helvetica,sans-serif;font-weight:bold;" transform="matrix(1 0 0 1 1289 1953)">Exporting</text>
  <text style="stroke:none;fill:black;font-family:-apple-system,&quot;SF Pro Display&quot;,&quot;SF Pro Text&quot;,Helvetica,sans-serif;" transform="matrix(1 0 0 1 1289 1971)">Symbols should be outlined when exporting to ensure the</text>
  <text style="stroke:none;fill:black;font-family:-apple-system,&quot;SF Pro Display&quot;,&quot;SF Pro Text&quot;,Helvetica,sans-serif;" transform="matrix(1 0 0 1 1289 1989)">design is preserved when submitting to Xcode.</text>
  <text id="template-version" style="stroke:none;fill:black;font-family:-apple-system,&quot;SF Pro Display&quot;,&quot;SF Pro Text&quot;,Helvetica,sans-serif;text-anchor:end;" transform="matrix(1 0 0 1 3036 1933)">Template v.1.0</text>
  <text style="stroke:none;fill:black;font-family:-apple-system,&quot;SF Pro Display&quot;,&quot;SF Pro Text&quot;,Helvetica,sans-serif;text-anchor:end;" transform="matrix(1 0 0 1 3036 1951)">Generated from square.and.arrow.down.fill</text>
  <text style="stroke:none;fill:black;font-family:-apple-system,&quot;SF Pro Display&quot;,&quot;SF Pro Text&quot;,Helvetica,sans-serif;text-anchor:end;" transform="matrix(1 0 0 1 3036 1969)">Typeset at 100 points</text>
  <text style="stroke:none;fill:black;font-family:-apple-system,&quot;SF Pro Display&quot;,&quot;SF Pro Text&quot;,Helvetica,sans-serif;" transform="matrix(1 0 0 1 263 726)">Small</text>
  <text style="stroke:none;fill:black;font-family:-apple-system,&quot;SF Pro Display&quot;,&quot;SF Pro Text&quot;,Helvetica,sans-serif;" transform="matrix(1 0 0 1 263 1156)">Medium</text>
  <text style="stroke:none;fill:black;font-family:-apple-system,&quot;SF Pro Display&quot;,&quot;SF Pro Text&quot;,Helvetica,sans-serif;" transform="matrix(1 0 0 1 263 1586)">Large</text>
 </g>
 <g id="Guides">
  <g id="H-reference" style="fill:#27AAE1;stroke:none;" transform="matrix(1 0 0 1 339 696)">
   <path d="M 54.9316 0 L 57.666 0 L 30.5664 -70.459 L 28.0762 -70.459 L 0.976562 0 L 3.66211 0 L 12.9395 -24.4629 L 45.7031 -24.4629 Z M 29.1992 -67.0898 L 29.4434 -67.0898 L 44.8242 -26.709 L 13.8184 -26.709 Z"/>
  </g>
  <line id="Baseline-S" style="fill:none;stroke:#27AAE1;opacity:1;stroke-width:0.577;" x1="263" x2="3036" y1="696" y2="696"/>
  <line id="Capline-S" style="fill:none;stroke:#27AAE1;opacity:1;stroke-width:0.577;" x1="263" x2="3036" y1="625.541" y2="625.541"/>
  <g id="H-reference" style="fill:#27AAE1;stroke:none;" transform="matrix(1 0 0 1 339 1126)">
   <path d="M 54.9316 0 L 57.666 0 L 30.5664 -70.459 L 28.0762 -70.459 L 0.976562 0 L 3.66211 0 L 12.9395 -24.4629 L 45.7031 -24.4629 Z M 29.1992 -67.0898 L 29.4434 -67.0898 L 44.8242 -26.709 L 13.8184 -26.709 Z"/>
  </g>
  <line id="Baseline-M" style="fill:none;stroke:#27AAE1;opacity:1;stroke-width:0.577;" x1="263" x2="3036" y1="1126" y2="1126"/>
  <line id="Capline-M" style="fill:none;stroke:#27AAE1;opacity:1;stroke-width:0.577;" x1="263" x2="3036" y1="1055.54" y2="1055.54"/>
  <g id="H-reference" style="fill:#27AAE1;stroke:none;" transform="matrix(1 0 0 1 339 1556)">
   <path d="M 54.9316 0 L 57.666 0 L 30.5664 -70.459 L 28.0762 -70.459 L 0.976562 0 L 3.66211 0 L 12.9395 -24.4629 L 45.7031 -24.4629 Z M 29.1992 -67.0898 L 29.4434 -67.0898 L 44.8242 -26.709 L 13.8184 -26.709 Z"/>
  </g>
  <line id="Baseline-L" style="fill:none;stroke:#27AAE1;opacity:1;stroke-width:0.577;" x1="263" x2="3036" y1="1556" y2="1556"/>
  <line id="Capline-L" style="fill:none;stroke:#27AAE1;opacity:1;stroke-width:0.577;" x1="263" x2="3036" y1="1485.54" y2="1485.54"/>
  <rect height="119.336" id="left-margin" style="fill:#00AEEF;stroke:none;opacity:0.4;" width="12.4512" x="1394.06" y="1030.79"/>
  <rect height="119.336" id="right-margin" style="fill:#00AEEF;stroke:none;opacity:0.4;" width="12.4512" x="1493.18" y="1030.79"/>
 </g>
 <g id="Symbols">
  <g id="Black-L" transform="matrix(1 0 0 1 2856.76 1556)">
   <path d="M 85.4492 -70.5566 L 85.4492 -97.2168 C 85.4492 -101.807 81.5918 -105.908 76.6602 -105.908 C 71.6797 -105.908 67.8223 -101.807 67.8223 -97.2168 L 67.8223 -70.5566 L 39.9902 -70.5566 C 24.7559 -70.5566 16.0645 -61.9629 16.0645 -46.7773 L 16.0645 9.32617 C 16.0645 24.5117 24.7559 33.1055 39.9902 33.1055 L 113.33 33.1055 C 128.564 33.1055 137.207 24.5117 137.207 9.32617 L 137.207 -46.7773 C 137.207 -61.9629 128.564 -70.5566 113.33 -70.5566 Z M 67.8223 -64.2578 C 67.8711 -68.7988 71.6797 -72.9492 76.6602 -72.9492 C 81.5918 -72.9492 85.4004 -68.7988 85.4492 -64.2578 L 85.4492 -36.9629 L 84.668 -27.7832 L 87.1582 -32.666 L 93.457 -39.4043 C 94.873 -40.9668 96.875 -41.8457 99.0723 -41.8457 C 102.93 -41.8457 106.592 -38.916 106.592 -34.668 C 106.592 -32.4707 105.811 -30.9082 104.297 -29.4434 L 83.7891 -9.81445 C 81.4453 -7.51953 79.0527 -6.68945 76.6602 -6.68945 C 74.2188 -6.68945 71.8262 -7.51953 69.4824 -9.81445 L 48.9746 -29.4434 C 47.5098 -30.9082 46.6797 -32.4707 46.6797 -34.668 C 46.6797 -38.916 50.3418 -41.8457 54.1504 -41.8457 C 56.3477 -41.8457 58.3984 -40.9668 59.8145 -39.4043 L 66.1133 -32.666 L 68.6035 -27.7832 L 67.8223 -36.9629 Z"/>
  </g>
  <g id="Heavy-L" transform="matrix(1 0 0 1 2561.32 1556)">
   <path d="M 67.627 -64.8438 C 67.7246 -68.8477 71.0449 -72.4121 75.3906 -72.4121 C 79.6875 -72.4121 83.0078 -68.8477 83.1055 -64.8438 L 83.1055 -97.8516 C 83.1055 -101.904 79.7363 -105.518 75.3906 -105.518 C 71.0449 -105.518 67.627 -101.904 67.627 -97.8516 Z M 83.2031 -70.4102 L 83.2031 -35.498 L 82.5195 -26.4648 L 85.498 -31.3477 L 92.7246 -39.0137 C 94.043 -40.4297 95.8496 -41.2598 97.8027 -41.2598 C 101.318 -41.2598 104.541 -38.5742 104.541 -34.7656 C 104.541 -32.8125 103.809 -31.3965 102.441 -30.0293 L 81.6406 -10.0586 C 79.5898 -8.00781 77.4902 -7.27539 75.3906 -7.27539 C 73.2422 -7.27539 71.1914 -8.00781 69.1406 -10.0586 L 48.291 -30.0293 C 46.9727 -31.3965 46.2402 -32.8125 46.2402 -34.7656 C 46.2402 -38.5742 49.4141 -41.2598 52.9297 -41.2598 C 54.8828 -41.2598 56.7383 -40.4297 58.0078 -39.0137 L 65.2344 -31.3477 L 68.2129 -26.4648 L 67.5781 -35.498 L 67.5781 -70.4102 L 38.8184 -70.4102 C 24.2188 -70.4102 16.0645 -62.3535 16.0645 -47.8027 L 16.0645 9.91211 C 16.0645 24.4629 24.2188 32.5195 38.8184 32.5195 L 111.914 32.5195 C 126.562 32.5195 134.668 24.4141 134.668 9.91211 L 134.668 -47.8027 C 134.668 -62.3047 126.562 -70.4102 111.914 -70.4102 Z"/>
  </g>
  <g id="Bold-L" transform="matrix(1 0 0 1 2266 1556)">
   <path d="M 67.4316 -65.5273 C 67.5293 -68.8477 70.3613 -71.8262 73.9746 -71.8262 C 77.5879 -71.8262 80.3711 -68.8477 80.5176 -65.5273 L 80.5176 -98.584 C 80.5176 -102.051 77.5879 -105.029 73.9746 -105.029 C 70.3125 -105.029 67.4316 -102.051 67.4316 -98.584 Z M 80.6641 -70.2148 L 80.6641 -33.8867 L 80.127 -25.0488 L 83.6914 -29.8828 L 91.9434 -38.623 C 93.0664 -39.8438 94.6777 -40.5273 96.3379 -40.5273 C 99.4629 -40.5273 102.197 -38.1836 102.197 -34.8633 C 102.197 -33.2031 101.562 -31.8848 100.391 -30.7617 L 79.1992 -10.3027 C 77.4902 -8.59375 75.7812 -8.00781 73.9746 -8.00781 C 72.168 -8.00781 70.459 -8.59375 68.75 -10.3027 L 47.5586 -30.7617 C 46.3867 -31.8848 45.7031 -33.2031 45.7031 -34.8633 C 45.7031 -38.1836 48.4375 -40.5273 51.5625 -40.5273 C 53.2227 -40.5273 54.8828 -39.8438 56.0059 -38.623 L 64.2578 -29.8828 L 67.8223 -25.0488 L 67.2852 -33.8867 L 67.2852 -70.2148 L 37.5 -70.2148 C 23.6328 -70.2148 16.0645 -62.7441 16.0645 -48.9258 L 16.0645 10.5469 C 16.0645 24.4141 23.6328 31.8848 37.5 31.8848 L 110.4 31.8848 C 124.365 31.8848 131.885 24.3652 131.885 10.5469 L 131.885 -48.9258 C 131.885 -62.7441 124.365 -70.2148 110.4 -70.2148 Z"/>
  </g>
  <g id="Semibold-L" transform="matrix(1 0 0 1 1970.27 1556)">
   <path d="M 67.2852 -65.9668 C 67.4316 -68.8477 69.873 -71.3867 72.998 -71.3867 C 76.123 -71.3867 78.5645 -68.8477 78.7109 -65.9668 L 78.7109 -99.1211 C 78.7109 -102.148 76.1719 -104.736 72.998 -104.736 C 69.8242 -104.736 67.2852 -102.148 67.2852 -99.1211 Z M 78.9551 -70.1172 L 78.9551 -32.7637 L 78.4668 -24.0234 L 82.4219 -28.8574 L 91.4062 -38.3301 C 92.4316 -39.4531 93.8965 -40.0391 95.3613 -40.0391 C 98.1934 -40.0391 100.635 -37.9395 100.635 -34.9609 C 100.635 -33.4473 100.049 -32.2754 98.9746 -31.25 L 77.5391 -10.498 C 76.0254 -8.98438 74.6094 -8.44727 72.998 -8.44727 C 71.4355 -8.44727 69.9707 -8.98438 68.457 -10.498 L 47.0215 -31.25 C 45.9473 -32.2754 45.3613 -33.4473 45.3613 -34.9609 C 45.3613 -37.9395 47.7539 -40.0391 50.5859 -40.0391 C 52.0508 -40.0391 53.6133 -39.4531 54.5898 -38.3301 L 63.623 -28.8574 L 67.5293 -24.0234 L 67.0898 -32.7637 L 67.0898 -70.1172 L 36.6211 -70.1172 C 23.1934 -70.1172 16.0645 -63.0371 16.0645 -49.707 L 16.0645 10.9863 C 16.0645 24.3652 23.1934 31.3965 36.6211 31.3965 L 109.326 31.3965 C 122.803 31.3965 129.932 24.3164 129.932 10.9863 L 129.932 -49.707 C 129.932 -62.9883 122.803 -70.1172 109.326 -70.1172 Z"/>
  </g>
  <g id="Medium-L" transform="matrix(1 0 0 1 1674.31 1556)">
   <path d="M 67.1387 -66.3086 C 67.334 -68.8965 69.5312 -71.0938 72.2656 -71.0938 C 75 -71.0938 77.1973 -68.8965 77.3438 -66.3086 L 77.3438 -99.5117 C 77.3438 -102.197 75.0488 -104.492 72.2656 -104.492 C 69.4336 -104.492 67.1387 -102.197 67.1387 -99.5117 Z M 77.6367 -70.0195 L 77.6367 -31.8848 L 77.1973 -23.291 L 81.4453 -28.0762 L 90.9668 -38.0859 C 91.8945 -39.1602 93.3105 -39.6973 94.5801 -39.6973 C 97.2656 -39.6973 99.4141 -37.6953 99.4141 -35.0098 C 99.4141 -33.6426 98.877 -32.5684 97.9004 -31.5918 L 76.2695 -10.6445 C 74.9512 -9.27734 73.6816 -8.83789 72.2656 -8.83789 C 70.8496 -8.83789 69.6289 -9.27734 68.2617 -10.6445 L 46.6309 -31.5918 C 45.6543 -32.5684 45.1172 -33.6426 45.1172 -35.0098 C 45.1172 -37.7441 47.2168 -39.6973 49.9023 -39.6973 C 51.1719 -39.6973 52.6367 -39.1602 53.5156 -38.0859 L 63.0859 -28.0762 L 67.334 -23.2422 L 66.9434 -31.8848 L 66.9434 -70.0195 L 35.9375 -70.0195 C 22.9004 -70.0195 16.0645 -63.2812 16.0645 -50.293 L 16.0645 11.3281 C 16.0645 24.3164 22.9004 31.0547 35.9375 31.0547 L 108.545 31.0547 C 121.68 31.0547 128.418 24.2676 128.418 11.3281 L 128.418 -50.293 C 128.418 -63.2324 121.68 -70.0195 108.545 -70.0195 Z"/>
  </g>
  <g id="Regular-L" transform="matrix(1 0 0 1 1378.56 1556)">
   <path d="M 66.9922 -66.7969 C 67.1875 -68.8965 69.043 -70.7031 71.2891 -70.7031 C 73.5352 -70.7031 75.3906 -68.8965 75.5859 -66.7969 L 75.5859 -100 C 75.5859 -102.295 73.584 -104.199 71.2891 -104.199 C 68.9941 -104.199 66.9922 -102.295 66.9922 -100 Z M 75.9277 -69.873 L 75.9277 -30.7617 L 75.5859 -22.3145 L 80.1758 -27.0508 L 90.4297 -37.8418 C 91.2598 -38.7695 92.4805 -39.209 93.6035 -39.209 C 95.9961 -39.209 97.8516 -37.4512 97.8516 -35.1074 C 97.8516 -33.8867 97.3633 -32.9102 96.4844 -32.0801 L 74.6582 -10.791 C 73.5352 -9.66797 72.5098 -9.27734 71.3379 -9.27734 C 70.1172 -9.27734 69.1406 -9.66797 68.0176 -10.791 L 46.1426 -32.0801 C 45.2637 -32.9102 44.7754 -33.8867 44.7754 -35.1074 C 44.7754 -37.5 46.582 -39.209 48.9746 -39.209 C 50.0488 -39.209 51.3672 -38.7695 52.1484 -37.8418 L 62.4512 -27.0508 L 67.041 -22.2656 L 66.748 -30.7617 L 66.748 -69.873 L 35.0586 -69.873 C 22.4609 -69.873 16.0645 -63.5742 16.0645 -51.0742 L 16.0645 11.7676 C 16.0645 24.2676 22.4609 30.6152 35.0586 30.6152 L 107.52 30.6152 C 120.166 30.6152 126.514 24.2188 126.514 11.7676 L 126.514 -51.0742 C 126.514 -63.4766 120.166 -69.873 107.52 -69.873 Z"/>
  </g>
  <g id="Light-L" transform="matrix(1 0 0 1 1082.77 1556)">
   <path d="M 67.0898 -68.6035 C 67.2363 -70.166 68.7012 -71.4844 70.3613 -71.4844 C 72.0703 -71.4844 73.4863 -70.166 73.6328 -68.6035 L 73.6328 -100.146 C 73.6328 -101.904 72.168 -103.369 70.3613 -103.369 C 68.6035 -103.369 67.0898 -101.904 67.0898 -100.146 Z M 74.1699 -70.459 L 74.1699 -28.2715 L 73.9746 -20.459 L 79.3945 -26.0254 L 90.6738 -37.5977 C 91.3574 -38.3789 92.4316 -38.8184 93.3105 -38.8184 C 95.2637 -38.8184 96.8262 -37.2559 96.8262 -35.3516 C 96.8262 -34.375 96.4355 -33.5449 95.7031 -32.8613 L 73.1445 -10.5957 C 72.2168 -9.7168 71.3867 -9.375 70.4102 -9.375 C 69.4336 -9.375 68.6035 -9.7168 67.7246 -10.5957 L 45.0684 -32.8613 C 44.3359 -33.5449 43.9453 -34.375 43.9453 -35.3516 C 43.9453 -37.3047 45.459 -38.8184 47.4121 -38.8184 C 48.3398 -38.8184 49.4141 -38.3789 50.0977 -37.5977 L 61.377 -26.0254 L 66.8945 -20.4102 L 66.6504 -28.2715 L 66.6504 -70.459 L 34.0332 -70.459 C 22.168 -70.459 16.0645 -64.4043 16.0645 -52.6367 L 16.0645 11.9141 C 16.0645 23.7305 22.168 29.7852 34.0332 29.7852 L 106.689 29.7852 C 118.555 29.7852 124.658 23.6328 124.658 11.9141 L 124.658 -52.6367 C 124.658 -64.3066 118.555 -70.459 106.689 -70.459 Z"/>
  </g>
  <g id="Thin-L" transform="matrix(1 0 0 1 787.282 1556)">
   <path d="M 67.1875 -70.9961 C 67.2852 -71.875 68.2129 -72.5586 69.1406 -72.5586 C 70.0684 -72.5586 70.9961 -71.875 71.0938 -70.9961 L 71.0938 -100.342 C 71.0938 -101.416 70.2148 -102.295 69.1406 -102.295 C 68.0664 -102.295 67.1875 -101.416 67.1875 -100.342 Z M 71.9238 -71.2402 L 71.9238 -24.9023 L 71.8262 -18.0664 L 78.418 -24.707 L 91.0156 -37.3535 C 91.4551 -37.8906 92.334 -38.2324 92.9688 -38.2324 C 94.3359 -38.2324 95.459 -37.0117 95.459 -35.6445 C 95.459 -35.0098 95.2148 -34.3262 94.6777 -33.8867 L 71.1426 -10.3516 C 70.5566 -9.76562 69.9219 -9.52148 69.2383 -9.52148 C 68.5059 -9.52148 67.8711 -9.76562 67.334 -10.3516 L 43.7012 -33.8867 C 43.1641 -34.3262 42.8711 -35.0098 42.8711 -35.6445 C 42.8711 -37.1094 44.043 -38.2324 45.4102 -38.2324 C 46.0449 -38.2324 46.875 -37.8906 47.3633 -37.3535 L 59.9609 -24.707 L 66.6504 -17.9688 L 66.5039 -24.9023 L 66.5039 -71.2402 L 32.666 -71.2402 C 21.7773 -71.2402 16.0645 -65.5273 16.0645 -54.6875 L 16.0645 12.1094 C 16.0645 22.998 21.7773 28.7109 32.666 28.7109 L 105.615 28.7109 C 116.504 28.7109 122.217 22.8516 122.217 12.1094 L 122.217 -54.6875 C 122.217 -65.3809 116.504 -71.2402 105.615 -71.2402 Z"/>
  </g>
  <g id="Ultralight-L" transform="matrix(1 0 0 1 491.205 1556)">
   <path d="M 67.2363 -72.2168 C 67.2852 -72.7539 67.9688 -73.0957 68.5059 -73.0957 C 69.043 -73.0957 69.7266 -72.7539 69.7754 -72.2168 L 69.7754 -100.439 C 69.7754 -101.172 69.2383 -101.758 68.5059 -101.758 C 67.8223 -101.758 67.2363 -101.172 67.2363 -100.439 Z M 70.752 -71.6309 L 70.752 -23.1934 L 70.7031 -16.7969 L 77.8809 -24.0234 L 91.1621 -37.207 C 91.5527 -37.6465 92.2852 -37.9395 92.7734 -37.9395 C 93.8477 -37.9395 94.7754 -36.9141 94.7754 -35.8398 C 94.7754 -35.3516 94.5801 -34.7656 94.1406 -34.375 L 70.1172 -10.2051 C 69.6777 -9.76562 69.1895 -9.57031 68.6035 -9.57031 C 68.0176 -9.57031 67.5293 -9.76562 67.1387 -10.2051 L 42.9688 -34.375 C 42.5293 -34.7656 42.334 -35.3516 42.334 -35.8398 C 42.334 -36.9629 43.3105 -37.9395 44.3359 -37.9395 C 44.873 -37.9395 45.6055 -37.6465 45.9473 -37.207 L 59.2285 -24.0234 L 66.5039 -16.748 L 66.4551 -23.1934 L 66.4551 -71.6309 L 31.9824 -71.6309 C 21.582 -71.6309 16.0645 -66.1133 16.0645 -55.7129 L 16.0645 12.207 C 16.0645 22.6074 21.582 28.1738 31.9824 28.1738 L 105.078 28.1738 C 115.43 28.1738 120.947 22.4609 120.947 12.207 L 120.947 -55.7129 C 120.947 -65.918 115.43 -71.6309 105.078 -71.6309 Z"/>
  </g>
  <g id="Black-M" transform="matrix(1 0 0 1 2872.8 1126)">
   <path d="M 68.3594 -63.1836 L 68.3594 -82.4219 C 68.3594 -86.4746 64.9902 -90.1367 60.5957 -90.1367 C 56.2012 -90.1367 52.8809 -86.4746 52.8809 -82.4219 L 52.8809 -63.1836 L 31.9824 -63.1836 C 19.7266 -63.1836 12.4512 -55.9082 12.4512 -43.6523 L 12.4512 -1.41602 C 12.4512 10.8398 19.7266 18.1152 31.9824 18.1152 L 89.209 18.1152 C 101.465 18.1152 108.74 10.8398 108.74 -1.41602 L 108.74 -43.6523 C 108.74 -55.9082 101.465 -63.1836 89.209 -63.1836 Z M 52.8809 -57.9102 C 52.8809 -61.9141 56.2012 -65.5762 60.5957 -65.5762 C 64.9902 -65.5762 68.3594 -61.9141 68.3594 -57.9102 L 68.3594 -37.1582 L 67.627 -30.2246 L 69.3848 -34.4727 L 73.4863 -38.8672 C 74.7559 -40.1855 76.4648 -40.9668 78.418 -40.9668 C 81.5918 -40.9668 84.8633 -38.4766 84.8633 -34.7656 C 84.8633 -32.8613 84.1797 -31.543 82.9102 -30.3223 L 67.041 -15.0879 C 64.9414 -13.0859 62.7441 -12.3047 60.5957 -12.3047 C 58.4473 -12.3047 56.25 -13.0859 54.1504 -15.0879 L 38.2812 -30.3223 C 37.0117 -31.543 36.3281 -32.8613 36.3281 -34.7656 C 36.3281 -38.4766 39.5996 -40.9668 42.8223 -40.9668 C 44.7754 -40.9668 46.4355 -40.1855 47.7051 -38.8672 L 51.8066 -34.4727 L 53.5645 -30.2246 L 52.8809 -37.1582 Z"/>
  </g>
  <g id="Heavy-M" transform="matrix(1 0 0 1 2577.22 1126)">
   <path d="M 52.6367 -58.0566 C 52.6855 -61.6211 55.6152 -64.7949 59.4727 -64.7949 C 63.3301 -64.7949 66.2598 -61.6211 66.3086 -58.0566 L 66.3086 -83.1055 C 66.3086 -86.6699 63.3301 -89.8926 59.4727 -89.8926 C 55.6152 -89.8926 52.6367 -86.6699 52.6367 -83.1055 Z M 66.3086 -62.8418 L 66.3086 -36.2305 L 65.7227 -29.2969 L 67.7734 -33.3008 L 72.6562 -38.4766 C 73.7793 -39.6973 75.3418 -40.4297 77.0508 -40.4297 C 79.9805 -40.4297 82.8613 -38.1348 82.8613 -34.8145 C 82.8613 -33.1055 82.2266 -31.9336 81.1035 -30.7617 L 65.0879 -15.4297 C 63.2324 -13.623 61.3281 -12.9883 59.4727 -12.9883 C 57.5684 -12.9883 55.7129 -13.623 53.8574 -15.4297 L 37.8418 -30.7617 C 36.6699 -31.9336 36.0352 -33.1055 36.0352 -34.8145 C 36.0352 -38.1348 38.916 -40.4297 41.8457 -40.4297 C 43.6035 -40.4297 45.166 -39.6973 46.2891 -38.4766 L 51.1719 -33.3008 L 53.2227 -29.2969 L 52.5879 -36.2305 L 52.5879 -62.8418 L 31.0059 -62.8418 C 19.2383 -62.8418 12.4512 -56.0547 12.4512 -44.3359 L 12.4512 -0.830078 C 12.4512 10.9375 19.2383 17.6758 31.0059 17.6758 L 87.9395 17.6758 C 99.707 17.6758 106.494 10.9375 106.494 -0.830078 L 106.494 -44.3359 C 106.494 -56.0547 99.707 -62.8418 87.9395 -62.8418 Z"/>
  </g>
  <g id="Bold-M" transform="matrix(1 0 0 1 2281.8 1126)">
   <path d="M 52.3926 -58.252 C 52.4414 -61.2305 54.9316 -63.916 58.2031 -63.916 C 61.4258 -63.916 63.916 -61.2305 64.0137 -58.252 L 64.0137 -83.8867 C 64.0137 -86.9141 61.4258 -89.6484 58.2031 -89.6484 C 54.9316 -89.6484 52.3926 -86.9141 52.3926 -83.8867 Z M 64.0625 -62.4512 L 64.0625 -35.2051 L 63.5742 -28.2227 L 65.9668 -31.9824 L 71.7285 -38.0859 C 72.7051 -39.1602 74.0723 -39.7949 75.5371 -39.7949 C 78.2227 -39.7949 80.6152 -37.7441 80.6152 -34.8633 C 80.6152 -33.3984 80.0781 -32.3242 79.0527 -31.2988 L 62.8906 -15.7715 C 61.3281 -14.2578 59.7656 -13.7207 58.2031 -13.7207 C 56.5918 -13.7207 55.0781 -14.2578 53.5156 -15.7715 L 37.3047 -31.2988 C 36.3281 -32.3242 35.7422 -33.3984 35.7422 -34.8633 C 35.7422 -37.793 38.1836 -39.7949 40.8203 -39.7949 C 42.2852 -39.7949 43.6523 -39.1602 44.6777 -38.0859 L 50.3906 -31.9824 L 52.832 -28.2227 L 52.2949 -35.2051 L 52.2949 -62.4512 L 29.8828 -62.4512 C 18.6523 -62.4512 12.4512 -56.2988 12.4512 -45.1172 L 12.4512 -0.146484 C 12.4512 11.0352 18.6523 17.1875 29.8828 17.1875 L 86.5234 17.1875 C 97.7539 17.1875 103.906 10.9863 103.906 -0.146484 L 103.906 -45.1172 C 103.906 -56.2988 97.7539 -62.4512 86.5234 -62.4512 Z"/>
  </g>
  <g id="Semibold-M" transform="matrix(1 0 0 1 1985.97 1126)">
   <path d="M 52.1973 -58.3984 C 52.2949 -60.9863 54.4922 -63.3301 57.3242 -63.3301 C 60.1074 -63.3301 62.3047 -60.9863 62.4023 -58.3984 L 62.4023 -84.4238 C 62.4023 -87.1094 60.1562 -89.4531 57.3242 -89.4531 C 54.4922 -89.4531 52.1973 -87.1094 52.1973 -84.4238 Z M 62.5 -62.207 L 62.5 -34.4727 L 62.1094 -27.4902 L 64.7461 -31.0547 L 71.0938 -37.8418 C 71.9727 -38.8184 73.2422 -39.3555 74.5117 -39.3555 C 76.9531 -39.3555 79.1016 -37.5 79.1016 -34.9121 C 79.1016 -33.5938 78.5645 -32.6172 77.6367 -31.6895 L 61.377 -16.0156 C 60.0098 -14.6484 58.6914 -14.209 57.3242 -14.209 C 55.9082 -14.209 54.6387 -14.6484 53.2715 -16.0156 L 36.9629 -31.6895 C 36.0352 -32.6172 35.5469 -33.5938 35.5469 -34.9121 C 35.5469 -37.5 37.6465 -39.3555 40.0879 -39.3555 C 41.3574 -39.3555 42.6758 -38.8184 43.5547 -37.8418 L 49.9023 -31.0547 L 52.5391 -27.4902 L 52.0996 -34.4727 L 52.0996 -62.207 L 29.1016 -62.207 C 18.2617 -62.207 12.4512 -56.4453 12.4512 -45.6543 L 12.4512 0.292969 C 12.4512 11.084 18.2617 16.8457 29.1016 16.8457 L 85.498 16.8457 C 96.3867 16.8457 102.148 11.084 102.148 0.292969 L 102.148 -45.6543 C 102.148 -56.4453 96.3867 -62.207 85.498 -62.207 Z"/>
  </g>
  <g id="Medium-M" transform="matrix(1 0 0 1 1689.91 1126)">
   <path d="M 52.0508 -58.4961 C 52.1973 -60.8398 54.1504 -62.8418 56.6406 -62.8418 C 59.1309 -62.8418 61.084 -60.8398 61.2305 -58.4961 L 61.2305 -84.8145 C 61.2305 -87.2559 59.1797 -89.3066 56.6406 -89.3066 C 54.1504 -89.3066 52.0508 -87.2559 52.0508 -84.8145 Z M 61.3281 -62.0117 L 61.3281 -33.9355 L 60.9863 -26.9531 L 63.7695 -30.3711 L 70.6055 -37.6465 C 71.3867 -38.5254 72.5586 -39.0137 73.7305 -39.0137 C 76.0254 -39.0137 77.9297 -37.3047 77.9297 -34.9609 C 77.9297 -33.7402 77.4414 -32.8125 76.6113 -31.9824 L 60.2051 -16.1621 C 58.9844 -14.9902 57.9102 -14.5996 56.6406 -14.5996 C 55.4199 -14.5996 54.2969 -14.9902 53.125 -16.1621 L 36.7188 -31.9824 C 35.8398 -32.8125 35.3516 -33.7402 35.3516 -34.9609 C 35.3516 -37.3047 37.207 -39.0137 39.5508 -39.0137 C 40.6738 -39.0137 41.8945 -38.5254 42.6758 -37.6465 L 49.5117 -30.3711 L 52.3438 -26.9531 L 51.9531 -33.9355 L 51.9531 -62.0117 L 28.5156 -62.0117 C 17.9688 -62.0117 12.4512 -56.543 12.4512 -46.0938 L 12.4512 0.683594 C 12.4512 11.1328 17.9688 16.6016 28.5156 16.6016 L 84.7656 16.6016 C 95.3613 16.6016 100.83 11.1328 100.83 0.683594 L 100.83 -46.0938 C 100.83 -56.543 95.3613 -62.0117 84.7656 -62.0117 Z"/>
  </g>
  <g id="Regular-M" transform="matrix(1 0 0 1 1394.06 1126)">
   <path d="M 51.9043 -58.6426 C 52.0508 -60.5957 53.7109 -62.2559 55.7617 -62.2559 C 57.8613 -62.2559 59.5215 -60.5957 59.668 -58.6426 L 59.668 -85.3516 C 59.668 -87.4023 57.8613 -89.1602 55.7617 -89.1602 C 53.6621 -89.1602 51.9043 -87.4023 51.9043 -85.3516 Z M 59.8145 -61.7676 L 59.8145 -33.2031 L 59.5215 -26.2695 L 62.5488 -29.4922 L 69.9707 -37.3535 C 70.6543 -38.1836 71.7285 -38.5742 72.7051 -38.5742 C 74.8047 -38.5742 76.416 -37.0605 76.416 -35.0098 C 76.416 -33.9355 75.9766 -33.1055 75.1953 -32.3242 L 58.6914 -16.4062 C 57.7148 -15.4297 56.8359 -15.0879 55.8105 -15.0879 C 54.7363 -15.0879 53.8574 -15.4297 52.8809 -16.4062 L 36.377 -32.3242 C 35.5957 -33.1055 35.1562 -33.9355 35.1562 -35.0098 C 35.1562 -37.0605 36.7188 -38.5742 38.8184 -38.5742 C 39.7949 -38.5742 40.918 -38.1836 41.6016 -37.3535 L 48.9746 -29.4922 L 52.0996 -26.2207 L 51.7578 -33.2031 L 51.7578 -61.7676 L 27.7832 -61.7676 C 17.5781 -61.7676 12.4512 -56.6895 12.4512 -46.6309 L 12.4512 1.12305 C 12.4512 11.1816 17.5781 16.2598 27.7832 16.2598 L 83.7891 16.2598 C 93.9941 16.2598 99.1211 11.1816 99.1211 1.12305 L 99.1211 -46.6309 C 99.1211 -56.6895 93.9941 -61.7676 83.7891 -61.7676 Z"/>
  </g>
  <g id="Light-M" transform="matrix(1 0 0 1 1098.18 1126)">
   <path d="M 51.9531 -60.2539 C 52.0996 -61.7188 53.3691 -62.9883 54.9316 -62.9883 C 56.4941 -62.9883 57.8125 -61.7188 57.9102 -60.2539 L 57.9102 -85.498 C 57.9102 -87.0605 56.5918 -88.4277 54.9316 -88.4277 C 53.3203 -88.4277 51.9531 -87.0605 51.9531 -85.498 Z M 58.252 -62.2559 L 58.252 -30.957 L 58.0566 -24.6094 L 61.8652 -28.5645 L 70.166 -37.1582 C 70.752 -37.8418 71.6797 -38.1836 72.4609 -38.1836 C 74.1699 -38.1836 75.4883 -36.9141 75.4883 -35.2051 C 75.4883 -34.375 75.1465 -33.6426 74.5117 -33.0566 L 57.373 -16.2109 C 56.543 -15.4297 55.8105 -15.1367 54.9805 -15.1367 C 54.1016 -15.1367 53.418 -15.4297 52.5879 -16.2109 L 35.4004 -33.0566 C 34.7656 -33.6426 34.4238 -34.375 34.4238 -35.2051 C 34.4238 -36.9141 35.7422 -38.1836 37.4512 -38.1836 C 38.2324 -38.1836 39.1602 -37.8418 39.7461 -37.1582 L 48.0469 -28.5645 L 51.9043 -24.6094 L 51.709 -30.957 L 51.709 -62.2559 L 26.8555 -62.2559 C 17.334 -62.2559 12.4512 -57.4707 12.4512 -47.998 L 12.4512 1.26953 C 12.4512 10.6934 17.334 15.5273 26.8555 15.5273 L 83.0566 15.5273 C 92.5781 15.5273 97.4609 10.6445 97.4609 1.26953 L 97.4609 -47.998 C 97.4609 -57.4219 92.5781 -62.2559 83.0566 -62.2559 Z"/>
  </g>
  <g id="Thin-M" transform="matrix(1 0 0 1 802.565 1126)">
   <path d="M 52.0508 -62.4023 C 52.1484 -63.2812 52.9785 -63.916 53.8574 -63.916 C 54.7363 -63.916 55.5664 -63.2812 55.6641 -62.4023 L 55.6641 -85.6445 C 55.6641 -86.6211 54.834 -87.4512 53.8574 -87.4512 C 52.8809 -87.4512 52.0508 -86.6211 52.0508 -85.6445 Z M 56.25 -62.9883 L 56.25 -27.9297 L 56.1035 -22.4609 L 60.9863 -27.3438 L 70.459 -36.9141 C 70.8496 -37.4023 71.582 -37.6953 72.1191 -37.6953 C 73.291 -37.6953 74.2676 -36.6699 74.2676 -35.498 C 74.2676 -34.9121 74.0234 -34.375 73.584 -33.9355 L 55.5664 -16.0156 C 55.0293 -15.4785 54.4922 -15.2832 53.9062 -15.2832 C 53.2715 -15.2832 52.7832 -15.4785 52.2461 -16.0156 L 34.1797 -33.9355 C 33.6914 -34.375 33.4961 -34.9121 33.4961 -35.498 C 33.4961 -36.7188 34.4238 -37.6953 35.5957 -37.6953 C 36.1816 -37.6953 36.9141 -37.4023 37.3047 -36.9141 L 46.7773 -27.3438 L 51.709 -22.4121 L 51.5625 -27.9297 L 51.5625 -62.9883 L 25.6348 -62.9883 C 16.9922 -62.9883 12.4512 -58.4473 12.4512 -49.8535 L 12.4512 1.41602 C 12.4512 10.0586 16.9922 14.5508 25.6348 14.5508 L 82.0801 14.5508 C 90.7227 14.5508 95.2637 9.96094 95.2637 1.41602 L 95.2637 -49.8535 C 95.2637 -58.3496 90.7227 -62.9883 82.0801 -62.9883 Z"/>
  </g>
  <g id="Ultralight-M" transform="matrix(1 0 0 1 506.415 1126)">
   <path d="M 52.0996 -63.5254 C 52.1484 -64.0625 52.7344 -64.4043 53.2715 -64.4043 C 53.8086 -64.4043 54.4434 -64.0625 54.4922 -63.5254 L 54.4922 -85.7422 C 54.4922 -86.4258 53.9551 -86.9629 53.2715 -86.9629 C 52.6367 -86.9629 52.0996 -86.4258 52.0996 -85.7422 Z M 55.1758 -63.3301 L 55.1758 -26.416 L 55.127 -21.3379 L 60.5469 -26.7578 L 70.6055 -36.8164 C 70.8984 -37.1582 71.5332 -37.4023 71.9727 -37.4023 C 72.8516 -37.4023 73.6816 -36.5723 73.6816 -35.6445 C 73.6816 -35.2051 73.4863 -34.7168 73.0957 -34.4238 L 54.6387 -15.8691 C 54.248 -15.5273 53.8574 -15.332 53.3691 -15.332 C 52.8809 -15.332 52.4414 -15.5273 52.0508 -15.8691 L 33.5449 -34.4238 C 33.1543 -34.7168 32.959 -35.2051 32.959 -35.6445 C 32.959 -36.6211 33.7891 -37.4023 34.668 -37.4023 C 35.1074 -37.4023 35.7422 -37.1582 36.0352 -36.8164 L 46.0938 -26.7578 L 51.5625 -21.2891 L 51.5137 -26.416 L 51.5137 -63.3301 L 25 -63.3301 C 16.7969 -63.3301 12.4512 -58.9844 12.4512 -50.7812 L 12.4512 1.51367 C 12.4512 9.7168 16.7969 14.0625 25 14.0625 L 81.5918 14.0625 C 89.7949 14.0625 94.1406 9.57031 94.1406 1.51367 L 94.1406 -50.7812 C 94.1406 -58.8379 89.7949 -63.3301 81.5918 -63.3301 Z"/>
  </g>
  <g id="Black-S" transform="matrix(1 0 0 1 2885.99 696)">
   <path d="M 53.418 -57.0801 L 53.418 -72.2656 C 53.418 -75.3906 50.8301 -78.2227 47.4121 -78.2227 C 43.9941 -78.2227 41.4062 -75.3906 41.4062 -72.2656 L 41.4062 -57.0801 L 25 -57.0801 C 15.4297 -57.0801 9.76562 -51.416 9.76562 -41.8457 L 9.76562 -8.69141 C 9.76562 0.878906 15.4297 6.54297 25 6.54297 L 69.8242 6.54297 C 79.3945 6.54297 85.0586 0.878906 85.0586 -8.69141 L 85.0586 -41.8457 C 85.0586 -51.416 79.3945 -57.0801 69.8242 -57.0801 Z M 41.4062 -52.9785 C 41.4062 -56.1035 43.9941 -58.9355 47.4121 -58.9355 C 50.8301 -58.9355 53.418 -56.1035 53.418 -52.9785 L 53.418 -36.7188 L 52.8809 -31.25 L 54.248 -34.5703 L 57.5195 -38.0371 C 58.4961 -39.0625 59.8145 -39.6973 61.3281 -39.6973 C 63.8184 -39.6973 66.3574 -37.7441 66.3574 -34.8633 C 66.3574 -33.3984 65.8203 -32.373 64.8438 -31.3965 L 52.3926 -19.4824 C 50.7812 -17.9199 49.0723 -17.334 47.4121 -17.334 C 45.752 -17.334 44.043 -17.9199 42.4316 -19.4824 L 29.9805 -31.3965 C 29.0039 -32.373 28.4668 -33.3984 28.4668 -34.8633 C 28.4668 -37.7441 31.0059 -39.6973 33.4961 -39.6973 C 35.0098 -39.6973 36.3281 -39.0625 37.3047 -38.0371 L 40.5762 -34.5703 L 41.9434 -31.25 L 41.4062 -36.7188 Z"/>
  </g>
  <g id="Heavy-S" transform="matrix(1 0 0 1 2590.06 696)">
   <path d="M 41.2109 -52.9297 C 41.2598 -55.7129 43.6035 -58.252 46.6309 -58.252 C 49.707 -58.252 52.002 -55.7129 52.0508 -52.9297 L 52.0508 -72.7539 C 52.0508 -75.5859 49.707 -78.125 46.6309 -78.125 C 43.5547 -78.125 41.2109 -75.5859 41.2109 -72.7539 Z M 52.0508 -56.7871 L 52.0508 -36.2793 L 51.5625 -30.7129 L 53.0762 -33.7891 L 56.8359 -37.793 C 57.7637 -38.7207 58.9844 -39.3066 60.3516 -39.3066 C 62.6465 -39.3066 64.9414 -37.5 64.9414 -34.8633 C 64.9414 -33.5449 64.4531 -32.5684 63.5254 -31.6895 L 51.0254 -19.7266 C 49.6094 -18.3594 48.0957 -17.8223 46.6309 -17.8223 C 45.166 -17.8223 43.6523 -18.3594 42.2363 -19.7266 L 29.7363 -31.6895 C 28.8574 -32.5684 28.3203 -33.5449 28.3203 -34.8633 C 28.3203 -37.5 30.5664 -39.3066 32.9102 -39.3066 C 34.2773 -39.3066 35.498 -38.7207 36.4258 -37.793 L 40.1855 -33.7891 L 41.6992 -30.7129 L 41.2109 -36.2793 L 41.2109 -56.7871 L 24.3652 -56.7871 C 15.0879 -56.7871 9.76562 -51.4648 9.76562 -42.2363 L 9.76562 -8.25195 C 9.76562 0.976562 15.0879 6.29883 24.3652 6.29883 L 68.9453 6.29883 C 78.2227 6.29883 83.4961 0.976562 83.4961 -8.25195 L 83.4961 -42.2363 C 83.4961 -51.4648 78.2227 -56.7871 68.9453 -56.7871 Z"/>
  </g>
  <g id="Bold-S" transform="matrix(1 0 0 1 2294.23 696)">
   <path d="M 41.0156 -52.8809 C 41.1133 -55.3223 43.1152 -57.5195 45.752 -57.5195 C 48.3887 -57.5195 50.4395 -55.3223 50.4883 -52.8809 L 50.4883 -73.3398 C 50.4883 -75.8301 48.3887 -78.0273 45.752 -78.0273 C 43.1152 -78.0273 41.0156 -75.8301 41.0156 -73.3398 Z M 50.5371 -56.3965 L 50.5371 -35.7422 L 50.0977 -30.127 L 51.8066 -32.8613 L 56.1035 -37.5 C 56.9336 -38.3789 58.0078 -38.8672 59.2285 -38.8672 C 61.377 -38.8672 63.3301 -37.2559 63.3301 -34.9121 C 63.3301 -33.6914 62.8906 -32.8125 62.0605 -32.0312 L 49.5117 -20.0195 C 48.291 -18.7988 47.0215 -18.3594 45.752 -18.3594 C 44.4824 -18.3594 43.2617 -18.7988 41.9922 -20.0195 L 29.4922 -32.0312 C 28.6621 -32.8125 28.1738 -33.6914 28.1738 -34.9121 C 28.1738 -37.2559 30.127 -38.8672 32.2754 -38.8672 C 33.4961 -38.8672 34.6191 -38.3789 35.4004 -37.5 L 39.6973 -32.8613 L 41.4062 -30.127 L 41.0156 -35.7422 L 41.0156 -56.3965 L 23.6328 -56.3965 C 14.6973 -56.3965 9.76562 -51.5625 9.76562 -42.6758 L 9.76562 -7.76367 C 9.76562 1.12305 14.6973 6.00586 23.6328 6.00586 L 67.9199 6.00586 C 76.8555 6.00586 81.7383 1.12305 81.7383 -7.76367 L 81.7383 -42.6758 C 81.7383 -51.5625 76.8555 -56.3965 67.9199 -56.3965 Z"/>
  </g>
  <g id="Semibold-S" transform="matrix(1 0 0 1 1998.1 696)">
   <path d="M 40.8691 -52.832 C 40.9668 -55.0293 42.7734 -56.9824 45.166 -56.9824 C 47.5098 -56.9824 49.3652 -55.0293 49.4629 -52.832 L 49.4629 -73.7305 C 49.4629 -75.9766 47.5098 -77.9297 45.166 -77.9297 C 42.7734 -77.9297 40.8691 -75.9766 40.8691 -73.7305 Z M 49.4629 -56.1523 L 49.4629 -35.4004 L 49.1211 -29.6875 L 50.9277 -32.2266 L 55.6152 -37.3047 C 56.3477 -38.1348 57.373 -38.5742 58.4473 -38.5742 C 60.498 -38.5742 62.2559 -37.0605 62.2559 -34.9121 C 62.2559 -33.7891 61.8164 -33.0078 61.0352 -32.2266 L 48.4863 -20.2148 C 47.3633 -19.1406 46.2891 -18.75 45.166 -18.75 C 44.043 -18.75 42.9688 -19.1406 41.8457 -20.2148 L 29.2969 -32.2266 C 28.5156 -33.0078 28.0762 -33.7891 28.0762 -34.9121 C 28.0762 -37.0605 29.7852 -38.5742 31.8359 -38.5742 C 32.9102 -38.5742 33.9844 -38.1348 34.7168 -37.3047 L 39.4043 -32.2266 L 41.2109 -29.6875 L 40.8691 -35.4004 L 40.8691 -56.1523 L 23.0957 -56.1523 C 14.4043 -56.1523 9.76562 -51.6113 9.76562 -42.9688 L 9.76562 -7.42188 C 9.76562 1.2207 14.4043 5.81055 23.0957 5.81055 L 67.2363 5.81055 C 75.9277 5.81055 80.5664 1.2207 80.5664 -7.42188 L 80.5664 -42.9688 C 80.5664 -51.6113 75.9277 -56.1523 67.2363 -56.1523 Z"/>
  </g>
  <g id="Medium-S" transform="matrix(1 0 0 1 1701.85 696)">
   <path d="M 40.7715 -52.832 C 40.8691 -54.834 42.5293 -56.5918 44.7266 -56.5918 C 46.875 -56.5918 48.5352 -54.834 48.6328 -52.832 L 48.6328 -74.0234 C 48.6328 -76.123 46.875 -77.8809 44.7266 -77.8809 C 42.5293 -77.8809 40.7715 -76.123 40.7715 -74.0234 Z M 48.6816 -56.0059 L 48.6816 -35.1074 L 48.3398 -29.3945 L 50.2441 -31.7871 L 55.2246 -37.1582 C 55.9082 -37.9395 56.8848 -38.3301 57.8613 -38.3301 C 59.8145 -38.3301 61.377 -36.9141 61.377 -34.9121 C 61.377 -33.8867 60.9863 -33.1055 60.2539 -32.4219 L 47.7051 -20.3613 C 46.6797 -19.3848 45.752 -19.043 44.7266 -19.043 C 43.6523 -19.043 42.7246 -19.3848 41.6992 -20.3613 L 29.1504 -32.4219 C 28.418 -33.1055 28.0273 -33.8867 28.0273 -34.9121 C 28.0273 -36.9141 29.541 -38.3301 31.543 -38.3301 C 32.4707 -38.3301 33.4961 -37.9395 34.1797 -37.1582 L 39.1602 -31.7871 L 41.0645 -29.3945 L 40.7715 -35.1074 L 40.7715 -56.0059 L 22.7051 -56.0059 C 14.209 -56.0059 9.76562 -51.6113 9.76562 -43.1641 L 9.76562 -7.12891 C 9.76562 1.31836 14.209 5.66406 22.7051 5.66406 L 66.6992 5.66406 C 75.2441 5.66406 79.6387 1.26953 79.6387 -7.12891 L 79.6387 -43.1641 C 79.6387 -51.6113 75.2441 -56.0059 66.6992 -56.0059 Z"/>
  </g>
  <g id="Regular-S" transform="matrix(1 0 0 1 1405.73 696)">
   <path d="M 40.625 -52.7832 C 40.7715 -54.541 42.2363 -56.0547 44.0918 -56.0547 C 45.9961 -56.0547 47.4609 -54.541 47.6074 -52.7832 L 47.6074 -74.4141 C 47.6074 -76.2695 45.9961 -77.832 44.0918 -77.832 C 42.2363 -77.832 40.625 -76.2695 40.625 -74.4141 Z M 47.6074 -55.7617 L 47.6074 -34.7656 L 47.3145 -29.0039 L 49.3652 -31.1523 L 54.7363 -36.9629 C 55.3223 -37.6953 56.25 -38.0371 57.0801 -38.0371 C 58.9355 -38.0371 60.3027 -36.7188 60.3027 -34.9609 C 60.3027 -33.9844 59.9121 -33.3008 59.2773 -32.6172 L 46.6797 -20.5566 C 45.752 -19.6777 45.0195 -19.3848 44.0918 -19.3848 C 43.2129 -19.3848 42.4316 -19.6777 41.5527 -20.5566 L 28.9551 -32.6172 C 28.2715 -33.3008 27.9297 -33.9844 27.9297 -34.9609 C 27.9297 -36.7676 29.248 -38.0371 31.1035 -38.0371 C 31.9336 -38.0371 32.9102 -37.6953 33.4961 -36.9629 L 38.8672 -31.1523 L 40.8691 -29.0039 L 40.625 -34.7656 L 40.625 -55.7617 L 22.2168 -55.7617 C 13.916 -55.7617 9.76562 -51.6602 9.76562 -43.457 L 9.76562 -6.83594 C 9.76562 1.36719 13.916 5.46875 22.2168 5.46875 L 66.0156 5.46875 C 74.3652 5.46875 78.4668 1.36719 78.4668 -6.83594 L 78.4668 -43.457 C 78.4668 -51.6602 74.3652 -55.7617 66.0156 -55.7617 Z"/>
  </g>
  <g id="Light-S" transform="matrix(1 0 0 1 1109.75 696)">
   <path d="M 40.6738 -54.248 C 40.8203 -55.5664 41.9434 -56.6895 43.3594 -56.6895 C 44.7754 -56.6895 45.9473 -55.5664 46.0449 -54.248 L 46.0449 -74.5605 C 46.0449 -75.9766 44.8242 -77.1484 43.3594 -77.1484 C 41.9434 -77.1484 40.6738 -75.9766 40.6738 -74.5605 Z M 46.2402 -56.2012 L 46.2402 -32.7637 L 46.0449 -27.5391 L 48.7793 -30.3711 L 54.9316 -36.8164 C 55.4199 -37.4023 56.2012 -37.6953 56.8848 -37.6953 C 58.3496 -37.6953 59.5215 -36.5723 59.5215 -35.1562 C 59.5215 -34.375 59.1797 -33.7891 58.6426 -33.252 L 45.459 -20.4102 C 44.7754 -19.7266 44.1406 -19.4824 43.4082 -19.4824 C 42.6758 -19.4824 42.041 -19.7266 41.3086 -20.4102 L 28.125 -33.252 C 27.5879 -33.7891 27.2461 -34.375 27.2461 -35.1562 C 27.2461 -36.6211 28.3691 -37.6953 29.8828 -37.6953 C 30.5664 -37.6953 31.3477 -37.4023 31.8359 -36.8164 L 38.0371 -30.3711 L 40.7227 -27.5391 L 40.5273 -32.7637 L 40.5273 -56.2012 L 21.3867 -56.2012 C 13.6719 -56.2012 9.76562 -52.3438 9.76562 -44.7266 L 9.76562 -6.68945 C 9.76562 0.927734 13.6719 4.78516 21.3867 4.78516 L 65.332 4.78516 C 73.0957 4.78516 77.002 0.927734 77.002 -6.68945 L 77.002 -44.7266 C 77.002 -52.3438 73.0957 -56.2012 65.332 -56.2012 Z"/>
  </g>
  <g id="Thin-S" transform="matrix(1 0 0 1 814.015 696)">
   <path d="M 40.7715 -56.1035 C 40.8203 -56.8848 41.6016 -57.5195 42.4316 -57.5195 C 43.2129 -57.5195 43.9941 -56.8848 44.043 -56.1035 L 44.043 -74.707 C 44.043 -75.5859 43.3105 -76.3184 42.4316 -76.3184 C 41.5039 -76.3184 40.7715 -75.5859 40.7715 -74.707 Z M 44.4336 -56.8359 L 44.4336 -30.0781 L 44.3359 -25.6348 L 47.9492 -29.2969 L 55.1758 -36.6211 C 55.5176 -37.0117 56.1035 -37.2559 56.5918 -37.2559 C 57.6172 -37.2559 58.4473 -36.4258 58.4473 -35.4004 C 58.4473 -34.8633 58.252 -34.4238 57.8613 -34.0332 L 43.8965 -20.2148 C 43.4082 -19.7266 42.9688 -19.5801 42.4316 -19.5801 C 41.9434 -19.5801 41.4551 -19.7266 41.0156 -20.2148 L 27.002 -34.0332 C 26.6113 -34.4238 26.416 -34.8633 26.416 -35.4004 C 26.416 -36.4258 27.2461 -37.2559 28.2715 -37.2559 C 28.7598 -37.2559 29.3457 -37.0117 29.6875 -36.6211 L 36.9141 -29.2969 L 40.5762 -25.5859 L 40.4297 -30.0781 L 40.4297 -56.8359 L 20.3125 -56.8359 C 13.3789 -56.8359 9.76562 -53.2227 9.76562 -46.3379 L 9.76562 -6.54297 C 9.76562 0.390625 13.3789 3.95508 20.3125 3.95508 L 64.502 3.95508 C 71.4355 3.95508 75.0488 0.292969 75.0488 -6.54297 L 75.0488 -46.3379 C 75.0488 -53.1738 71.4355 -56.8359 64.502 -56.8359 Z"/>
  </g>
  <g id="Ultralight-S" transform="matrix(1 0 0 1 517.792 696)">
   <path d="M 40.8203 -57.0801 C 40.8691 -57.6172 41.4062 -57.959 41.8945 -57.959 C 42.4316 -57.959 42.9688 -57.6172 43.0176 -57.0801 L 43.0176 -74.8047 C 43.0176 -75.3906 42.5293 -75.8789 41.8945 -75.8789 C 41.3086 -75.8789 40.8203 -75.3906 40.8203 -74.8047 Z M 43.5059 -57.1777 L 43.5059 -28.7109 L 43.457 -24.6582 L 47.5586 -28.7598 L 55.2734 -36.5234 C 55.5664 -36.8164 56.0547 -37.0117 56.4453 -37.0117 C 57.2266 -37.0117 57.9102 -36.2793 57.9102 -35.498 C 57.9102 -35.1562 57.7148 -34.7168 57.4219 -34.4727 L 43.0664 -20.1172 C 42.7246 -19.7754 42.3828 -19.6289 41.9434 -19.6289 C 41.5527 -19.6289 41.1621 -19.7754 40.8691 -20.1172 L 26.4648 -34.4727 C 26.123 -34.7168 25.9766 -35.1562 25.9766 -35.498 C 25.9766 -36.3281 26.6602 -37.0117 27.4414 -37.0117 C 27.7832 -37.0117 28.3203 -36.8164 28.5645 -36.5234 L 36.3281 -28.7598 L 40.4297 -24.6094 L 40.3809 -28.7109 L 40.3809 -57.1777 L 19.7754 -57.1777 C 13.2324 -57.1777 9.76562 -53.7109 9.76562 -47.168 L 9.76562 -6.44531 C 9.76562 0.0488281 13.2324 3.51562 19.7754 3.51562 L 64.0625 3.51562 C 70.6055 3.51562 74.0723 -0.0488281 74.0723 -6.44531 L 74.0723 -47.168 C 74.0723 -53.6133 70.6055 -57.1777 64.0625 -57.1777 Z"/>
  </g>
 </g>
</svg>
