<?xml version="1.0" encoding="UTF-8"?>
<!--Generator: Apple Native CoreSVG 123-->
<!DOCTYPE svg
PUBLIC "-//W3C//DTD SVG 1.1//EN"
       "http://www.w3.org/Graphics/SVG/1.1/DTD/svg11.dtd">
<svg version="1.1" xmlns="http://www.w3.org/2000/svg" xmlns:xlink="http://www.w3.org/1999/xlink" width="3300" height="2200">
 <!--glyph: "uni10065F.medium", point size: 100.000000, font version: "Version 15.0d7e11", template writer version: "5"-->
 <g id="Notes">
  <rect height="2200" id="artboard" style="fill:white;opacity:1" width="3300" x="0" y="0"/>
  <line id="" style="fill:none;stroke:black;opacity:1;stroke-width:0.5;" x1="263" x2="3036" y1="292" y2="292"/>
  <text style="stroke:none;fill:black;font-family:-apple-system,&quot;SF Pro Display&quot;,&quot;SF Pro Text&quot;,Helvetica,sans-serif;font-weight:bold;" transform="matrix(1 0 0 1 263 322)">Weight/Scale Variations</text>
  <text style="stroke:none;fill:black;font-family:-apple-system,&quot;SF Pro Display&quot;,&quot;SF Pro Text&quot;,Helvetica,sans-serif;text-anchor:middle;" transform="matrix(1 0 0 1 559.711 322)">Ultralight</text>
  <text style="stroke:none;fill:black;font-family:-apple-system,&quot;SF Pro Display&quot;,&quot;SF Pro Text&quot;,Helvetica,sans-serif;text-anchor:middle;" transform="matrix(1 0 0 1 856.422 322)">Thin</text>
  <text style="stroke:none;fill:black;font-family:-apple-system,&quot;SF Pro Display&quot;,&quot;SF Pro Text&quot;,Helvetica,sans-serif;text-anchor:middle;" transform="matrix(1 0 0 1 1153.13 322)">Light</text>
  <text style="stroke:none;fill:black;font-family:-apple-system,&quot;SF Pro Display&quot;,&quot;SF Pro Text&quot;,Helvetica,sans-serif;text-anchor:middle;" transform="matrix(1 0 0 1 1449.84 322)">Regular</text>
  <text style="stroke:none;fill:black;font-family:-apple-system,&quot;SF Pro Display&quot;,&quot;SF Pro Text&quot;,Helvetica,sans-serif;text-anchor:middle;" transform="matrix(1 0 0 1 1746.56 322)">Medium</text>
  <text style="stroke:none;fill:black;font-family:-apple-system,&quot;SF Pro Display&quot;,&quot;SF Pro Text&quot;,Helvetica,sans-serif;text-anchor:middle;" transform="matrix(1 0 0 1 2043.27 322)">Semibold</text>
  <text style="stroke:none;fill:black;font-family:-apple-system,&quot;SF Pro Display&quot;,&quot;SF Pro Text&quot;,Helvetica,sans-serif;text-anchor:middle;" transform="matrix(1 0 0 1 2339.98 322)">Bold</text>
  <text style="stroke:none;fill:black;font-family:-apple-system,&quot;SF Pro Display&quot;,&quot;SF Pro Text&quot;,Helvetica,sans-serif;text-anchor:middle;" transform="matrix(1 0 0 1 2636.69 322)">Heavy</text>
  <text style="stroke:none;fill:black;font-family:-apple-system,&quot;SF Pro Display&quot;,&quot;SF Pro Text&quot;,Helvetica,sans-serif;text-anchor:middle;" transform="matrix(1 0 0 1 2933.4 322)">Black</text>
  <line id="" style="fill:none;stroke:black;opacity:1;stroke-width:0.5;" x1="263" x2="3036" y1="1903" y2="1903"/>
  <g id="" transform="matrix(1 0 0 1 263 1933)">
   <path d="M 9.24805 0.830078 C 13.5547 0.830078 17.1387 -2.74414 17.1387 -7.05078 C 17.1387 -11.3574 13.5449 -14.9316 9.23828 -14.9316 C 4.94141 -14.9316 1.36719 -11.3574 1.36719 -7.05078 C 1.36719 -2.74414 4.95117 0.830078 9.24805 0.830078 Z M 9.24805 -0.654297 C 5.70312 -0.654297 2.87109 -3.49609 2.87109 -7.05078 C 2.87109 -10.6055 5.69336 -13.4473 9.23828 -13.4473 C 12.793 -13.4473 15.6348 -10.6055 15.6445 -7.05078 C 15.6543 -3.49609 12.8027 -0.654297 9.24805 -0.654297 Z M 9.22852 -3.42773 C 9.69727 -3.42773 9.9707 -3.74023 9.9707 -4.25781 L 9.9707 -6.31836 L 12.1973 -6.31836 C 12.6953 -6.31836 13.0371 -6.57227 13.0371 -7.04102 C 13.0371 -7.51953 12.7148 -7.7832 12.1973 -7.7832 L 9.9707 -7.7832 L 9.9707 -10.0098 C 9.9707 -10.5273 9.69727 -10.8496 9.22852 -10.8496 C 8.75977 -10.8496 8.50586 -10.5078 8.50586 -10.0098 L 8.50586 -7.7832 L 6.29883 -7.7832 C 5.78125 -7.7832 5.44922 -7.51953 5.44922 -7.04102 C 5.44922 -6.57227 5.80078 -6.31836 6.29883 -6.31836 L 8.50586 -6.31836 L 8.50586 -4.25781 C 8.50586 -3.75977 8.75977 -3.42773 9.22852 -3.42773 Z"/>
  </g>
  <g id="" transform="matrix(1 0 0 1 281.506 1933)">
   <path d="M 11.709 2.91016 C 17.1582 2.91016 21.6699 -1.60156 21.6699 -7.05078 C 21.6699 -12.4902 17.1484 -17.0117 11.6992 -17.0117 C 6.25977 -17.0117 1.74805 -12.4902 1.74805 -7.05078 C 1.74805 -1.60156 6.26953 2.91016 11.709 2.91016 Z M 11.709 1.25 C 7.09961 1.25 3.41797 -2.44141 3.41797 -7.05078 C 3.41797 -11.6504 7.08984 -15.3516 11.6992 -15.3516 C 16.3086 -15.3516 20 -11.6504 20.0098 -7.05078 C 20.0195 -2.44141 16.3184 1.25 11.709 1.25 Z M 11.6895 -2.41211 C 12.207 -2.41211 12.5195 -2.77344 12.5195 -3.33984 L 12.5195 -6.23047 L 15.5762 -6.23047 C 16.123 -6.23047 16.5039 -6.51367 16.5039 -7.03125 C 16.5039 -7.55859 16.1426 -7.86133 15.5762 -7.86133 L 12.5195 -7.86133 L 12.5195 -10.9277 C 12.5195 -11.5039 12.207 -11.8555 11.6895 -11.8555 C 11.1719 -11.8555 10.8789 -11.4844 10.8789 -10.9277 L 10.8789 -7.86133 L 7.83203 -7.86133 C 7.26562 -7.86133 6.89453 -7.55859 6.89453 -7.03125 C 6.89453 -6.51367 7.28516 -6.23047 7.83203 -6.23047 L 10.8789 -6.23047 L 10.8789 -3.33984 C 10.8789 -2.79297 11.1719 -2.41211 11.6895 -2.41211 Z"/>
  </g>
  <g id="" transform="matrix(1 0 0 1 304.924 1933)">
   <path d="M 14.9707 5.67383 C 21.9336 5.67383 27.6953 -0.078125 27.6953 -7.04102 C 27.6953 -14.0039 21.9238 -19.7559 14.9609 -19.7559 C 8.00781 -19.7559 2.25586 -14.0039 2.25586 -7.04102 C 2.25586 -0.078125 8.01758 5.67383 14.9707 5.67383 Z M 14.9707 3.85742 C 8.93555 3.85742 4.08203 -1.00586 4.08203 -7.04102 C 4.08203 -13.0762 8.92578 -17.9395 14.9609 -17.9395 C 21.0059 -17.9395 25.8594 -13.0762 25.8691 -7.04102 C 25.8789 -1.00586 21.0156 3.85742 14.9707 3.85742 Z M 14.9512 -1.06445 C 15.5176 -1.06445 15.8691 -1.45508 15.8691 -2.06055 L 15.8691 -6.13281 L 20.1074 -6.13281 C 20.6934 -6.13281 21.1133 -6.46484 21.1133 -7.02148 C 21.1133 -7.59766 20.7227 -7.93945 20.1074 -7.93945 L 15.8691 -7.93945 L 15.8691 -12.1875 C 15.8691 -12.8027 15.5176 -13.1934 14.9512 -13.1934 C 14.3848 -13.1934 14.0625 -12.7832 14.0625 -12.1875 L 14.0625 -7.93945 L 9.83398 -7.93945 C 9.21875 -7.93945 8.80859 -7.59766 8.80859 -7.02148 C 8.80859 -6.46484 9.23828 -6.13281 9.83398 -6.13281 L 14.0625 -6.13281 L 14.0625 -2.06055 C 14.0625 -1.47461 14.3848 -1.06445 14.9512 -1.06445 Z"/>
  </g>
  <text style="stroke:none;fill:black;font-family:-apple-system,&quot;SF Pro Display&quot;,&quot;SF Pro Text&quot;,Helvetica,sans-serif;font-weight:bold;" transform="matrix(1 0 0 1 263 1953)">Design Variations</text>
  <text style="stroke:none;fill:black;font-family:-apple-system,&quot;SF Pro Display&quot;,&quot;SF Pro Text&quot;,Helvetica,sans-serif;" transform="matrix(1 0 0 1 263 1971)">Symbols are supported in up to nine weights and three scales.</text>
  <text style="stroke:none;fill:black;font-family:-apple-system,&quot;SF Pro Display&quot;,&quot;SF Pro Text&quot;,Helvetica,sans-serif;" transform="matrix(1 0 0 1 263 1989)">For optimal layout with text and other symbols, vertically align</text>
  <text style="stroke:none;fill:black;font-family:-apple-system,&quot;SF Pro Display&quot;,&quot;SF Pro Text&quot;,Helvetica,sans-serif;" transform="matrix(1 0 0 1 263 2007)">symbols with the adjacent text.</text>
  <rect height="14" id="" style="fill:#00AEEF;stroke:none;opacity:0.4;" width="3" x="776" y="1919"/>
  <g id="" transform="matrix(1 0 0 1 779 1933)">
   <path d="M 10.5273 0 L 12.373 0 L 7.17773 -14.0918 L 5.43945 -14.0918 L 0.244141 0 L 2.08984 0 L 3.50586 -4.0332 L 9.11133 -4.0332 Z M 6.2793 -11.9531 L 6.33789 -11.9531 L 8.59375 -5.52734 L 4.02344 -5.52734 Z"/>
  </g>
  <rect height="14" id="" style="fill:#00AEEF;stroke:none;opacity:0.4;" width="3" x="791.617" y="1919"/>
  <text style="stroke:none;fill:black;font-family:-apple-system,&quot;SF Pro Display&quot;,&quot;SF Pro Text&quot;,Helvetica,sans-serif;font-weight:bold;" transform="matrix(1 0 0 1 776 1953)">Margins</text>
  <text style="stroke:none;fill:black;font-family:-apple-system,&quot;SF Pro Display&quot;,&quot;SF Pro Text&quot;,Helvetica,sans-serif;" transform="matrix(1 0 0 1 776 1971)">Leading and trailing margins on the left and right side of each symbol</text>
  <text style="stroke:none;fill:black;font-family:-apple-system,&quot;SF Pro Display&quot;,&quot;SF Pro Text&quot;,Helvetica,sans-serif;" transform="matrix(1 0 0 1 776 1989)">can be adjusted by modifying the width of the blue rectangles.</text>
  <text style="stroke:none;fill:black;font-family:-apple-system,&quot;SF Pro Display&quot;,&quot;SF Pro Text&quot;,Helvetica,sans-serif;" transform="matrix(1 0 0 1 776 2007)">Modifications are automatically applied proportionally to all</text>
  <text style="stroke:none;fill:black;font-family:-apple-system,&quot;SF Pro Display&quot;,&quot;SF Pro Text&quot;,Helvetica,sans-serif;" transform="matrix(1 0 0 1 776 2025)">scales and weights.</text>
  <g id="" transform="matrix(1 0 0 1 1289 1933)">
   <path d="M 2.83203 3.11523 L 4.375 4.6582 C 5.22461 5.48828 6.19141 5.41992 7.06055 4.46289 L 17.2754 -6.66016 C 17.7051 -6.36719 18.0957 -6.37695 18.5645 -6.47461 L 19.6094 -6.68945 L 20.3027 -5.99609 L 20.2539 -5.47852 C 20.1855 -4.95117 20.3516 -4.53125 20.8496 -4.0332 L 21.6602 -3.22266 C 22.168 -2.71484 22.8223 -2.68555 23.3008 -3.16406 L 26.5527 -6.41602 C 27.0312 -6.89453 27.0117 -7.54883 26.5039 -8.05664 L 25.6836 -8.87695 C 25.1855 -9.375 24.7754 -9.55078 24.2383 -9.47266 L 23.7109 -9.41406 L 23.0566 -10.0781 L 23.3398 -11.2207 C 23.4863 -11.7871 23.3398 -12.2559 22.7148 -12.8613 L 20.3027 -15.2539 C 16.7578 -18.7793 12.2266 -18.6719 9.11133 -15.5371 C 8.69141 -15.1074 8.64258 -14.5215 8.91602 -14.0918 C 9.15039 -13.7207 9.62891 -13.4961 10.2734 -13.6621 C 11.7871 -14.043 13.3008 -13.9258 14.7852 -12.9199 L 14.1602 -11.3379 C 13.9258 -10.752 13.9453 -10.2734 14.1797 -9.83398 L 3.01758 0.439453 C 2.08008 1.30859 1.97266 2.25586 2.83203 3.11523 Z M 10.6738 -15.1465 C 13.3398 -17.1387 16.6504 -16.8262 19.0527 -14.4141 L 21.6797 -11.8066 C 21.9141 -11.5723 21.9434 -11.3867 21.8848 -11.0938 L 21.5039 -9.53125 L 23.0762 -7.95898 L 24.043 -8.04688 C 24.3262 -8.07617 24.4141 -8.05664 24.6387 -7.83203 L 25.2637 -7.20703 L 22.5098 -4.46289 L 21.8848 -5.07812 C 21.6602 -5.30273 21.6406 -5.40039 21.6699 -5.68359 L 21.7578 -6.64062 L 20.1953 -8.20312 L 18.5742 -7.89062 C 18.291 -7.83203 18.1445 -7.83203 17.9102 -8.07617 L 15.7324 -10.2539 C 15.5078 -10.4883 15.4785 -10.625 15.6055 -10.9473 L 16.5527 -13.2227 C 14.9512 -14.7559 12.8418 -15.6055 10.8008 -14.9512 C 10.7129 -14.9219 10.6445 -14.9414 10.6152 -14.9805 C 10.5859 -15.0293 10.5859 -15.0781 10.6738 -15.1465 Z M 4.10156 2.41211 C 3.61328 1.91406 3.78906 1.61133 4.12109 1.30859 L 15.0781 -8.80859 L 16.3086 -7.57812 L 6.15234 3.34961 C 5.84961 3.68164 5.46875 3.7793 5.06836 3.37891 Z"/>
  </g>
  <text style="stroke:none;fill:black;font-family:-apple-system,&quot;SF Pro Display&quot;,&quot;SF Pro Text&quot;,Helvetica,sans-serif;font-weight:bold;" transform="matrix(1 0 0 1 1289 1953)">Exporting</text>
  <text style="stroke:none;fill:black;font-family:-apple-system,&quot;SF Pro Display&quot;,&quot;SF Pro Text&quot;,Helvetica,sans-serif;" transform="matrix(1 0 0 1 1289 1971)">Symbols should be outlined when exporting to ensure the</text>
  <text style="stroke:none;fill:black;font-family:-apple-system,&quot;SF Pro Display&quot;,&quot;SF Pro Text&quot;,Helvetica,sans-serif;" transform="matrix(1 0 0 1 1289 1989)">design is preserved when submitting to Xcode.</text>
  <text id="template-version" style="stroke:none;fill:black;font-family:-apple-system,&quot;SF Pro Display&quot;,&quot;SF Pro Text&quot;,Helvetica,sans-serif;text-anchor:end;" transform="matrix(1 0 0 1 3036 1933)">Template v.1.0</text>
  <text style="stroke:none;fill:black;font-family:-apple-system,&quot;SF Pro Display&quot;,&quot;SF Pro Text&quot;,Helvetica,sans-serif;text-anchor:end;" transform="matrix(1 0 0 1 3036 1951)">Generated from arrow.up.right.diamond.fill</text>
  <text style="stroke:none;fill:black;font-family:-apple-system,&quot;SF Pro Display&quot;,&quot;SF Pro Text&quot;,Helvetica,sans-serif;text-anchor:end;" transform="matrix(1 0 0 1 3036 1969)">Typeset at 100 points</text>
  <text style="stroke:none;fill:black;font-family:-apple-system,&quot;SF Pro Display&quot;,&quot;SF Pro Text&quot;,Helvetica,sans-serif;" transform="matrix(1 0 0 1 263 726)">Small</text>
  <text style="stroke:none;fill:black;font-family:-apple-system,&quot;SF Pro Display&quot;,&quot;SF Pro Text&quot;,Helvetica,sans-serif;" transform="matrix(1 0 0 1 263 1156)">Medium</text>
  <text style="stroke:none;fill:black;font-family:-apple-system,&quot;SF Pro Display&quot;,&quot;SF Pro Text&quot;,Helvetica,sans-serif;" transform="matrix(1 0 0 1 263 1586)">Large</text>
 </g>
 <g id="Guides">
  <g id="H-reference" style="fill:#27AAE1;stroke:none;" transform="matrix(1 0 0 1 339 696)">
   <path d="M 54.9316 0 L 57.666 0 L 30.5664 -70.459 L 28.0762 -70.459 L 0.976562 0 L 3.66211 0 L 12.9395 -24.4629 L 45.7031 -24.4629 Z M 29.1992 -67.0898 L 29.4434 -67.0898 L 44.8242 -26.709 L 13.8184 -26.709 Z"/>
  </g>
  <line id="Baseline-S" style="fill:none;stroke:#27AAE1;opacity:1;stroke-width:0.577;" x1="263" x2="3036" y1="696" y2="696"/>
  <line id="Capline-S" style="fill:none;stroke:#27AAE1;opacity:1;stroke-width:0.577;" x1="263" x2="3036" y1="625.541" y2="625.541"/>
  <g id="H-reference" style="fill:#27AAE1;stroke:none;" transform="matrix(1 0 0 1 339 1126)">
   <path d="M 54.9316 0 L 57.666 0 L 30.5664 -70.459 L 28.0762 -70.459 L 0.976562 0 L 3.66211 0 L 12.9395 -24.4629 L 45.7031 -24.4629 Z M 29.1992 -67.0898 L 29.4434 -67.0898 L 44.8242 -26.709 L 13.8184 -26.709 Z"/>
  </g>
  <line id="Baseline-M" style="fill:none;stroke:#27AAE1;opacity:1;stroke-width:0.577;" x1="263" x2="3036" y1="1126" y2="1126"/>
  <line id="Capline-M" style="fill:none;stroke:#27AAE1;opacity:1;stroke-width:0.577;" x1="263" x2="3036" y1="1055.54" y2="1055.54"/>
  <g id="H-reference" style="fill:#27AAE1;stroke:none;" transform="matrix(1 0 0 1 339 1556)">
   <path d="M 54.9316 0 L 57.666 0 L 30.5664 -70.459 L 28.0762 -70.459 L 0.976562 0 L 3.66211 0 L 12.9395 -24.4629 L 45.7031 -24.4629 Z M 29.1992 -67.0898 L 29.4434 -67.0898 L 44.8242 -26.709 L 13.8184 -26.709 Z"/>
  </g>
  <line id="Baseline-L" style="fill:none;stroke:#27AAE1;opacity:1;stroke-width:0.577;" x1="263" x2="3036" y1="1556" y2="1556"/>
  <line id="Capline-L" style="fill:none;stroke:#27AAE1;opacity:1;stroke-width:0.577;" x1="263" x2="3036" y1="1485.54" y2="1485.54"/>
  <rect height="119.336" id="left-margin" style="fill:#00AEEF;stroke:none;opacity:0.4;" width="9.96028" x="1385.83" y="1030.79"/>
  <rect height="119.336" id="right-margin" style="fill:#00AEEF;stroke:none;opacity:0.4;" width="9.94217" x="1503.92" y="1030.79"/>
 </g>
 <g id="Symbols">
  <g id="Black-L" transform="matrix(1 0 0 1 2848.98 1556)">
   <path d="M 99.2676 -100.146 C 90.332 -108.984 78.6133 -109.033 69.3848 -99.7559 L 19.873 -50.293 C 10.5957 -41.0156 10.6445 -29.2969 19.5801 -20.3613 L 69.5801 29.5898 C 78.5156 38.5254 90.1855 38.623 99.5117 29.3457 L 148.975 -20.2148 C 158.252 -29.4434 158.154 -41.1621 149.316 -50.0977 Z M 115.332 -47.4609 C 118.848 -44.6289 118.994 -40.5762 115.332 -37.6953 L 98.3887 -24.0723 C 94.3359 -20.752 89.7949 -22.6074 89.7949 -27.2461 L 89.7949 -34.3262 L 77.2949 -34.3262 C 74.9023 -34.3262 73.4375 -32.8613 73.4375 -30.127 L 73.4375 -22.8516 C 73.4375 -17.8223 70.3125 -14.209 65.332 -14.1602 C 60.4492 -14.1602 57.3242 -17.8223 57.3242 -22.8516 L 57.3242 -35.4492 C 57.3242 -45.0195 62.6953 -50.3906 72.5586 -50.3906 L 89.7949 -50.3906 L 89.7949 -57.959 C 89.7949 -62.6953 94.3359 -64.4043 98.3887 -61.1816 Z"/>
  </g>
  <g id="Heavy-L" transform="matrix(1 0 0 1 2552.7 1556)">
   <path d="M 98.291 -99.9512 C 89.6973 -108.496 78.2715 -108.496 69.4336 -99.6094 L 19.5801 -49.8047 C 10.6934 -40.9668 10.6934 -29.4922 19.2871 -20.8984 L 69.6289 29.4434 C 78.2715 38.0371 89.6973 38.0371 98.584 29.1992 L 148.438 -20.7031 C 157.275 -29.541 157.275 -40.9668 148.682 -49.5605 Z M 114.99 -48.291 C 118.457 -45.459 118.555 -41.5527 114.99 -38.7207 L 98.584 -25.5859 C 94.8242 -22.5586 90.4297 -24.3164 90.4297 -28.7598 L 90.4297 -36.1328 L 76.5625 -36.1328 C 73.3398 -36.1328 71.5332 -34.4238 71.5332 -30.8105 L 71.5332 -21.1914 C 71.5332 -16.6016 68.7988 -13.4277 64.3555 -13.4277 C 59.9609 -13.3789 57.2266 -16.6016 57.2266 -21.1914 L 57.2266 -34.9609 C 57.2266 -45.0684 62.5977 -50.4883 72.9492 -50.4883 L 90.4297 -50.4883 L 90.4297 -58.252 C 90.4297 -62.793 94.8242 -64.4043 98.584 -61.4258 Z"/>
  </g>
  <g id="Bold-L" transform="matrix(1 0 0 1 2256.46 1556)">
   <path d="M 97.2656 -99.7559 C 89.0137 -107.959 77.8809 -107.861 69.4824 -99.4629 L 19.2383 -49.2676 C 10.8398 -40.8691 10.791 -29.6875 18.9941 -21.4844 L 69.7266 29.248 C 77.9785 37.5 89.1602 37.4512 97.5098 29.0527 L 147.803 -21.2402 C 156.201 -29.6387 156.25 -40.8203 148.047 -49.0234 Z M 114.551 -49.1699 C 118.018 -46.3867 118.115 -42.6758 114.551 -39.8926 L 98.8281 -27.3438 C 95.3613 -24.5605 91.1621 -26.2695 91.1621 -30.4688 L 91.1621 -38.2324 L 75.7812 -38.2324 C 71.582 -38.2324 69.4336 -36.1328 69.4336 -31.5918 L 69.4336 -19.2871 C 69.4336 -15.2832 67.1387 -12.5977 63.2812 -12.5488 C 59.4238 -12.5 57.1289 -15.2832 57.1289 -19.2871 L 57.1289 -34.4238 C 57.1289 -45.1172 62.5488 -50.5859 73.3887 -50.5859 L 91.1621 -50.5859 L 91.1621 -58.5938 C 91.1621 -62.8418 95.3613 -64.4531 98.8281 -61.7188 Z"/>
  </g>
  <g id="Semibold-L" transform="matrix(1 0 0 1 1960.09 1556)">
   <path d="M 96.5332 -99.6094 C 88.5742 -107.568 77.5879 -107.422 69.5312 -99.3652 L 18.9941 -48.877 C 10.9375 -40.8203 10.8398 -29.834 18.7988 -21.875 L 69.8242 29.1504 C 77.7832 37.1094 88.7695 37.0117 96.8262 28.9551 L 147.363 -21.6309 C 155.469 -29.6875 155.518 -40.6738 147.559 -48.6328 Z M 114.307 -49.7559 C 117.725 -47.0215 117.773 -43.4082 114.307 -40.6738 L 98.9746 -28.5645 C 95.752 -25.9766 91.6504 -27.5879 91.6504 -31.6406 L 91.6504 -39.6484 L 75.2441 -39.6484 C 70.4102 -39.6484 68.0176 -37.3047 68.0176 -32.1289 L 68.0176 -18.0176 C 68.0176 -14.3555 65.9668 -12.0117 62.5 -11.9629 C 59.082 -11.9141 57.0312 -14.3555 57.0312 -18.0176 L 57.0312 -34.082 C 57.0312 -45.166 62.5 -50.6348 73.6816 -50.6348 L 91.6504 -50.6348 L 91.6504 -58.8379 C 91.6504 -62.8906 95.752 -64.4531 98.9746 -61.9141 Z"/>
  </g>
  <g id="Medium-L" transform="matrix(1 0 0 1 1663.62 1556)">
   <path d="M 95.9961 -99.5117 C 88.1836 -107.275 77.3926 -107.129 69.5801 -99.3164 L 18.8477 -48.584 C 11.0352 -40.7715 10.8887 -29.9316 18.6523 -22.168 L 69.873 29.0527 C 77.6367 36.8164 88.4766 36.6699 96.2891 28.8574 L 147.07 -21.9238 C 154.883 -29.7363 154.98 -40.5762 147.217 -48.3398 Z M 114.062 -50.2441 C 117.529 -47.5098 117.529 -43.9941 114.062 -41.2598 L 99.0723 -29.4434 C 95.9961 -27.002 91.9922 -28.5645 91.9922 -32.5195 L 91.9922 -40.7227 L 74.8535 -40.7227 C 69.4824 -40.7227 66.8945 -38.2324 66.8945 -32.5195 L 66.8945 -17.041 C 66.8945 -13.623 65.0879 -11.5723 61.9141 -11.5234 C 58.7891 -11.4746 56.9824 -13.623 56.9824 -17.041 L 56.9824 -33.7891 C 56.9824 -45.2148 62.4512 -50.6836 73.9258 -50.6836 L 91.9922 -50.6836 L 91.9922 -58.9844 C 91.9922 -62.9395 95.9961 -64.502 99.0723 -62.0605 Z"/>
  </g>
  <g id="Regular-L" transform="matrix(1 0 0 1 1367.23 1556)">
   <path d="M 95.2637 -99.4141 C 87.7441 -106.885 77.1484 -106.689 69.6289 -99.1699 L 18.6035 -48.1934 C 11.084 -40.7227 10.9375 -30.0781 18.4082 -22.5586 L 69.9219 28.9062 C 77.4902 36.4258 88.0859 36.2305 95.5566 28.7598 L 146.631 -22.3145 C 154.15 -29.834 154.297 -40.4785 146.777 -47.9492 Z M 113.77 -50.8301 C 117.188 -48.1445 117.188 -44.7754 113.77 -42.041 L 99.2676 -30.6152 C 96.3867 -28.3691 92.4805 -29.8828 92.4805 -33.6914 L 92.4805 -42.1387 L 74.3164 -42.1387 C 68.3105 -42.1387 65.4785 -39.4043 65.4785 -33.0566 L 65.4785 -15.7715 C 65.4785 -12.6953 63.916 -10.9863 61.1816 -10.9375 C 58.4473 -10.8887 56.8848 -12.6953 56.8848 -15.7715 L 56.8848 -33.4473 C 56.8848 -45.2148 62.4023 -50.7812 74.2188 -50.7812 L 92.4805 -50.7812 L 92.4805 -59.2285 C 92.4805 -62.9883 96.3867 -64.502 99.2676 -62.2559 Z"/>
  </g>
  <g id="Light-L" transform="matrix(1 0 0 1 1070.56 1556)">
   <path d="M 94.1895 -99.8047 C 87.207 -106.689 77.4902 -106.494 70.6055 -99.6094 L 18.1152 -47.168 C 11.2305 -40.2832 11.084 -30.5176 17.9688 -23.6328 L 70.9473 29.2969 C 77.8809 36.1816 87.5977 36.0352 94.5312 29.1504 L 147.021 -23.3887 C 153.906 -30.2734 154.004 -40.0391 147.119 -46.9238 Z M 113.867 -50.4395 C 116.602 -48.2422 116.602 -45.3125 113.867 -43.1152 L 99.7559 -31.9336 C 97.3145 -30.0293 93.8965 -31.1523 93.8965 -34.5215 L 93.8965 -43.5059 L 74.5117 -43.457 C 67.5781 -43.457 64.6973 -40.625 64.6973 -33.3984 L 64.6973 -13.8672 C 64.6973 -11.5723 63.5254 -10.2051 61.4258 -10.1562 C 59.375 -10.1074 58.1543 -11.5723 58.1543 -13.8672 L 58.1543 -33.6426 C 58.1543 -44.9219 63.2324 -50.0977 74.4141 -50.0977 L 93.8965 -50.0977 L 93.8965 -59.0332 C 93.8965 -62.3535 97.3145 -63.5254 99.7559 -61.6211 Z"/>
  </g>
  <g id="Thin-L" transform="matrix(1 0 0 1 773.927 1556)">
   <path d="M 92.7246 -100.342 C 86.5723 -106.445 77.9785 -106.25 71.875 -100.195 L 17.4805 -45.8496 C 11.377 -39.7461 11.2793 -31.1035 17.3828 -25 L 72.2656 29.834 C 78.418 35.8887 87.0117 35.7422 93.1152 29.6387 L 147.51 -24.7559 C 153.613 -30.8594 153.711 -39.502 147.607 -45.6055 Z M 113.916 -49.9023 C 115.869 -48.3398 115.869 -46.0938 113.916 -44.5312 L 100.439 -33.6914 C 98.584 -32.1777 95.752 -32.9102 95.752 -35.6934 L 95.752 -45.3125 L 74.7559 -45.2637 C 66.6504 -45.2637 63.6719 -42.2363 63.6719 -33.8379 L 63.6719 -11.3281 C 63.6719 -10.1074 62.9395 -9.17969 61.7676 -9.17969 C 60.5469 -9.13086 59.8633 -10.1074 59.8633 -11.3281 L 59.8633 -33.9355 C 59.8633 -44.5312 64.3555 -49.1699 74.6582 -49.1699 L 95.752 -49.1699 L 95.752 -58.7402 C 95.752 -61.5234 98.584 -62.2559 100.439 -60.7422 Z"/>
  </g>
  <g id="Ultralight-L" transform="matrix(1 0 0 1 477.265 1556)">
   <path d="M 91.9434 -100.635 C 86.2305 -106.299 78.2227 -106.152 72.5586 -100.488 L 17.1387 -45.166 C 11.4746 -39.502 11.377 -31.3965 17.041 -25.7324 L 72.9492 30.0781 C 78.7109 35.7422 86.7188 35.5957 92.3828 29.9316 L 147.754 -25.4883 C 153.467 -31.1523 153.516 -39.2578 147.852 -44.9219 Z M 113.965 -49.6094 C 115.479 -48.3887 115.479 -46.4844 113.965 -45.2637 L 100.781 -34.5703 C 99.2188 -33.3008 96.7285 -33.7402 96.7285 -36.2793 L 96.7285 -46.2402 L 74.8535 -46.1426 C 66.2109 -46.1426 63.1348 -43.0664 63.1348 -34.082 L 63.1348 -10.0586 C 63.1348 -9.32617 62.6953 -8.64258 61.9141 -8.64258 C 61.1816 -8.64258 60.7422 -9.32617 60.7422 -10.0586 L 60.7422 -34.0332 C 60.7422 -44.3359 64.9414 -48.7305 74.7559 -48.7305 L 96.7285 -48.7305 L 96.7285 -58.5938 C 96.7285 -61.1328 99.2188 -61.5723 100.781 -60.3027 Z"/>
  </g>
  <g id="Black-M" transform="matrix(1 0 0 1 2867.46 1126)">
   <path d="M 77.5879 -85.9863 C 70.5078 -92.9688 61.5723 -93.0664 54.1992 -85.6445 L 15.5273 -47.0703 C 8.10547 -39.5996 8.20312 -30.6641 15.2832 -23.584 L 54.2969 15.4297 C 61.377 22.5098 70.3125 22.6074 77.7832 15.1855 L 116.357 -23.4863 C 123.779 -30.8594 123.682 -39.7949 116.699 -46.875 Z M 89.8926 -43.457 C 92.334 -41.4551 92.4316 -38.3789 89.8926 -36.3281 L 76.2207 -25.1953 C 72.9492 -22.4609 69.4824 -23.8281 69.4824 -27.4414 L 69.4824 -32.7637 L 60.8887 -32.7637 C 59.7656 -32.7637 58.9844 -31.9824 58.9844 -30.5176 L 58.9844 -26.9043 C 58.9844 -22.7539 56.2988 -19.5312 52.0996 -19.5312 C 47.9492 -19.5312 45.2637 -22.7539 45.2637 -26.9043 L 45.2637 -36.1328 C 45.2637 -42.5781 49.0723 -46.4844 55.8105 -46.4844 L 69.4824 -46.4844 L 69.4824 -52.3438 C 69.4824 -56.1035 72.9492 -57.2754 76.2207 -54.6387 Z"/>
  </g>
  <g id="Heavy-M" transform="matrix(1 0 0 1 2571.19 1126)">
   <path d="M 76.8555 -85.6934 C 69.9707 -92.4805 61.084 -92.5293 54.0039 -85.4004 L 15.332 -46.7773 C 8.20312 -39.6484 8.25195 -30.7129 15.0879 -23.877 L 54.1504 15.1855 C 60.9863 22.0215 69.873 22.0703 77.002 14.9414 L 115.674 -23.7305 C 122.803 -30.8105 122.705 -39.7461 115.918 -46.582 Z M 89.502 -44.4336 C 92.041 -42.334 92.1387 -39.3066 89.502 -37.1582 L 76.3184 -26.5137 C 73.2422 -24.0234 69.7754 -25.3906 69.7754 -28.9062 L 69.7754 -34.4238 L 60.1074 -34.4238 C 58.252 -34.4238 57.1289 -33.3496 57.1289 -31.2012 L 57.1289 -25.5371 C 57.1289 -21.7285 54.7363 -18.8965 50.9277 -18.8965 C 47.168 -18.8965 44.7754 -21.7285 44.7754 -25.5371 L 44.7754 -35.5469 C 44.7754 -42.7246 48.7793 -46.7773 56.1523 -46.7773 L 69.7754 -46.7773 L 69.7754 -52.7344 C 69.7754 -56.3477 73.2422 -57.5684 76.3184 -55.0781 Z"/>
  </g>
  <g id="Bold-M" transform="matrix(1 0 0 1 2274.99 1126)">
   <path d="M 75.9766 -85.3516 C 69.3848 -91.9434 60.5469 -91.8945 53.7598 -85.1074 L 15.0879 -46.4355 C 8.30078 -39.6484 8.30078 -30.8105 14.8926 -24.2188 L 53.9551 14.8438 C 60.5469 21.4355 69.3848 21.4844 76.2207 14.6484 L 114.893 -24.0723 C 121.68 -30.8105 121.68 -39.6484 115.088 -46.2891 Z M 89.0137 -45.5078 C 91.6992 -43.3105 91.7969 -40.332 89.0137 -38.1348 L 76.416 -28.0273 C 73.5352 -25.7324 70.166 -27.0996 70.166 -30.5176 L 70.166 -36.2793 L 59.1797 -36.2793 C 56.543 -36.2793 55.0781 -34.8633 55.0781 -31.9336 L 55.0781 -24.0723 C 55.0781 -20.6055 53.0273 -18.2129 49.6582 -18.1641 C 46.3379 -18.1641 44.2871 -20.6055 44.2871 -24.0723 L 44.2871 -34.9121 C 44.2871 -42.8711 48.4863 -47.0703 56.5918 -47.0703 L 70.166 -47.0703 L 70.166 -53.125 C 70.166 -56.5918 73.5352 -57.8613 76.416 -55.6152 Z"/>
  </g>
  <g id="Semibold-M" transform="matrix(1 0 0 1 1978.64 1126)">
   <path d="M 75.4395 -85.1074 C 68.9941 -91.5527 60.1562 -91.4551 53.6133 -84.9121 L 14.9414 -46.2402 C 8.34961 -39.6484 8.30078 -30.8594 14.7461 -24.4141 L 53.8086 14.6484 C 60.2539 21.0938 69.043 21.0449 75.6348 14.4531 L 114.355 -24.2676 C 120.898 -30.8105 120.947 -39.5996 114.502 -46.0449 Z M 88.6719 -46.2402 C 91.5039 -43.9941 91.5527 -41.0156 88.6719 -38.7695 L 76.4648 -29.1016 C 73.7305 -26.9043 70.4102 -28.2715 70.4102 -31.5918 L 70.4102 -37.5488 L 58.5449 -37.5488 C 55.3223 -37.5488 53.6621 -35.9375 53.6621 -32.4219 L 53.6621 -22.998 C 53.6621 -19.7754 51.8066 -17.7246 48.7793 -17.6758 C 45.752 -17.6758 43.9453 -19.7754 43.9453 -22.998 L 43.9453 -34.4727 C 43.9453 -42.9688 48.2422 -47.3145 56.8359 -47.3145 L 70.4102 -47.3145 L 70.4102 -53.418 C 70.4102 -56.7871 73.7305 -58.1055 76.4648 -55.957 Z"/>
  </g>
  <g id="Medium-M" transform="matrix(1 0 0 1 1682.2 1126)">
   <path d="M 75 -84.9609 C 68.6523 -91.2598 59.9121 -91.1621 53.5156 -84.7656 L 14.7949 -46.0938 C 8.44727 -39.6973 8.30078 -30.9082 14.6484 -24.6094 L 53.7109 14.4531 C 60.0586 20.8008 68.7988 20.7031 75.1953 14.3066 L 113.916 -24.4141 C 120.312 -30.8105 120.41 -39.5508 114.062 -45.8984 Z M 88.4277 -46.8262 C 91.3574 -44.5312 91.3574 -41.6016 88.4277 -39.2578 L 76.5137 -29.8828 C 73.9258 -27.832 70.6055 -29.1992 70.6055 -32.4219 L 70.6055 -38.5254 L 58.1055 -38.5254 C 54.4434 -38.5254 52.5879 -36.7188 52.5879 -32.8125 L 52.5879 -22.2168 C 52.5879 -19.1895 50.9277 -17.334 48.0957 -17.334 C 45.3125 -17.2852 43.6523 -19.1895 43.6523 -22.2168 L 43.6523 -34.1797 C 43.6523 -43.0664 48.0957 -47.4609 57.0801 -47.4609 L 70.6055 -47.4609 L 70.6055 -53.6621 C 70.6055 -56.9336 73.9258 -58.252 76.5137 -56.2012 Z"/>
  </g>
  <g id="Regular-M" transform="matrix(1 0 0 1 1385.83 1126)">
   <path d="M 74.4141 -84.7168 C 68.2617 -90.8691 59.5215 -90.7227 53.3691 -84.5703 L 14.6484 -45.8496 C 8.49609 -39.6973 8.34961 -30.957 14.502 -24.8047 L 53.5645 14.2578 C 59.7656 20.4102 68.457 20.3125 74.6582 14.1113 L 113.379 -24.6094 C 119.58 -30.8105 119.678 -39.502 113.525 -45.6543 Z M 88.1348 -47.5586 C 91.1133 -45.166 91.1133 -42.2852 88.1348 -39.8926 L 76.6113 -30.9082 C 74.1211 -29.0039 70.8496 -30.3711 70.8496 -33.5449 L 70.8496 -39.7949 L 57.4707 -39.7949 C 53.2715 -39.7949 51.1719 -37.793 51.1719 -33.3496 L 51.1719 -21.1914 C 51.1719 -18.4082 49.7559 -16.8457 47.2168 -16.7969 C 44.7266 -16.748 43.3105 -18.4082 43.3105 -21.1914 L 43.3105 -33.7402 C 43.3105 -43.1641 47.8516 -47.6562 57.373 -47.6562 L 70.8496 -47.6562 L 70.8496 -53.9551 C 70.8496 -57.1289 74.1211 -58.4961 76.6113 -56.543 Z"/>
  </g>
  <g id="Light-M" transform="matrix(1 0 0 1 1089.14 1126)">
   <path d="M 73.4375 -85.1074 C 67.8223 -90.7227 59.8633 -90.5762 54.248 -84.9609 L 14.2578 -44.9707 C 8.64258 -39.3555 8.49609 -31.3477 14.1113 -25.7812 L 54.4922 14.5996 C 60.1562 20.2148 68.0664 20.1172 73.6816 14.502 L 113.77 -25.5859 C 119.385 -31.2012 119.434 -39.1602 113.818 -44.7754 Z M 88.1836 -47.168 C 90.625 -45.2637 90.625 -42.8223 88.1836 -40.8691 L 77.0508 -32.0801 C 75 -30.4688 72.1191 -31.4941 72.1191 -34.3262 L 72.1191 -41.0645 L 57.6172 -41.0156 C 52.6855 -41.0156 50.4395 -38.8672 50.4395 -33.6426 L 50.4395 -19.5312 C 50.4395 -17.4316 49.3652 -16.1621 47.4609 -16.1621 C 45.5566 -16.1133 44.4824 -17.4316 44.4824 -19.5312 L 44.4824 -33.8867 C 44.4824 -42.8711 48.6328 -47.0703 57.5195 -47.0703 L 72.1191 -47.0703 L 72.1191 -53.7598 C 72.1191 -56.543 75 -57.6172 77.0508 -55.957 Z"/>
  </g>
  <g id="Thin-M" transform="matrix(1 0 0 1 792.482 1126)">
   <path d="M 72.168 -85.5957 C 67.2363 -90.4785 60.3027 -90.332 55.4199 -85.4492 L 13.6719 -43.75 C 8.78906 -38.8672 8.69141 -31.8848 13.5742 -27.002 L 55.7129 15.0879 C 60.6445 19.9707 67.5781 19.8242 72.4609 14.9414 L 114.209 -26.8066 C 119.092 -31.6895 119.189 -38.6719 114.307 -43.5547 Z M 88.2812 -46.7285 C 89.9414 -45.3613 89.9414 -43.457 88.2812 -42.1387 L 77.6855 -33.6426 C 76.123 -32.4219 73.8281 -33.0566 73.8281 -35.3516 L 73.8281 -42.6758 L 57.8613 -42.627 C 51.8555 -42.627 49.5605 -40.332 49.5605 -34.082 L 49.5605 -17.2363 C 49.5605 -16.0645 48.9258 -15.2344 47.8027 -15.2344 C 46.6797 -15.2344 46.0449 -16.0645 46.0449 -17.2363 L 46.0449 -34.1309 C 46.0449 -42.5293 49.6582 -46.2402 57.8125 -46.2402 L 73.8281 -46.2402 L 73.8281 -53.5156 C 73.8281 -55.8105 76.123 -56.4453 77.6855 -55.1758 Z"/>
  </g>
  <g id="Ultralight-M" transform="matrix(1 0 0 1 495.795 1126)">
   <path d="M 71.4844 -85.8398 C 66.8945 -90.332 60.5469 -90.2344 56.0059 -85.6934 L 13.3789 -43.1152 C 8.83789 -38.623 8.78906 -32.1777 13.3301 -27.6367 L 56.3477 15.2832 C 60.9375 19.8242 67.2852 19.6777 71.8262 15.1855 L 114.453 -27.4414 C 118.994 -31.9824 119.043 -38.4277 114.502 -42.9199 Z M 88.3301 -46.4355 C 89.5996 -45.4102 89.5996 -43.8477 88.3301 -42.7734 L 77.9785 -34.4727 C 76.709 -33.3984 74.6582 -33.8379 74.6582 -35.8887 L 74.6582 -43.5059 L 57.959 -43.4082 C 51.4648 -43.4082 49.0723 -41.0645 49.0723 -34.2773 L 49.0723 -16.1133 C 49.0723 -15.3809 48.6816 -14.7949 47.9492 -14.7949 C 47.2168 -14.7949 46.8262 -15.3809 46.8262 -16.1133 L 46.8262 -34.2773 C 46.8262 -42.334 50.1465 -45.8008 57.9102 -45.8008 L 74.6582 -45.8008 L 74.6582 -53.3691 C 74.6582 -55.4199 76.709 -55.8594 77.9785 -54.7852 Z"/>
  </g>
  <g id="Black-S" transform="matrix(1 0 0 1 2881.76 696)">
   <path d="M 60.7422 -74.9512 C 55.2246 -80.4199 48.1934 -80.5176 42.4316 -74.707 L 12.1582 -44.4824 C 6.34766 -38.6719 6.44531 -31.6406 11.9629 -26.123 L 42.5293 4.44336 C 48.0469 9.96094 55.0781 10.0586 60.8887 4.24805 L 91.1133 -26.0254 C 96.9238 -31.7871 96.8262 -38.8184 91.3574 -44.3359 Z M 70.4102 -41.748 C 72.3145 -40.1855 72.4121 -37.7441 70.4102 -36.1328 L 59.7168 -27.4414 C 57.1777 -25.3418 54.4434 -26.416 54.4434 -29.248 L 54.4434 -33.3984 L 47.6562 -33.3984 C 46.7285 -33.3984 46.0938 -32.7637 46.0938 -31.5918 L 46.0938 -28.6133 C 46.0938 -25.3906 43.9941 -22.9004 40.7227 -22.9004 C 37.5 -22.9004 35.4004 -25.3906 35.4004 -28.6133 L 35.4004 -35.8887 C 35.4004 -41.0156 38.4277 -44.0918 43.75 -44.0918 L 54.4434 -44.0918 L 54.4434 -48.6816 C 54.4434 -51.6113 57.1777 -52.5391 59.7168 -50.4883 Z"/>
  </g>
  <g id="Heavy-S" transform="matrix(1 0 0 1 2585.39 696)">
   <path d="M 60.3027 -74.707 C 54.8828 -80.0781 47.8027 -80.127 42.1875 -74.4629 L 12.0605 -44.3848 C 6.39648 -38.7207 6.44531 -31.6406 11.8652 -26.2207 L 42.2852 4.19922 C 47.7051 9.61914 54.7852 9.66797 60.4492 4.00391 L 90.5273 -26.123 C 96.1914 -31.7383 96.1426 -38.8184 90.7715 -44.2383 Z M 70.0684 -42.5293 C 72.168 -40.8691 72.2168 -38.3789 70.0684 -36.6699 L 59.7168 -28.3691 C 57.2754 -26.3672 54.541 -27.4414 54.541 -30.2734 L 54.541 -34.5215 L 47.0215 -34.5215 C 45.6055 -34.5215 44.7754 -33.6914 44.7754 -32.0801 L 44.7754 -27.7832 C 44.7754 -24.707 42.8711 -22.5098 39.8438 -22.4609 C 36.8164 -22.4609 34.9121 -24.707 34.9121 -27.7832 L 34.9121 -35.4492 C 34.9121 -41.1621 38.1348 -44.3848 43.9941 -44.3848 L 54.541 -44.3848 L 54.541 -48.9746 C 54.541 -51.8555 57.2754 -52.832 59.7168 -50.8789 Z"/>
  </g>
  <g id="Bold-S" transform="matrix(1 0 0 1 2289.07 696)">
   <path d="M 59.7656 -74.4141 C 54.4434 -79.6875 47.3633 -79.6387 41.8945 -74.2188 L 11.9141 -44.2383 C 6.49414 -38.7695 6.44531 -31.6895 11.7676 -26.3672 L 42.041 3.90625 C 47.3633 9.22852 54.4434 9.22852 59.9121 3.75977 L 89.8926 -26.2695 C 95.3613 -31.6895 95.3613 -38.7695 90.0879 -44.0918 Z M 69.7266 -43.4082 C 71.9727 -41.6016 72.0215 -39.1113 69.7266 -37.3047 L 59.7656 -29.3457 C 57.4219 -27.4902 54.6875 -28.6133 54.6875 -31.3965 L 54.6875 -35.791 L 46.2891 -35.791 C 44.3848 -35.791 43.2617 -34.7168 43.2617 -32.6172 L 43.2617 -26.8555 C 43.2617 -23.9746 41.5527 -22.0215 38.8184 -22.0215 C 36.084 -21.9727 34.375 -23.9746 34.375 -26.8555 L 34.375 -34.9121 C 34.375 -41.3086 37.793 -44.6777 44.2871 -44.6777 L 54.6875 -44.6777 L 54.6875 -49.3164 C 54.6875 -52.1484 57.4219 -53.2227 59.7656 -51.3672 Z"/>
  </g>
  <g id="Semibold-S" transform="matrix(1 0 0 1 1992.63 696)">
   <path d="M 59.4238 -74.1699 C 54.1992 -79.3945 47.0215 -79.3457 41.748 -74.0234 L 11.8652 -44.1406 C 6.54297 -38.8184 6.44531 -31.6895 11.6699 -26.4648 L 41.8457 3.71094 C 47.0703 8.93555 54.248 8.88672 59.5703 3.56445 L 89.4531 -26.3184 C 94.7754 -31.6406 94.8242 -38.7695 89.5996 -43.9941 Z M 69.4336 -43.9941 C 71.875 -42.0898 71.875 -39.6484 69.4336 -37.6953 L 59.7656 -30.0781 C 57.5195 -28.2715 54.7363 -29.4434 54.7363 -32.1777 L 54.7363 -36.6699 L 45.8008 -36.6699 C 43.5547 -36.6699 42.2363 -35.4492 42.2363 -32.959 L 42.2363 -26.2207 C 42.2363 -23.4375 40.6738 -21.7285 38.1348 -21.6797 C 35.5469 -21.6797 34.0332 -23.4375 34.0332 -26.2207 L 34.0332 -34.5703 C 34.0332 -41.4062 37.5488 -44.873 44.4824 -44.873 L 54.7363 -44.873 L 54.7363 -49.5605 C 54.7363 -52.2949 57.5195 -53.4668 59.7656 -51.6602 Z"/>
  </g>
  <g id="Medium-S" transform="matrix(1 0 0 1 1696.12 696)">
   <path d="M 59.1309 -74.0234 C 53.9551 -79.1992 46.7773 -79.1016 41.6016 -73.877 L 11.7676 -44.0918 C 6.54297 -38.8672 6.44531 -31.6895 11.6211 -26.5137 L 41.748 3.56445 C 46.875 8.74023 54.0527 8.69141 59.2773 3.4668 L 89.1113 -26.3672 C 94.3359 -31.5918 94.3848 -38.7695 89.2578 -43.9453 Z M 69.2383 -44.4824 C 71.7773 -42.4805 71.7773 -39.9902 69.2383 -38.0371 L 59.7656 -30.6152 C 57.5684 -28.8574 54.7852 -30.0293 54.7852 -32.7637 L 54.7852 -37.3535 L 45.459 -37.3535 C 42.8711 -37.3535 41.4551 -35.9863 41.4551 -33.252 L 41.4551 -25.7324 C 41.4551 -23.0469 40.0391 -21.4844 37.5977 -21.4355 C 35.1562 -21.4355 33.7402 -23.0469 33.7402 -25.7324 L 33.7402 -34.3262 C 33.7402 -41.4551 37.3535 -45.0684 44.6777 -45.0684 L 54.7852 -45.0684 L 54.7852 -49.7559 C 54.7852 -52.4414 57.5684 -53.6133 59.7656 -51.9043 Z"/>
  </g>
  <g id="Regular-S" transform="matrix(1 0 0 1 1399.67 696)">
   <path d="M 58.7891 -73.8281 C 53.7109 -78.9062 46.4844 -78.7598 41.4062 -73.6816 L 11.7188 -43.9941 C 6.5918 -38.916 6.49414 -31.6895 11.5723 -26.6113 L 41.5527 3.36914 C 46.6309 8.44727 53.8574 8.34961 58.9355 3.27148 L 88.6719 -26.4648 C 93.75 -31.543 93.8477 -38.7695 88.7695 -43.8477 Z M 68.9941 -45.0684 C 71.6309 -42.9688 71.6309 -40.5273 68.9941 -38.4277 L 59.8145 -31.2988 C 57.666 -29.6387 54.8828 -30.8594 54.8828 -33.4961 L 54.8828 -38.2324 L 44.9707 -38.2324 C 42.041 -38.2324 40.4297 -36.6699 40.4297 -33.5938 L 40.4297 -25.0977 C 40.4297 -22.5586 39.1602 -21.1914 36.9141 -21.1426 C 34.668 -21.0938 33.3984 -22.5586 33.3984 -25.0977 L 33.3984 -33.9844 C 33.3984 -41.5527 37.1094 -45.2637 44.873 -45.2637 L 54.8828 -45.2637 L 54.8828 -49.9512 C 54.8828 -52.6367 57.666 -53.8574 59.8145 -52.1973 Z"/>
  </g>
  <g id="Light-S" transform="matrix(1 0 0 1 1102.99 696)">
   <path d="M 57.9102 -74.1699 C 53.3203 -78.7598 46.7773 -78.6133 42.1875 -74.0234 L 11.3281 -43.2129 C 6.73828 -38.5742 6.5918 -32.0312 11.2305 -27.4414 L 42.3828 3.66211 C 46.9727 8.30078 53.5156 8.20312 58.1055 3.56445 L 89.0137 -27.2949 C 93.6035 -31.8848 93.7012 -38.4277 89.0625 -43.0664 Z M 69.0918 -44.7266 C 71.1914 -43.0664 71.1914 -40.9668 69.0918 -39.2578 L 60.2051 -32.3242 C 58.3984 -30.9082 56.0059 -31.8848 56.0059 -34.2285 L 56.0059 -39.3066 L 45.1172 -39.3066 C 41.5039 -39.3066 39.7949 -37.6465 39.7949 -33.8867 L 39.7949 -23.584 C 39.7949 -21.6309 38.8184 -20.5566 37.1094 -20.5566 C 35.4004 -20.5078 34.4238 -21.6309 34.4238 -23.584 L 34.4238 -34.1309 C 34.4238 -41.3086 37.793 -44.7266 45.0195 -44.7266 L 56.0059 -44.7266 L 56.0059 -49.8047 C 56.0059 -52.1484 58.3984 -53.0762 60.2051 -51.709 Z"/>
  </g>
  <g id="Thin-S" transform="matrix(1 0 0 1 806.3 696)">
   <path d="M 56.7871 -74.5605 C 52.7832 -78.5645 47.168 -78.4668 43.2129 -74.4629 L 10.8398 -42.1387 C 6.83594 -38.1836 6.78711 -32.5195 10.7422 -28.5645 L 43.4082 4.10156 C 47.4121 8.05664 53.0273 7.95898 56.9824 4.00391 L 89.4043 -28.418 C 93.3594 -32.373 93.4082 -38.0371 89.4531 -41.9922 Z M 69.1406 -44.3359 C 70.6055 -43.1641 70.6055 -41.5527 69.1406 -40.3809 L 60.7422 -33.6914 C 59.4238 -32.666 57.5195 -33.2031 57.5195 -35.1074 L 57.5195 -40.7227 L 45.3125 -40.7227 C 40.7715 -40.7227 39.0137 -38.916 39.0137 -34.2285 L 39.0137 -21.582 C 39.0137 -20.459 38.4277 -19.7754 37.4023 -19.7266 C 36.377 -19.7266 35.791 -20.459 35.791 -21.582 L 35.791 -34.3262 C 35.791 -41.0156 38.7207 -43.9941 45.2148 -43.9941 L 57.5195 -43.9941 L 57.5195 -49.6094 C 57.5195 -51.5137 59.4238 -52.0508 60.7422 -51.0254 Z"/>
  </g>
  <g id="Ultralight-S" transform="matrix(1 0 0 1 509.613 696)">
   <path d="M 56.2012 -74.8047 C 52.5391 -78.4668 47.3633 -78.3203 43.75 -74.707 L 10.5469 -41.6016 C 6.93359 -37.9395 6.88477 -32.7637 10.498 -29.1016 L 43.9941 4.29688 C 47.6562 7.95898 52.7832 7.86133 56.4453 4.19922 L 89.5996 -28.9551 C 93.2617 -32.6172 93.3105 -37.793 89.6484 -41.4551 Z M 69.1895 -44.0918 C 70.3125 -43.2129 70.3125 -41.8945 69.1895 -40.9668 L 61.0352 -34.4238 C 59.9609 -33.5449 58.3008 -33.9355 58.3008 -35.5957 L 58.3008 -41.5039 L 45.4102 -41.4551 C 40.4297 -41.4551 38.5742 -39.5996 38.5742 -34.4238 L 38.5742 -20.5566 C 38.5742 -19.873 38.1836 -19.3359 37.5488 -19.3359 C 36.8652 -19.3359 36.4746 -19.873 36.4746 -20.5566 L 36.4746 -34.4238 C 36.4746 -40.8691 39.1602 -43.6523 45.3613 -43.6523 L 58.3008 -43.6523 L 58.3008 -49.5117 C 58.3008 -51.1719 59.9609 -51.5137 61.0352 -50.6836 Z"/>
  </g>
 </g>
</svg>
